<svg id="Layer_1" data-name="Layer 1" xmlns="http://www.w3.org/2000/svg" xmlns:xlink="http://www.w3.org/1999/xlink" viewBox="0 0 956.8 751.8"><defs><style>.cls-1{fill:none;}.cls-2{font-size:12px;}.cls-10,.cls-11,.cls-2,.cls-22,.cls-4{font-family:STZhongsong, STZhongsong;}.cls-3{font-size:10px;}.cls-4{font-size:11px;}.cls-5{fill:url(#linear-gradient);}.cls-6{fill:#c5d5e6;}.cls-7{clip-path:url(#clip-path);}.cls-8{clip-path:url(#clip-path-2);}.cls-9{fill:#d3dfe9;}.cls-10{font-size:14px;}.cls-11{font-size:18px;}.cls-12{fill:#76a3d1;}.cls-13{fill:#fafafa;}.cls-14{letter-spacing:0.11em;}.cls-15{fill:#1f69b4;}.cls-16{letter-spacing:1.74em;}.cls-17{fill:#f1f1f1;}.cls-18{fill:#e2e8ed;}.cls-19{fill:#8fb3d8;}.cls-20{letter-spacing:2.6em;}.cls-21{letter-spacing:0.54em;}.cls-22{font-size:13px;}.cls-23{letter-spacing:0.81em;}.cls-24{letter-spacing:-0.13em;}</style><linearGradient id="linear-gradient" x1="718.89" y1="589.53" x2="877.29" y2="589.53" gradientUnits="userSpaceOnUse"><stop offset="0" stop-color="#fff"/><stop offset="0" stop-color="#f5f5f5"/><stop offset="1" stop-color="#01579b"/></linearGradient><clipPath id="clip-path" transform="translate(-43.2 -133)"><rect class="cls-1" x="64.2" y="150.4" width="880" height="532.8"/></clipPath><clipPath id="clip-path-2" transform="translate(-43.2 -133)"><rect class="cls-1" x="62.4" y="147.4" width="890" height="537"/></clipPath></defs><title>Cancer-cost</title><text class="cls-2" transform="translate(27.69 603.93)">97.9%:Median case fatality(%)<tspan x="0" y="14.4">$6,896:Global expenditure standard（$)</tspan><tspan class="cls-3"><tspan x="0" y="40.8">*The global expenditure standard：</tspan><tspan x="0" y="52.8" xml:space="preserve"> computed separately for each cancer site, </tspan><tspan x="0" y="64.8">equals the medical care costs for the country with the lowest case fatality rate.</tspan></tspan></text><text class="cls-4" transform="translate(27.69 698.21)">数据来源：Economists Intelligence Unit (2009) Breakaway: The Global Burden of Cancer-Challenges and Opportunities, a Report from the Economist Intelligence Unit. The <tspan x="0" y="13.2">Economist.https://assets-livestrong-org.s3.amazonaws.com/media/site_proxy/data/c49ced3068f7205319cb1edf653dd91e0baee3ba.pdf</tspan></text><text class="cls-2" transform="translate(27.69 575.13)">*数据说明：</text><polyline class="cls-5" points="877.29 603.93 718.89 603.93 718.89 575.13"/><text class="cls-4" transform="translate(877.29 603.93)">高</text><text class="cls-4" transform="translate(704.49 603.93)">低</text><rect class="cls-6" x="718.89" y="618.33" width="43.2" height="28.8"/><text class="cls-4" transform="translate(776.49 632.73)">方框大小表示平均致死率<tspan x="0" y="13.2">面积越大，致死率越高</tspan></text><text class="cls-2" transform="translate(776.49 598.12)">费用 </text><g class="cls-7"><g class="cls-8"><image width="901" height="579" xlink:href="屏幕快照 2017-08-23 下午12.26.14.png"/><rect class="cls-9" x="19" y="17.4" width="90" height="80"/><text class="cls-10" transform="translate(38.8 72)">97.9%<tspan x="0" y="16.8">$6,896</tspan></text><text class="cls-11" transform="translate(38.8 51.01)">肝癌</text><rect class="cls-12" x="24.4" y="166.21" width="43.2" height="28.8"/><rect class="cls-13" x="14.4" y="147" width="90" height="80"/><text class="cls-11" transform="translate(38.8 180.61)">胰腺癌</text><text class="cls-10" x="-43.2" y="-133"><tspan x="38.8" y="204">97%</tspan><tspan class="cls-14" x="68.76" y="204">	</tspan><tspan x="38.8" y="220.8">$38,574</tspan></text><rect class="cls-15" x="24.4" y="295.81" width="28.8" height="57.6"/><rect class="cls-13" x="19" y="291" width="90" height="80"/><text class="cls-10" transform="translate(38.8 345.6)">92.4%<tspan class="cls-16" x="43.12" y="0">	</tspan><tspan x="0" y="16.8">$72,333</tspan></text><text class="cls-11" transform="translate(38.8 324.61)">肺癌</text><rect class="cls-17" x="24.4" y="425.41" width="72" height="28.8"/><rect class="cls-9" x="14.4" y="420.6" width="90" height="86.4"/><text class="cls-11" transform="translate(26.2 460.8)">食管癌</text><text class="cls-10" transform="translate(37 475.2)">91.4%<tspan class="cls-16" x="43.12" y="0">	</tspan><tspan x="0" y="16.8">$7,412</tspan></text><rect class="cls-18" x="255.6" y="22.21" width="56" height="14.4"/><rect class="cls-9" x="244.8" y="17.4" width="75.6" height="67.2"/><text class="cls-10" transform="translate(259.2 46.2)">胃癌</text><text class="cls-2" transform="translate(259.2 60.6)">82.6%<tspan x="0" y="14.4">$10,256</tspan></text><path class="cls-19" d="M305.2,299.21h14.4a7.2,7.2,0,0,1,7.2,7.2h0a7.2,7.2,0,0,1-7.2,7.2H305.2c-4,0-7.2-3.22.54-1.25" transform="translate(-43.2 -133)"/><rect class="cls-13" x="249.9" y="163.04" width="75.6" height="67.2"/><text class="cls-10" transform="translate(259.2 190.2)">脑癌</text><text class="cls-2" transform="translate(259.2 204.6)">77.3%<tspan class="cls-20" x="36.96" y="0">	</tspan><tspan x="0" y="14.4">$32,379</tspan></text><rect class="cls-9" x="244.8" y="295.8" width="77" height="67.2"/><text class="cls-10" transform="translate(259.2 319.8)">白血病</text><text class="cls-2" transform="translate(259.2 334.2)">75%<tspan class="cls-21" x="25.68" y="0">	</tspan><tspan x="0" y="14.4">$2,719</tspan></text><rect class="cls-9" x="244.8" y="435" width="77" height="67.2"/><text class="cls-10" transform="translate(259.2 454.21)">骨髓瘤</text><text class="cls-2" transform="translate(259.2 468.61)">66.7%<tspan class="cls-20" x="36.96" y="0">	</tspan><tspan x="0" y="14.4">$27,948</tspan></text><rect class="cls-13" x="432" y="17.4" width="61.2" height="67.2"/><text class="cls-22" transform="translate(440.2 46.2)">鼻咽癌</text><text class="cls-2" transform="translate(440.2 60.6)">65.9%<tspan class="cls-20" x="36.96" y="0">	</tspan><tspan x="0" y="14.4">$48,226</tspan></text><rect class="cls-9" x="428.4" y="195" width="61.2" height="67.2"/><text class="cls-22" transform="translate(432 223.8)">卵巢癌</text><text class="cls-2" transform="translate(432 238.2)">54.8%<tspan class="cls-20" x="36.96" y="0">	</tspan><tspan x="0" y="14.4">$4,533</tspan></text><rect class="cls-9" x="432" y="319.8" width="61.2" height="67.2"/><text class="cls-22" transform="translate(440.2 348.6)">子宫颈癌</text><text class="cls-2" transform="translate(440.2 367.81)">53.9%<tspan class="cls-20" x="36.96" y="0">	</tspan><tspan x="0" y="14.4">$7,632</tspan></text><rect class="cls-9" x="440.2" y="439.8" width="61.2" height="67.2"/><text class="cls-22" transform="translate(440.2 463.8)">前列腺癌</text><text class="cls-2" transform="translate(440.2 483.01)">52.6%<tspan class="cls-20" x="36.96" y="0">	</tspan><tspan x="0" y="14.4">$17,114</tspan></text><rect class="cls-6" x="555.4" y="17.4" width="100.8" height="57.6"/><text class="cls-2" transform="translate(555.4 31.8)">非霍奇金淋巴瘤</text><text class="cls-4" transform="translate(569.8 46.2)">65%<tspan class="cls-23" x="23.54" y="0">	</tspan><tspan x="0" y="13.2">$14,503</tspan></text><rect class="cls-13" x="590.4" y="202.2" width="72" height="60"/><text class="cls-2" transform="translate(603.4 219)">口腔癌</text><text class="cls-4" transform="translate(604.8 233.4)">50.8%<tspan x="0" y="13.2">$41,570</tspan></text><rect class="cls-13" x="590.4" y="360.6" width="72" height="60"/><text class="cls-2" transform="translate(603.4 377.4)">膀胱癌</text><text class="cls-4" transform="translate(603.4 391.8)">41.3%<tspan class="cls-24" x="33.88" y="0">	</tspan><tspan x="0" y="13.2">$30,230</tspan></text><rect class="cls-13" x="590.4" y="463.8" width="86.4" height="59"/><text class="cls-4" transform="translate(603.4 497.41)">65%<tspan class="cls-23" x="23.54" y="0">	</tspan><tspan x="0" y="13.2">$14,503</tspan></text><text class="cls-2" transform="translate(600.4 483.01)">霍奇金淋巴瘤</text><rect class="cls-13" x="676.8" y="17.4" width="57.6" height="60"/><text class="cls-2" transform="translate(686.8 36.61)">喉癌</text><text class="cls-4" transform="translate(686.8 51.01)">60%<tspan x="0" y="13.2">$32,626</tspan></text><rect class="cls-13" x="703.2" y="202.2" width="60" height="60"/><text class="cls-2" transform="translate(705.6 219)">肾癌</text><text class="cls-4" transform="translate(705.6 233.4)">47.1%<tspan class="cls-24" x="33.88" y="0">	</tspan><tspan x="0" y="13.2">$31,450</tspan></text><rect class="cls-9" x="734.4" y="363" width="60" height="57.6"/><text class="cls-2" transform="translate(749.8 382.21)">黑素瘤</text><text class="cls-4" transform="translate(749.8 396.61)">26.5%<tspan class="cls-24" x="33.88" y="0">	</tspan><tspan x="0" y="13.2">$15,669</tspan></text><rect class="cls-13" x="734.4" y="463.8" width="60" height="57.6"/><text class="cls-2" transform="translate(744.4 483.01)">甲状腺癌</text><text class="cls-4" transform="translate(744.4 497.41)">23.1%<tspan x="0" y="13.2">63,270</tspan></text><rect class="cls-6" x="820.8" y="463.8" width="60" height="43.2"/><text class="cls-2" transform="translate(830.8 483.01)">睾丸癌</text><text class="cls-4" transform="translate(830.8 497.41)">18.1%<tspan class="cls-24" x="33.88" y="0">	</tspan><tspan x="0" y="13.2">$11,928</tspan></text><rect class="cls-13" x="818.4" y="363" width="60" height="57.6"/><text class="cls-2" transform="translate(820.8 382.21)">子宫体癌</text><text class="cls-4" transform="translate(820.8 396.61)">25.3%<tspan x="0" y="13.2">25,458</tspan></text><rect class="cls-13" x="804" y="204.6" width="60" height="60"/><text class="cls-2" transform="translate(806.4 219)">乳腺癌</text><text class="cls-4" transform="translate(806.4 233.4)">43.3%<tspan x="0" y="13.2">32,964</tspan></text><rect class="cls-13" x="785.8" y="17.4" width="62" height="60"/><text class="cls-2" transform="translate(785.8 36.61)">结直肠癌</text><text class="cls-4" transform="translate(785.8 51.01)">58.1%<tspan x="0" y="13.2">$48,487</tspan></text></g></g></svg>