<svg id="Layer_1" data-name="Layer 1" xmlns="http://www.w3.org/2000/svg" xmlns:xlink="http://www.w3.org/1999/xlink" viewBox="0 0 943.51 752.67"><defs><style>.cls-1{fill:#d3dfe9;}.cls-2{font-size:14px;}.cls-11,.cls-15,.cls-17,.cls-2,.cls-3{font-family:STZhongsong, STZhongsong;}.cls-3{font-size:18px;}.cls-4{fill:#76a3d1;}.cls-5{fill:#fafafa;}.cls-6{letter-spacing:0.11em;}.cls-7{fill:#1f69b4;}.cls-8{letter-spacing:1.74em;}.cls-9{fill:#f1f1f1;}.cls-10{fill:#e2e8ed;}.cls-11{font-size:12px;}.cls-12{fill:#8fb3d8;}.cls-13{letter-spacing:2.6em;}.cls-14{letter-spacing:0.54em;}.cls-15{font-size:13px;}.cls-16{fill:#c5d5e6;}.cls-17{font-size:11px;}.cls-18{letter-spacing:0.81em;}.cls-19{letter-spacing:-0.13em;}.cls-20{font-size:10px;}.cls-21{fill:url(#linear-gradient);}</style><linearGradient id="linear-gradient" x1="705.6" y1="590.4" x2="864" y2="590.4" gradientUnits="userSpaceOnUse"><stop offset="0" stop-color="#fff"/><stop offset="0" stop-color="#f5f5f5"/><stop offset="1" stop-color="#01579b"/></linearGradient></defs><title>Cancer-cost</title><image width="901" height="579" xlink:href="tree.png"/><rect class="cls-1" x="16.2" y="22.21" width="90" height="80"/><text class="cls-2" transform="translate(30.6 72)">97.9%<tspan x="0" y="16.8">$6,896</tspan></text><text class="cls-3" transform="translate(30.6 51.01)">肝癌</text><rect class="cls-4" x="16.2" y="166.21" width="43.2" height="28.8"/><rect class="cls-5" x="16.2" y="158.21" width="90" height="80"/><text class="cls-3" transform="translate(30.6 180.61)">胰腺癌</text><text class="cls-2" x="-43.2" y="-265.6"><tspan x="30.6" y="204">97%</tspan><tspan class="cls-6" x="60.56" y="204">	</tspan><tspan x="30.6" y="220.8">$38,574</tspan></text><rect class="cls-7" x="16.2" y="295.81" width="28.8" height="57.6"/><rect class="cls-5" x="16.2" y="295.81" width="90" height="80"/><text class="cls-2" transform="translate(30.6 345.6)">92.4%<tspan class="cls-8" x="43.12" y="0">	</tspan><tspan x="0" y="16.8">$72,333</tspan></text><text class="cls-3" transform="translate(30.6 324.61)">肺癌</text><rect class="cls-9" x="16.2" y="425.41" width="72" height="28.8"/><rect class="cls-1" x="14.4" y="432" width="90" height="80"/><text class="cls-3" transform="translate(18 460.8)">食管癌</text><text class="cls-2" transform="translate(28.8 475.2)">91.4%<tspan class="cls-8" x="43.12" y="0">	</tspan><tspan x="0" y="16.8">$7,412</tspan></text><rect class="cls-10" x="247.4" y="22.21" width="56" height="14.4"/><rect class="cls-1" x="258" y="27.01" width="75.6" height="67.2"/><text class="cls-2" transform="translate(261 51.01)">胃癌</text><text class="cls-11" transform="translate(261 65.41)">82.6%<tspan x="0" y="14.4">$10,256</tspan></text><path class="cls-12" d="M297,431.81h14.4a7.2,7.2,0,0,1,7.2,7.2h0a7.2,7.2,0,0,1-7.2,7.2H297c-4,0-7.2-3.22.54-1.25" transform="translate(-43.2 -265.6)"/><rect class="cls-5" x="255.4" y="171.01" width="75.6" height="67.2"/><text class="cls-2" transform="translate(261 195.01)">脑癌</text><text class="cls-11" transform="translate(261 209.41)">77.3%<tspan class="cls-13" x="36.96" y="0">	</tspan><tspan x="0" y="14.4">$32,379</tspan></text><rect class="cls-1" x="253.7" y="300.61" width="77" height="67.2"/><text class="cls-2" transform="translate(261 324.61)">白血病</text><text class="cls-11" transform="translate(261 339.01)">75%<tspan class="cls-14" x="25.68" y="0">	</tspan><tspan x="0" y="14.4">$2,719</tspan></text><rect class="cls-1" x="256" y="439.81" width="77" height="67.2"/><text class="cls-2" transform="translate(261 454.21)">骨髓瘤</text><text class="cls-11" transform="translate(261 468.61)">66.7%<tspan class="cls-13" x="36.96" y="0">	</tspan><tspan x="0" y="14.4">$27,948</tspan></text><rect class="cls-5" x="444.6" y="22.21" width="61.2" height="67.2"/><text class="cls-15" transform="translate(447.6 46.21)">鼻咽癌</text><text class="cls-11" transform="translate(447.6 60.61)">65.9%<tspan class="cls-13" x="36.96" y="0">	</tspan><tspan x="0" y="14.4">$48,226</tspan></text><rect class="cls-1" x="442.6" y="199.81" width="61.2" height="67.2"/><text class="cls-15" transform="translate(447.6 223.81)">卵巢癌</text><text class="cls-11" transform="translate(447.6 238.21)">54.8%<tspan class="cls-13" x="36.96" y="0">	</tspan><tspan x="0" y="14.4">$4,533</tspan></text><rect class="cls-1" x="442.6" y="324.61" width="61.2" height="67.2"/><text class="cls-15" transform="translate(447.6 353.41)">子宫颈癌</text><text class="cls-11" transform="translate(448.2 367.81)">53.9%<tspan class="cls-13" x="36.96" y="0">	</tspan><tspan x="0" y="14.4">$7,632</tspan></text><rect class="cls-1" x="442.6" y="439.81" width="61.2" height="67.2"/><text class="cls-15" transform="translate(447.6 468.61)">前列腺癌</text><text class="cls-11" transform="translate(448.2 483.01)">52.6%<tspan class="cls-13" x="36.96" y="0">	</tspan><tspan x="0" y="14.4">$17,114</tspan></text><rect class="cls-16" x="563.4" y="22.21" width="100.8" height="57.6"/><text class="cls-11" transform="translate(566.4 46.21)">非霍奇金淋巴瘤</text><text class="cls-17" transform="translate(566.4 60.61)">65%<tspan class="cls-18" x="23.54" y="0">	</tspan><tspan x="0" y="13.2">$14,503</tspan></text><rect class="cls-5" x="592.2" y="208.21" width="72" height="60"/><text class="cls-11" transform="translate(595.2 233.41)">口腔癌</text><text class="cls-17" transform="translate(595.2 247.81)">50.8%<tspan x="0" y="13.2">$41,570</tspan></text><rect class="cls-5" x="592.2" y="365.41" width="72" height="60"/><text class="cls-11" transform="translate(595.2 390.61)">膀胱癌</text><text class="cls-17" transform="translate(595.2 405.01)">41.3%<tspan class="cls-19" x="33.88" y="0">	</tspan><tspan x="0" y="13.2">$30,230</tspan></text><rect class="cls-5" x="593.9" y="465.91" width="83" height="59"/><text class="cls-17" transform="translate(595.2 497.41)">65%<tspan class="cls-18" x="23.54" y="0">	</tspan><tspan x="0" y="13.2">$14,503</tspan></text><text class="cls-11" transform="translate(592.2 483.01)">霍奇金淋巴瘤</text><rect class="cls-5" x="678.6" y="19.81" width="57.6" height="60"/><text class="cls-11" transform="translate(678.6 36.61)">喉癌</text><text class="cls-17" transform="translate(678.6 51.01)">60%<tspan x="0" y="13.2">$32,626</tspan></text><rect class="cls-5" x="705" y="207.01" width="60" height="60"/><text class="cls-11" transform="translate(710.4 232.21)">肾癌</text><text class="cls-17" transform="translate(710.4 246.61)">47.1%<tspan class="cls-19" x="33.88" y="0">	</tspan><tspan x="0" y="13.2">$31,450</tspan></text><rect class="cls-1" x="736.2" y="365.81" width="60" height="57.6"/><text class="cls-11" transform="translate(741.6 382.21)">黑素瘤</text><text class="cls-17" transform="translate(741.6 396.61)">26.5%<tspan class="cls-19" x="33.88" y="0">	</tspan><tspan x="0" y="13.2">$15,669</tspan></text><rect class="cls-5" x="736.2" y="468.61" width="60" height="43.2"/><text class="cls-11" transform="translate(736.2 483.01)">甲状腺癌</text><text class="cls-17" transform="translate(736.2 497.41)">23.1%<tspan x="0" y="13.2">63,270</tspan></text><rect class="cls-16" x="822.6" y="468.61" width="60" height="43.2"/><text class="cls-11" transform="translate(822.6 483.01)">睾丸癌</text><text class="cls-17" transform="translate(822.6 497.41)">18.1%<tspan class="cls-19" x="33.88" y="0">	</tspan><tspan x="0" y="13.2">$11,928</tspan></text><rect class="cls-5" x="820.2" y="365.81" width="60" height="57.6"/><text class="cls-11" transform="translate(825.6 382.21)">子宫体癌</text><text class="cls-17" transform="translate(825.6 396.61)">25.3%<tspan x="0" y="13.2">25,458</tspan></text><rect class="cls-5" x="805.8" y="207.01" width="60" height="60"/><text class="cls-11" transform="translate(811.2 232.21)">乳腺癌</text><text class="cls-17" transform="translate(811.2 246.61)">43.3%<tspan x="0" y="13.2">32,964</tspan></text><rect class="cls-5" x="789.4" y="22.21" width="62" height="60"/><text class="cls-11" transform="translate(793.8 36.61)">结直肠癌</text><text class="cls-17" transform="translate(793.8 51.01)">58.1%<tspan x="0" y="13.2">$48,487</tspan></text><text class="cls-11" transform="translate(14.4 604.8)">97.9%:Median case fatality(%)<tspan x="0" y="14.4">$6,896:Global expenditure standard（$)</tspan><tspan class="cls-20"><tspan x="0" y="40.8">*The global expenditure standard：</tspan><tspan x="0" y="52.8" xml:space="preserve"> computed separately for each cancer site, </tspan><tspan x="0" y="64.8">equals the medical care costs for the country with the lowest case fatality rate.</tspan></tspan></text><text class="cls-17" transform="translate(14.4 699.08)">数据来源：Economists Intelligence Unit (2009) Breakaway: The Global Burden of Cancer-Challenges and Opportunities, a Report from the Economist Intelligence Unit. The <tspan x="0" y="13.2">Economist.https://assets-livestrong-org.s3.amazonaws.com/media/site_proxy/data/c49ced3068f7205319cb1edf653dd91e0baee3ba.pdf</tspan></text><text class="cls-11" transform="translate(14.4 576)">*数据说明：</text><polyline class="cls-21" points="864 604.8 705.6 604.8 705.6 576"/><text class="cls-17" transform="translate(864 604.8)">高</text><text class="cls-17" transform="translate(691.2 604.8)">低</text><rect class="cls-16" x="705.6" y="619.2" width="43.2" height="28.8"/><text class="cls-17" transform="translate(763.2 633.6)">方框大小表示平均致死率<tspan x="0" y="13.2">面积越大，致死率越高</tspan></text><text class="cls-11" transform="translate(763.2 598.99)">费用 </text></svg>