<?xml version="1.0" encoding="utf-8"?>
<!-- Generator: Adobe Illustrator 21.0.0, SVG Export Plug-In . SVG Version: 6.00 Build 0)  -->
<svg version="1.1" id="Layer_1" xmlns="http://www.w3.org/2000/svg" xmlns:xlink="http://www.w3.org/1999/xlink" x="0px" y="0px"
	 viewBox="0 0 1000 829" style="enable-background:new 0 0 1000 829;" xml:space="preserve">
<style type="text/css">
	.st0{stroke:#000000;stroke-width:0.5;stroke-miterlimit:10;}
	.st1{fill:#E3A711;}
	.st2{fill:none;stroke:#000000;stroke-width:0.75;stroke-miterlimit:10;}
	.st3{fill:#697376;}
	.st4{font-family:'MyriadPro-Regular';}
	.st5{font-size:21px;}
	.st6{fill:none;stroke:#000000;stroke-miterlimit:10;}
	.st7{opacity:0.34;fill:none;stroke:#000000;stroke-miterlimit:10;enable-background:new    ;}
	.st8{font-family:'AdobeSongStd-Light-GBpc-EUC-H';}
	.st9{font-size:16px;}
	.st10{fill:none;}
	.st11{fill:#89A74C;}
	.st12{fill:#FFFFFF;}
	.st13{fill:#44929F;}
	.st14{fill:#E4E4E5;}
	.st15{fill:#F9F9F9;}
	.st16{fill:none;stroke:#240000;stroke-width:6.760000e-02;}
	.st17{fill:#231815;}
	.st18{fill:#FFFFFF;stroke:#FFFFFF;stroke-miterlimit:10;}
	.st19{fill:#DB0000;}
	.st20{font-family:'SourceHanSerifCN-Medium-GBpc-EUC-H';}
	.st21{font-size:36px;}
	.st22{font-family:'SourceHanSerifCN-Bold-GBpc-EUC-H';}
	.st23{font-size:18px;}
	.st24{clip-path:url(#SVGID_2_);}
</style>
<rect x="410" y="412" class="st0" width="5.4" height="5.4"/>
<path class="st1" d="M396.2,432c-13.9,0-25.2-11.3-25.2-25.2c0-13.9,11.3-25.2,25.2-25.2c13.9,0,25.2,11.3,25.2,25.2
	C421.4,420.7,410.1,432,396.2,432"/>
<line class="st2" x1="483" y1="737.3" x2="483" y2="202.9"/>
<line class="st2" x1="104" y1="472.3" x2="862.6" y2="472.3"/>
<rect x="843.9" y="688.5" class="st0" width="5.4" height="5.4"/>
<rect x="837.1" y="476.9" class="st0" width="5.4" height="5.4"/>
<rect x="802.2" y="251.4" class="st0" width="5.4" height="5.4"/>
<rect x="727.9" y="666" class="st0" width="5.4" height="5.4"/>
<rect x="465.7" y="445.9" class="st0" width="2.9" height="2.9"/>
<rect x="670.2" y="716.4" class="st0" width="5.4" height="5.4"/>
<rect x="607.3" y="547.9" class="st0" width="5.4" height="5.4"/>
<rect x="601.2" y="412.4" class="st0" width="5.4" height="5.4"/>
<rect x="556.4" y="516.6" class="st0" width="5.4" height="5.4"/>
<rect x="542" y="410.7" class="st0" width="5.4" height="5.4"/>
<rect x="517" y="704.3" class="st0" width="5.4" height="5.4"/>
<rect x="510.2" y="683.6" class="st0" width="5.4" height="5.4"/>
<rect x="500.3" y="620.2" class="st0" width="5.4" height="5.4"/>
<polygon class="st0" points="486.7,456.9 492.1,456.9 492.1,462.3 490.7,462.3 "/>
<rect x="458.6" y="524.5" class="st0" width="5.4" height="5.4"/>
<rect x="429.8" y="514.4" class="st0" width="5.4" height="5.4"/>
<rect x="414.6" y="532.6" class="st0" width="5.4" height="5.4"/>
<rect x="293.2" y="564.5" class="st0" width="5.4" height="5.4"/>
<rect x="276.5" y="311.9" class="st0" width="5.4" height="5.4"/>
<rect x="238.6" y="654.9" class="st0" width="5.4" height="5.4"/>
<circle class="st3" cx="220.1" cy="663.5" r="28.9"/>
<g>
	<text transform="matrix(1 0 0 1 98.6616 772.2852)" class="st4 st5">0</text>
	<text transform="matrix(1 0 0 1 244.9766 772.2852)" class="st4 st5">20</text>
	<text transform="matrix(1 0 0 1 396.6777 772.2852)" class="st4 st5">40</text>
	<text transform="matrix(1 0 0 1 548.3789 772.2852)" class="st4 st5">60</text>
	<text transform="matrix(1 0 0 1 700.0801 772.2852)" class="st4 st5">80</text>
	<text transform="matrix(1 0 0 1 835.3945 772.2852)" class="st4 st5">100</text>
</g>
<line class="st6" x1="104" y1="737.3" x2="862.6" y2="737.3"/>
<g>
	<g>
		<line class="st6" x1="104" y1="737.3" x2="104" y2="202.9"/>
		<path class="st7" d="M255.7,202.9"/>
		<path class="st7" d="M255.7,737.3"/>
		<path class="st7" d="M407.5,202.9"/>
		<path class="st7" d="M407.5,737.3"/>
		<path class="st7" d="M559.2,202.9"/>
		<path class="st7" d="M559.2,737.3"/>
		<path class="st7" d="M710.9,202.9"/>
		<path class="st7" d="M710.9,737.3"/>
		<path class="st6" d="M862.6,202.9"/>
		<path class="st6" d="M862.6,737.3"/>
	</g>
</g>
<g>
	<text transform="matrix(1 0 0 1 81.4238 750.6025)" class="st4 st5">0</text>
	<text transform="matrix(1 0 0 1 38.333 643.7285)" class="st4 st5">16000</text>
	<text transform="matrix(1 0 0 1 38.333 536.8545)" class="st4 st5">32000</text>
	<text transform="matrix(1 0 0 1 38.333 429.981)" class="st4 st5">48000</text>
	<text transform="matrix(1 0 0 1 38.333 323.1074)" class="st4 st5">64000</text>
	<text transform="matrix(1 0 0 1 38.333 216.2334)" class="st4 st5">80000</text>
</g>
<line class="st6" x1="104" y1="737.3" x2="104" y2="202.9"/>
<g>
	<g>
		<line class="st6" x1="104" y1="737.3" x2="862.6" y2="737.3"/>
		<path class="st7" d="M862.6,630.4"/>
		<path class="st7" d="M104,630.4"/>
		<path class="st7" d="M862.6,523.5"/>
		<path class="st7" d="M104,523.5"/>
		<path class="st7" d="M862.6,416.6"/>
		<path class="st7" d="M104,416.6"/>
		<path class="st7" d="M862.6,309.8"/>
		<path class="st7" d="M104,309.8"/>
		<path class="st6" d="M862.6,202.9"/>
		<path class="st6" d="M104,202.9"/>
	</g>
</g>
<text transform="matrix(1 0 0 1 830.5537 655.252)" class="st8 st9">肝癌</text>
<text transform="matrix(1 0 0 1 760.917 509.5781)" class="st8 st9">胰腺癌</text>
<text transform="matrix(1 0 0 1 734.624 256.396)" class="st8 st9">肺癌</text>
<text transform="matrix(1 0 0 1 752.9834 659.1914)" class="st8 st9">胃癌</text>
<text transform="matrix(1 0 0 1 389.3867 455.7061)" class="st8 st9">脑癌</text>
<text transform="matrix(1 0 0 1 693.2822 716.6729)" class="st8 st9">白血病</text>
<text transform="matrix(1 0 0 1 638.0771 554.3408)" class="st8 st9">骨髓瘤</text>
<text transform="matrix(1 0 0 1 630.2432 434.4019)" class="st8 st9">鼻咽癌</text>
<text transform="matrix(1 0 0 1 585.5137 509.3076)" class="st8 st9">喉癌</text>
<text transform="matrix(1 0 0 1 506.9229 375.6504)" class="st8 st9">结直肠癌</text>
<text transform="matrix(1 0 0 1 533.5303 458.0762)" class="st8 st9">口腔癌</text>
<text transform="matrix(1 0 0 1 536.5156 712.375)" class="st8 st9">卵巢癌</text>
<text transform="matrix(1 0 0 1 532.5156 688.8311)" class="st8 st9">子宫颈癌</text>
<rect x="539.4" y="613.1" class="st10" width="85.6" height="22.4"/>
<text transform="matrix(1 0 0 1 539.4199 624.1133)" class="st8 st9">前列腺癌</text>
<text transform="matrix(1 0 0 1 441.3867 575.5889)" class="st8 st9">肾癌</text>
<text transform="matrix(1 0 0 1 340.8232 505.1084)" class="st8 st9">乳腺癌</text>
<text transform="matrix(1 0 0 1 377.8506 586.3965)" class="st8 st9">膀胱癌</text>
<text transform="matrix(1 0 0 1 271.1689 411.9663)" class="st8 st9">霍奇金淋巴瘤</text>
<text transform="matrix(1 0 0 1 265.9727 524.6777)" class="st8 st9">子宫体癌</text>
<text transform="matrix(1 0 0 1 306.3042 319.6392)" class="st8 st9">甲状腺癌</text>
<text transform="matrix(1 0 0 1 252.8237 671.9424)" class="st8 st9">睾丸癌</text>
<path class="st11" d="M864.3,685c0,12.1-9.8,22-22,22c-1.1,0-2.2-0.1-3.2-0.2c-9.6-1.4-17.2-9-18.6-18.6c-0.2-1-0.2-2.1-0.2-3.2
	c0-12.1,9.8-22,22-22c0,0,0.1,0,0.2,0c12,0.1,21.8,9.8,21.8,21.8C864.3,684.9,864.3,685,864.3,685z"/>
<g>
	<g>
		<path class="st12" d="M843.9,687c-0.4,0.2-0.6,0.6-0.6,1c0,0.3-0.3,0.8-0.8,1.2c-0.7,0.5-1.4,0.3-1.8,0.2c-0.1,0-0.3-0.1-0.4-0.1
			c-0.2,0-0.3,0.2-0.5,0.8c-0.2,0.7-0.5,1.8-1.9,1.8c-0.2,0-0.5-0.1-0.8-0.2c-0.5-0.2-1-0.3-1.4-0.1c-0.2,0.1-0.3,0.3-0.4,0.6
			c-0.4,1.6-1.2,1.7-2,1.7c-0.4,0-0.8,0-1.2,0.2c0.5,0.1,1.2,0.4,2.1,0.3c1.1-0.2,1.4-0.7,2.7-1.3c0.9-0.4,2-0.1,3-0.7
			c0.7-0.5,0.8-1.7,1.6-2c0.4-0.2,2.4-0.2,2.5-1.2c0.1-1.3,1.6-1.6,1.9-1.7C845.3,686.9,844.4,686.8,843.9,687z"/>
		<path class="st12" d="M833.4,693.2c0.7,0,1.2,0,1.5-1.2c0.1-0.3,0-0.4,0.2-0.6c-1.8-0.1-3.5-0.9-4.3-2.6c2.1,1.7,2.6,1.8,4.7,2.2
			c0.8-0.4,2,0.3,2.4,0.3c1,0,1.2-0.7,1.3-1.4c0.1-0.6,0.3-1.2,1-1.2c0.5,0,1.2,0.4,1.8,0c0.4-0.3,0.6-0.7,0.6-0.8
			c0.2-1,0.6-1.3,1-1.5c0.6-0.2,1.3,0,2,0.5c0.1-0.4,0.1-1.1,0.1-1.6c-0.7-1.8-1.6-2-2.7-2.3c0.9-0.3,2.1,0.1,2.7,1.3
			c0-3-0.6-6.6-2.1-8.5c-1.7-0.7-3.6-0.7-6-0.3c-5.1,0.9-8.6,6.9-10.5,12.1c-1,2.6-2.4,4.2-2.4,4.5c0,0.7,1.6,2.6,3.5,2.6
			c0.9,0,1.8-0.5,2.9-0.6C832,693.3,832.8,693.3,833.4,693.2z"/>
		<path class="st12" d="M847.9,688c-0.3-0.5-0.8-0.8-1.2-1.2c-0.2-0.2-0.3-0.5-0.4-0.7c0,0.5-0.1,1-0.2,1.5c0.9,0.2,1.4,1.8,1.4,2.6
			c0.2,0.2,0.6,0.3,0.8,0C848.4,689.5,848.3,688.6,847.9,688z"/>
		<path class="st12" d="M858.5,679.7c-1.2,0-2.2-1.1-3.4-1.6c-1.4-0.6-5-0.4-5.6-0.4c-2.7,2.1-2.3,4-1.9,5c0.3-0.4,0.7-0.8,1.2-1
			c-2,2-1.5,3.9-0.7,4.7c1.4-0.1,6.8-0.8,8.4-3.4c0.2-0.7,0.1-1.2-0.3-2c0.5,0.3,0.8,1,0.7,1.6c1.1,0.1,2.9-0.6,2.8-2.3
			C859.7,679.8,859.3,679.7,858.5,679.7z"/>
		<path class="st12" d="M847.7,686.5c-0.4-0.2-0.9-1.1-0.7-2.2c0-0.3,0.1-0.6,0.3-0.9l0,0c-0.5-1-1-3.9,1.8-5.8
			c-1.7-0.5-3.3-1.1-4.7-1.6c1.8,2.7,2.3,6.3,2.1,9.5c0.4,1.7,1,1.2,1.7,2.4c0.3,0.5,0.5,1.1,0.5,1.6c0,0.2,0,0.4,0,0.5
			c0.2,0.2,0.7,0.1,0.7-0.1C849.5,688.5,849,687.3,847.7,686.5z"/>
	</g>
</g>
<path class="st13" d="M829.1,247.5c0,1.6-0.1,3.1-0.4,4.6c-2.2,13.6-13.9,23.9-28.1,23.9c-1.6,0-3.2-0.1-4.7-0.4
	c-12-2-21.4-11.4-23.4-23.4c-0.3-1.5-0.4-3.1-0.4-4.7c0-14.2,10.4-25.9,23.9-28.1c1.5-0.2,3-0.4,4.6-0.4
	C816.4,219,829.1,231.8,829.1,247.5z"/>
<g>
	<path class="st12" d="M801.3,231.8c0-0.2,0-0.4,0-0.6c0-0.2,0-0.4,0-0.6c-0.3,0.1-0.6,0.2-0.9,0.2c-0.3,0-0.7,0-1-0.2
		c0,0.4,0.1,0.9,0.1,1.3c0.3,0,0.6,0,0.8,0C800.7,231.9,801,231.9,801.3,231.8z"/>
	<path class="st12" d="M800.5,236c0.4,0,0.7-0.1,1.1-0.2c0.2-0.1,0.4-0.1,0.5-0.3c-0.2-0.4-0.3-0.9-0.5-1.4
		c-0.1,0.1-0.2,0.1-0.3,0.1c-0.3,0.1-0.6,0.2-1,0.2c-0.3,0-0.7,0-1-0.2l0,0c-0.1,0.5-0.2,1-0.4,1.4c0.1,0.1,0.3,0.1,0.4,0.1
		C799.8,236,800.1,236.1,800.5,236z"/>
	<path class="st12" d="M802.7,238.2c-0.2,0.2-0.4,0.4-0.6,0.5c0.3,0.3,0.7,0.6,1.1,0.9c0.3-0.4,0.7-0.9,1-1.2
		c0.7-0.8,1.4-1.5,1.7-2.4c0.2-0.4,0.2-0.9,0.2-1.3c0-0.2,0-0.5,0-0.7s-0.1-0.4-0.2-0.5c0,0,0,0-0.1,0c0,0-0.1,0-0.2,0.1
		c-0.1,0.1-0.3,0.3-0.4,0.5c-0.2,0.4-0.2,0.9,0.2,1.3c-0.2-0.1-0.4-0.3-0.5-0.6s-0.1-0.6-0.1-0.8c0.1-0.3,0.2-0.6,0.4-0.8
		c0.1-0.1,0.2-0.2,0.4-0.3s0.5,0,0.6,0.1c0.3,0.3,0.4,0.6,0.4,0.9c0.1,0.3,0.1,0.5,0.1,0.8c0,0.5,0,1.1-0.3,1.6
		c-0.2,0.5-0.5,1-0.9,1.4c-0.3,0.4-0.7,0.8-1.1,1.1c-0.6,0.5-1.1,1-1.6,1.6c-0.3,0.6-0.5,1.2-0.6,2c-0.2,1-0.2,2-0.3,3.1
		c1.1,0.4,2.3,0.7,3.4,0.8c1.4,0.1,2.8,0.1,4.2-0.1c1.4-0.2,2.7-0.6,4-1.2c1-0.5,2-1.1,2.9-1.8c-2.1-4.2-4.6-6.7-4.7-6.9
		c-2-2.8-3.5-5.2-5.2-5.2c-1.1,0-2.7,0.8-2.7,3.7c0,0.5,0,1,0,1.5s0,1.1-0.1,1.6c0,0.2-0.1,0.3-0.1,0.4c-0.2-0.2-0.4-0.4-0.6-0.7
		C803.1,237.8,802.9,238,802.7,238.2z"/>
	<path class="st12" d="M799.5,234c0.3,0,0.6,0,0.9,0c0.3,0,0.6,0,0.9-0.1c0.1,0,0.2,0,0.3-0.1c-0.1-0.5-0.2-1.1-0.2-1.6
		c-0.3,0.1-0.6,0.2-0.9,0.2c-0.3,0-0.6,0-0.9-0.1C799.5,233,799.5,233.5,799.5,234L799.5,234z"/>
	<path class="st12" d="M800.4,230.3c0.3,0,0.6-0.1,0.9-0.1c0,0,0,0,0.1,0c0.1-0.7,0.1-1.4,0.2-2c0,0,0,0-0.1,0
		c-0.3,0.2-0.7,0.3-1.1,0.3c-0.4,0-0.8-0.1-1.1-0.3l-0.1-0.1c0.1,0.7,0.2,1.4,0.2,2.1h0.1C799.8,230.3,800.1,230.3,800.4,230.3z"/>
	<path class="st12" d="M799.5,227.7c0.3,0.1,0.6,0.1,0.9,0.1c0.3,0,0.6-0.1,0.9-0.1c0.1,0,0.2-0.1,0.4-0.1l0,0l0,0
		c0-1.2-2.7-0.9-2.5,0c0,0,0,0,0,0.1C799.2,227.6,799.4,227.6,799.5,227.7z"/>
	<path class="st12" d="M805.9,259.3c1-0.4,2-0.9,3-1.4c1.5-0.8,2.8-1.8,4.1-2.9s2.5-2.3,3.5-3.6c0.8-1,1.5-2,2-3.2
		c-0.5-1.8-1.2-3.5-1.9-4.9c-0.7,0.9-1.7,1.6-2.7,2.2c-1.3,0.7-2.7,1.2-4.2,1.4s-3,0.3-4.4,0c-1.2-0.2-2.3-0.6-3.3-1.2
		c0,0.9,0,1.7,0,2.5C802,254.3,803.7,257.5,805.9,259.3z"/>
	<path class="st12" d="M785.3,244.3c0.7,0.3,1.3,0.6,2,0.9c1.4,0.5,2.8,0.9,4.2,1.1c0.7,0.1,1.4,0.2,2.2,0.3
		c0.7,0.1,1.5,0.1,2.2,0.1s1.4-0.1,2.1-0.3c0.4-0.1,0.8-0.3,1.2-0.4c0-1.2-0.1-2.4-0.3-3.5c-0.1-0.9-0.4-1.5-0.7-2.2
		c-0.5-0.4-1.1-0.8-1.6-1.3c-0.8-0.7-1.5-1.4-2-2.4c-0.2-0.5-0.4-1-0.4-1.6c0-0.3,0-0.5,0.1-0.8s0.2-0.6,0.3-0.8
		c0.1-0.1,0.2-0.2,0.4-0.3s0.4-0.1,0.5-0.1c0.4,0.1,0.6,0.4,0.7,0.7c0.1,0.6-0.1,1.1-0.4,1.5c0.2-0.5,0.2-1,0-1.4
		c-0.1-0.2-0.2-0.3-0.4-0.3c-0.1,0-0.2,0.1-0.3,0.3c-0.2,0.3-0.2,0.8-0.2,1.3c0,0.4,0.1,0.9,0.3,1.3c0.4,0.8,1.1,1.6,1.7,2.3
		c0.4,0.5,0.9,0.9,1.3,1.4c0.3-0.4,0.7-0.8,1-1.2h-0.1c-0.2-0.1-0.5-0.2-0.7-0.4s-0.4-0.4-0.5-0.7c0,0,0,0,0-0.1
		c-0.2,0.2-0.4,0.4-0.6,0.6c0-0.1-0.1-0.3-0.1-0.4c-0.1-0.5-0.1-1-0.1-1.6c0-0.5,0-1,0-1.5c0-2.9-1.6-3.7-2.7-3.7
		c-1.7,0-3.2,2.4-5.2,5.2c-0.2,0.2-2.9,3-5,7.6C784.7,243.9,785,244.1,785.3,244.3z"/>
	<path class="st12" d="M801.8,238.5l0.5-0.6l0.5-0.6l0.1-0.1c-0.3-0.4-0.5-0.8-0.7-1.3c-0.1,0.2-0.3,0.3-0.4,0.4
		c-0.4,0.2-0.8,0.3-1.2,0.4c-0.4,0-0.9,0-1.2-0.2c-0.1-0.1-0.3-0.1-0.4-0.2c-0.2,0.3-0.3,0.7-0.6,1c0,0.1,0.1,0.1,0.1,0.2
		c0.2,0.2,0.3,0.3,0.5,0.5s0.4,0.4,0.6,0.6c0.4-0.5,0.7-1,1-1.5C800.9,237.5,801.3,238,801.8,238.5z"/>
	<path class="st12" d="M818.6,248.6c-0.4,1.1-1,2.2-1.6,3.1c-1,1.4-2.2,2.7-3.5,3.8c-1.3,1.1-2.8,2.1-4.3,2.8c-1,0.5-2,0.8-3,1.1
		c2.6,1.8,5.8,1.9,8,2.5c1.2,0.3,2,1.4,3.3,1.4c0.7,0,1.9-4.8,1.9-8.6C819.4,252.6,819.1,250.5,818.6,248.6z"/>
	<path class="st12" d="M798.1,246.6c-0.7,0.3-1.5,0.4-2.2,0.5c-1.5,0.2-3,0.1-4.5-0.2s-2.9-0.7-4.3-1.3c-0.7-0.3-1.4-0.7-2-1.1
		c-0.3-0.2-0.5-0.4-0.8-0.6c-0.8,1.6-1.4,3.5-1.9,5.5c0.4,0.6,0.9,1.2,1.4,1.8c1.1,1.3,2.3,2.5,3.6,3.7c1.3,1.1,2.7,2.2,4.1,3.1
		c1,0.6,2,1.2,3.1,1.7c2.6-1.6,4.6-4.8,4.6-11.6c0-0.7,0-1.4,0-2.1C798.9,246.3,798.5,246.5,798.1,246.6z"/>
	<path class="st12" d="M791.2,258.6c-1.5-0.9-3-1.9-4.3-3.1c-1.3-1.2-2.5-2.4-3.6-3.9c-0.4-0.5-0.7-1-1-1.6
		c-0.3,1.5-0.5,3.1-0.5,4.7c0,3.9,1.2,8.6,1.9,8.6c1.2,0,2.1-1.1,3.3-1.4c2-0.5,4.9-0.6,7.3-2C793.2,259.6,792.2,259.1,791.2,258.6z
		"/>
</g>
<path class="st11" d="M748.5,657.3c0,1.1-0.1,2.2-0.2,3.3c-1.6,11.5-11.5,20.4-23.5,20.4c-1.1,0-2.1-0.1-3.1-0.2
	c-10.6-1.4-19-9.8-20.4-20.4c-0.1-1-0.2-2.1-0.2-3.1c0-1.9,0.2-3.8,0.7-5.6c2.1-8.6,8.8-15.3,17.4-17.4c0.8-0.2,1.6-0.3,2.4-0.4
	c1.1-0.2,2.2-0.2,3.3-0.2C737.9,633.6,748.5,644.2,748.5,657.3z"/>
<path class="st12" d="M727.5,648.5c-2.4-1-1.5-4.6-1.1-7c0.1-1-3.9-1.1-3.9-0.1c0,1.2-0.4,2.8-0.4,3.8c0,4.6,1.8,6.4,4,6.9
	c0.7,0.2,1.2,0.6,1.6,1.3c0.3-0.1,0.7-0.3,1-0.4c0.6-0.3,1.2-0.7,1.6-1.3c-0.3,0.7-0.8,1.2-1.4,1.7c-0.3,0.3-0.7,0.5-1,0.7
	c0.2,0.7,0.3,1.4,0.3,2.1l0,0h0.1l0.8,0.1c0.6,0,1.1,0.1,1.7,0.3c-0.6,0-1.1,0.1-1.7,0.2l-0.8,0.2h-0.2c-0.1,0.8-0.4,1.7-0.8,2.5
	c0.2,0.1,0.5,0.2,0.7,0.3c0.5,0.2,1.1,0.5,1.6,0.8c-0.6-0.2-1.1-0.3-1.7-0.3c-0.3,0-0.6-0.1-0.9-0.1h-0.1c-0.4,0.6-0.8,1.1-1.3,1.6
	c0.1,0.1,0.2,0.2,0.3,0.3c0.3,0.3,0.6,0.5,0.9,0.8c0.6,0.5,1.3,1,2,1.5c-0.8-0.3-1.5-0.7-2.3-1.1c-0.4-0.2-0.7-0.4-1.1-0.6
	c-0.2-0.1-0.4-0.2-0.5-0.3l0,0c-0.6,0.4-1.2,0.8-1.9,0.9c0.1,0.1,0.1,0.1,0.2,0.2c0.2,0.3,0.4,0.6,0.6,0.8c0.3,0.6,0.6,1.2,0.7,1.9
	c-0.3-0.6-0.6-1.1-1.1-1.6c-0.2-0.2-0.5-0.4-0.7-0.6c-0.1-0.1-0.3-0.2-0.4-0.3l-0.2-0.1l-0.2-0.1c-2.2,0-3.6-2.2-5.9-2.2
	c-2.1,0-5.9,2-5.9,6c0,5.1,5.6,6.6,10.6,7c1.2,0,1.5-3.6,0.7-3.8c-2.1-0.4-7.3,0.8-7.3-3.4c0-0.7,0.7-1.6,2.1-1.6
	c3.2,0,4.2,4.3,10.3,4.3c7,0,12.9-7,12.9-13.8C739.5,647.1,731.5,646.2,727.5,648.5z"/>
<path class="st3" d="M329.4,556.3c0,12.8-9,23.5-21,26.1c-1.8,0.4-3.7,0.6-5.7,0.6c-14.7,0-26.7-12-26.7-26.7c0-2,0.2-3.9,0.6-5.7
	c2.6-12,13.3-21,26.1-21c1.8,0,3.6,0.2,5.3,0.5c10.5,2.1,18.8,10.4,20.9,20.9C329.2,552.7,329.4,554.5,329.4,556.3z"/>
<g>
	<g>
		<g>
			<path class="st12" d="M288.3,548.8L288.3,548.8c-0.1,0.2-0.3,0.2-1,0.3c-0.1,0-0.1,0,0,0.1c0.3,0.2,0.2,0.6-0.2,0.6
				c-0.2,0-0.9-0.1-1.2-0.1c-0.2,0,0.1,0.3,0.3,0.4c0.2,0.2,0.3,0.3,0.3,0.5s-0.1,0.3-0.3,0.3c-0.1,0-0.2,0-0.3-0.1
				c0.1,0.3,0.3,0.5,0.5,0.7c0.7,0.7,1.7,1.2,2.6,1.2c2,0,2.5-1,2.6-1.4c0-0.4-0.2-0.9-0.5-1.3C290.3,549.3,289.3,548.9,288.3,548.8
				z"/>
			<path class="st12" d="M296,551c-0.4-0.1-0.8-0.2-1.3-0.2c-1.5,0-2.1,0.5-2.7,0.6c0,0.1-0.1,0.3-0.2,0.4c0.2,0,0.4,0.1,0.5,0.1
				c1,0,2.1-1,4-0.2C296.2,551.5,296.1,551.3,296,551z"/>
			<path class="st12" d="M310.9,550.8c-0.4,0-0.9,0.1-1.3,0.2c-0.1,0.2-0.2,0.4-0.2,0.7c1.8-0.8,2.9,0.2,3.8,0.2
				c0.1,0,0.3,0,0.5-0.1c-0.1-0.1-0.1-0.3-0.2-0.4C312.8,551.4,312.3,550.8,310.9,550.8z"/>
			<path class="st12" d="M319.4,550.9c-0.2,0-0.3-0.1-0.3-0.3s0.1-0.3,0.3-0.5c0.1-0.1,0.4-0.4,0.3-0.4c-0.2,0-0.4,0-0.6,0.1
				c-0.2,0-0.4,0.1-0.5,0.1c-0.3,0-0.3-0.2-0.4-0.2c0-0.2,0.1-0.3,0.2-0.4l0,0c-0.8-0.1-1-0.1-1.1-0.3l0,0c-1,0.1-2,0.5-2.6,1.2
				c-0.4,0.4-0.6,0.9-0.5,1.3c0,0.4,0.6,1.4,2.6,1.4c0.9,0,1.9-0.5,2.6-1.2c0.2-0.2,0.4-0.5,0.5-0.7
				C319.6,550.8,319.5,550.9,319.4,550.9z"/>
		</g>
		<path class="st12" d="M307.4,560.7c0.2-1.3-0.7-2.1-0.7-4.2l0,0c-0.4,0.5-1.4,1.3-2,1.7c1.8-2.3,4.9-7.9,5.1-10.2
			c0.1,0,0.3,0,0.4,0c1.2,0,2,1,3,1c1.4,0,1.8-1,2.8-1.7c0.1-0.1,1.1-0.2,2-0.6c0.8-0.3,1.7-0.9,2.4-0.9h0.1
			c0.8,0.1,1.3,0.5,1.3,1.3c0,0.9-0.7,1.6-1.7,1.6c-0.1,0-0.3,0-0.4,0c-0.4-0.1-0.9-0.1-1.3-0.1c-0.6,0-1,0.1-1.1,0.1
			c-0.1,0.2,1,0.2,1.3,0.3c0.1,0,0.1,0,0.1,0.1c-0.1,0.2-0.5,0.4-0.5,0.5c0,0,0,0,0.1,0c0.2,0,0.8-0.1,1.2-0.1c0.1,0,0.2,0,0.2,0
			c0.6,0.3-0.8,1.2-0.5,1.2c0.1,0,0.7-0.4,1-0.6c0.3-0.1,0.3-0.3,0.3,0c0,0.4-0.2,0.8-0.2,0.9c0,0,0,0.1,0.1,0.1
			c0.3,0,1-0.9,1.1-0.9c0.2,0-0.3,1.2-0.2,1.2c0.6,0,2.4-2.4,2.4-4.5c0-1.3-2.1-2.2-3.5-2.2c-1.9,0-2.4,1.3-4.2,1.5
			c-1.3,0.2-1.7,1.7-3.1,1.7c-1.6,0-2.8-1.7-3.7-2.6c-1.1-2.3-4.2-3.3-6.7-3.2c-2.2-0.1-5.5,0.8-6.7,3.2c-0.9,1-2.2,2.6-3.7,2.6
			s-1.8-1.5-3.1-1.7c-1.8-0.3-2.3-1.5-4.2-1.5c-1.3,0-3.5,0.9-3.5,2.2c0,1.9,1.5,4.1,2.3,4.5c0.2,0.1,0.2,0.1,0.2-0.2
			c-0.1-0.3-0.3-0.9-0.2-1l0,0c0.1,0,0.9,0.9,1.1,0.9c0,0,0.1,0,0.1-0.1s-0.3-0.6-0.2-1c0-0.1,0.7,0.7,1.2,0.7
			c0.4,0-1.1-0.9-0.5-1.2c0.2-0.1,1.1,0.1,1.4,0.1c0.1,0,0.1,0,0.1,0c0-0.1-0.4-0.3-0.5-0.5c-0.1-0.1,0-0.1,0.1-0.2
			c0.3-0.1,1.4-0.1,1.4-0.2c0-0.1-0.5-0.1-1.1-0.1c-0.7,0-1.6,0.2-1.7,0.2c-0.9,0-1.7-0.7-1.7-1.6c0-0.7,0.5-1.2,1.3-1.3h0.1
			c0.7,0,1.5,0.6,2.4,0.9c1,0.4,1.9,0.6,2,0.6c1,0.6,1.4,1.7,2.8,1.7c1,0,1.8-1,3-1c0.1,0,0.3,0,0.4,0c0.2,2.1,3.6,8.2,5.2,10.3
			c-0.5-0.4-1.6-1.4-2-1.9l0,0c0,2.1-1,2.9-0.7,4.2c0.3,1.9,1.4,3.5,3.7,6c-1.8-0.8-2.4-1.6-2.8-2.5c0.2,0.8,0.3,1.7,0.1,3.6
			c-0.1,1.1,0.5,3.1,0.7,4.6c0,0.5-0.2,0.9,0,1.2c0,0.1,0.1,0.1,0.1,0.1c0.3,0,0.9-1.3,2.9-1c1.9-0.3,2.6,1,2.9,1c0,0,0.1,0,0.1-0.1
			c0.1-0.3-0.1-0.8,0-1.2c0.1-1.5,0.7-3.4,0.7-4.6c-0.2-1.9-0.1-2.8,0.1-3.6c-0.4,1.1-1.3,1.9-2.6,2.4
			C306.1,564.2,307.1,562.6,307.4,560.7z"/>
	</g>
</g>
<path class="st11" d="M863,501.2c0,12.9-9.9,23.5-22.5,24.5c-0.7,0.1-1.4,0.1-2.1,0.1c-13.6,0-24.6-11-24.6-24.6
	c0-0.7,0-1.4,0.1-2.1c1.1-12.6,11.6-22.5,24.5-22.5c0.6,0,1.2,0,1.8,0.1c12.1,0.9,21.8,10.6,22.7,22.7C863,500,863,500.6,863,501.2z
	"/>
<g>
	<path class="st12" d="M839.3,508c0-0.2-0.1-0.4-0.1-0.6c-0.8-1.3-1.4-2.9-1.7-4.6c-0.1,0-0.3,0-0.4,0c-0.1,0-0.2,0-0.3,0
		c0.2,1.3,0.6,2.8,1.3,4.7c0.4,1.2,0.8,2.5,1.3,4.2c0.4-0.3,0.8-0.6,0.8-1C839.5,509.4,839.4,508.7,839.3,508z"/>
	<path class="st12" d="M835,507.9c-0.6,0.6-1.4,0.5-2.1,0.4c-0.3,0.6-0.9,0.7-1.5,0.5c0.1,0.6,0.1,1.3-0.2,1.9
		c0.1-0.8-0.1-1.5-0.4-2.2c-0.6-0.1-2.3,0.2-2.1-1.4c-1.7-0.8-1.9-1.9-1.6-2.8c-0.5-0.1-1-0.2-1.6,0c0.4-0.3,0.9-0.4,1.3-0.4
		c-0.2-0.4-0.2-1.5,0.2-1.9c0.5-0.5-0.5-2.3,2-3.1c-0.6-0.7-1-1.6-1.1-2.4c0.2,0.5,0.4,1,0.8,1.4c0.3,0.3,0.5,0.6,0.8,0.8l0.1,0.1
		l0,0c0.8-0.2,1.6-0.1,2.4,0.2c-0.2-1.4,0.3-3.5,1.4-4.4c-1.1-0.2-2-0.6-3.4-0.6c-5.5,0-8,5.6-8,9.5c0,6.2,4.7,9.4,9.3,9.4
		c1.3,0,2.6-0.3,3.6-0.8C835.2,510.4,835.2,509.1,835,507.9z"/>
	<path class="st12" d="M843.2,501.9c-0.1,1.2,1.1,3,1.6,0.7C845.3,500.2,843.5,499.3,843.2,501.9z"/>
	<path class="st12" d="M831.9,490.1c-0.2,0.3,0.5,3.1,0.6,3.4c0.4,0.1,1.1,0.3,1.6,0.4c-0.1-1.3-0.5-3-0.8-4
		C833.2,489.7,832.2,489.7,831.9,490.1z"/>
	<path class="st12" d="M842.5,501.8c0.1-0.5,0.3-1.1,0.6-1.5c-0.2,0-0.4,0.1-0.6,0.1c-0.2,0.1-0.4,0.1-0.6,0.2
		c-0.5,0.2-1,0.3-1.7,0.3c-0.2,0-0.4,0-0.5,0l0,0c-0.2,0-0.3,0.1-0.5,0.5s-0.5,0.9-1,1.1c0.3,1.5,0.7,2.8,1.4,4
		c0.4-0.7,0.8-1.3,1.2-1.7l0,0c0-0.1,0-0.2-0.1-0.2c-0.1-0.2-0.1-0.3-0.2-0.5c-0.2-0.3-0.5-0.6-0.7-0.8c0.3,0.2,0.7,0.4,1,0.6
		c0.2,0.1,0.3,0.3,0.4,0.5c0,0.1,0.1,0.1,0.1,0.2c0.5-0.3,1.1-0.6,1.9-0.7C842.6,503.3,842.5,502.5,842.5,501.8z"/>
	<path class="st12" d="M850.3,496.3c1.1-0.2,1.9-1.3,2-1.9l0,0c0.6,0,2.4-2.1,2.4-2.8c0-0.3-0.1-0.5-0.8-0.5c-0.6,0-2.4,0.4-2.8,1.1
		c-1-0.3-1.7,0.1-2.3,0.9c-1.6,0-1.7,0.3-2.2,1c-0.9-0.5-2-0.5-2.5,0.4c-0.8,0-1.1-0.3-2,0.3c-1-0.8-1.9-0.6-2.7,0.2
		c-0.3-0.7-1.4-1.2-2.4-0.5c-0.5,0.1-1.4,0-1.8-0.1c0.1,0.2,0.1,0.4,0.1,0.6c0.1,1.6-0.7,4.6-2.2,4.8H833c-0.3,0-0.6-0.2-0.8-0.5
		c-0.5-0.3-1.3-0.5-1.6-0.5c-2.3,0-2.9,1.1-2.9,1.8c0,1-0.2,1.2-0.4,1.4c-0.1,0.1-0.2,0.2-0.2,0.8c0,0.6,0.3,0.6,0.9,0.7
		c-0.4,0.4-0.6,0.5-0.6,1c0,0.8,0.8,1.3,1.4,1.6c0.2,0.1,0.3,0.1,0.3,0.4c0,0.1,0,0.2,0,0.3c0,0.1,0,0.2,0,0.3
		c0,0.2,0.2,0.4,0.6,0.4c1.1,0,1.4,0.2,1.6,0.3c0.1,0.1,0.1,0.1,0.5,0.1c0.3,0,0.4-0.2,0.5-0.4l0.1-0.2h0.3c0.4,0.1,0.7,0.1,1,0.1
		c0.9,0,0.9-0.6,0.9-0.8v-0.1c0,0-0.9-3.6-0.8-4.2c0-0.4-0.3-0.9,1.8-0.5c0.3,0.1,0.8,0.1,1.4,0.1c0.9,0,1.2-0.5,1.5-1
		c0.2-0.4,0.5-0.9,1.1-0.9c0,0,0,0,0.1,0s0.3,0,0.4,0c0.7,0,1.3-0.3,2.1-0.5c0.4-0.1,0.9-0.2,1.3-0.2l0,0h0.8c1.4,0,2.6-1.1,3.6-2.1
		C848.7,497.8,850,497,850.3,496.3z"/>
	<path class="st12" d="M836.6,510.9l0.4-0.3l0.2,0.5c0.1,0.4,0.4,1.1,0.6,1.2c0.4,0,0.8-0.1,1.2-0.3c-0.5-1.7-0.9-3.1-1.3-4.3
		c-0.7-2.1-1.2-3.6-1.3-5c-0.2,0-0.5-0.1-0.6-0.1c-0.5-0.1-0.7-0.1-1.1,0.1c0,0.5,0.2,1.2,0.4,2.1c0.5,1.6,1.1,3.9,0.7,6.7
		C836,511.4,836.3,511.1,836.6,510.9z"/>
	<path class="st12" d="M835.5,494c0.5,0,1,0,1.4-0.1c-0.1-0.5-0.1-1-0.2-1.4c0-0.3,0-0.5-0.1-0.7c0-0.1-0.2-0.2-0.5-0.2
		s-0.5,0.1-0.6,0.2s-0.1,0.2-0.1,0.4c0.1,0.3,0,0.7,0,1.1C835.5,493.6,835.5,493.8,835.5,494z"/>
	<path class="st12" d="M833.9,498.8c0.6-0.8,1-2.4,0.9-3.5c-0.1-2-2.1,0.3-2.1,2.9C832.7,499.7,833.3,499.7,833.9,498.8z"/>
</g>
<path class="st3" d="M482,534.2c0,1-0.1,1.9-0.2,2.8c-0.5,4.7-2.3,9.1-5,12.6c-3.9,5.1-9.8,8.6-16.5,9.3h-0.1
	c-0.7,0.1-1.4,0.1-2.1,0.1c-13.2,0-23.9-11.1-23.9-24.8c0-0.7,0-1.5,0.1-2.2c1-11.7,9.9-21.1,21.1-22.4c0.9-0.1,1.8-0.2,2.7-0.2
	C471.3,509.4,482,520.5,482,534.2z"/>
<g>
	<g>
		<path class="st12" d="M465.4,536.9l0.1,0.1c0.1,0.1,0.1,0.2,0.2,0.4c0.1-0.1,0.2-0.1,0.3-0.2c-0.4-0.9-0.7-1.8-0.7-2.6
			c-0.5-0.1-1.1-0.2-1.7-0.1c0.2,0.1,0.4,0.2,0.5,0.4C464.6,535.3,465,536.1,465.4,536.9z"/>
		<path class="st12" d="M473.5,539.4L473.5,539.4c-0.1-0.1-0.2-0.1-0.2-0.1c-0.1-0.1-0.3-0.1-0.5-0.1c-0.3-0.1-0.7-0.1-1-0.2
			c0.3-0.1,0.7-0.1,1-0.1c0.2,0,0.3,0,0.5,0c0.1,0,0.1,0,0.2,0c2.5-2.3,2.1-5,1.6-6.4c-0.6-1.7-1.7-3-2.2-3.2
			c-0.1,0.1-0.2,0.2-0.2,0.2c-0.1,0.1-0.3,0.2-0.4,0.3c-0.3,0.2-0.6,0.3-1,0.4c0.3-0.1,0.6-0.4,0.8-0.6c0.1-0.1,0.2-0.3,0.3-0.4
			c0.1-0.1,0.1-0.2,0.2-0.3c-0.1-2.3-2.5-3.8-4.9-3.8c-1.7,0-3,0.6-3.5,1.8c-0.5,1.1-0.2,2.6,0.6,3.6c0.4,0.5,0.9,0.8,1.4,0.9
			l0.3,0.1c0.1,0,0.1,0,0.2,0c0.2,0,0.4,0,0.6,0c0.4,0,0.8-0.1,1.1-0.2c-0.3,0.2-0.7,0.4-1.1,0.5c-0.2,0.1-0.4,0.1-0.6,0.1
			c-0.1,0-0.2,0-0.3,0h-0.1c-0.4,0.5-0.6,1.3-0.6,2.3c0.1,0.8,0.3,1.8,0.8,2.7l0,0c0.1,0,0.2,0,0.2,0c0.2,0,0.3,0.1,0.5,0.1
			c0.3,0.1,0.6,0.2,0.8,0.4c-0.3,0-0.6-0.1-0.9-0.1c-0.1,0-0.3,0-0.4,0s-0.1,0-0.2,0h-0.1l0,0c-0.2,0.1-0.5,0.3-0.6,0.5
			c-1.1,1.2-1.4,3.8-0.6,5.7c0.4,1,1.4,2.3,3.5,2.3c3.1,0,4.8-1.8,5.4-3.4C474.5,541.4,474.3,540.2,473.5,539.4z"/>
		<path class="st12" d="M465.2,533.9c0-0.8,0.2-1.5,0.5-2c-0.4-0.2-0.7-0.4-1-0.7c-1.2,1.3-2.8,2.2-4.4,2.4c0,0.3,0.2,0.6,0.3,0.9
			C462.4,533.9,463.5,533.6,465.2,533.9z"/>
		<path class="st12" d="M461.5,550.1c0.3,0.1,0.5,0.1,0.8,0V550c-0.3-4.5-0.6-9.6,2.5-13.1c-0.3-0.6-0.6-1.1-0.9-1.5
			c-3.1,3.3-2.8,7.8-2.4,12.6C461.5,548.8,461.5,549.4,461.5,550.1z"/>
	</g>
	<g>
		<path class="st12" d="M450.7,533.8l-0.1,0.1c-0.1,0.1-0.1,0.2-0.2,0.4c-0.1-0.1-0.2-0.1-0.3-0.2c0.4-0.9,0.7-1.8,0.7-2.6
			c0.5-0.1,1.1-0.2,1.7-0.1c-0.2,0.1-0.4,0.2-0.5,0.4C451.5,532.3,451.1,533,450.7,533.8z"/>
		<path class="st12" d="M442.6,536.4L442.6,536.4c0.1-0.1,0.2-0.1,0.2-0.1c0.1-0.1,0.3-0.1,0.5-0.1c0.3-0.1,0.7-0.1,1-0.2
			c-0.3-0.1-0.7-0.1-1-0.1c-0.2,0-0.3,0-0.5,0c-0.1,0-0.1,0-0.2,0c-2.5-2.3-2.1-5-1.6-6.4c0.6-1.7,1.7-3,2.2-3.2
			c0.1,0.1,0.2,0.2,0.2,0.2c0.1,0.1,0.3,0.2,0.4,0.3c0.3,0.2,0.6,0.3,1,0.4c-0.3-0.1-0.6-0.4-0.8-0.6c-0.1-0.1-0.2-0.3-0.3-0.4
			c-0.1-0.1-0.1-0.2-0.2-0.3c0.1-2.3,2.5-3.8,4.9-3.8c1.7,0,3,0.6,3.5,1.8c0.5,1.1,0.2,2.6-0.6,3.6c-0.4,0.5-0.9,0.8-1.4,0.9
			l-0.3,0.1c-0.1,0-0.1,0-0.2,0c-0.2,0-0.4,0-0.6,0c-0.4,0-0.8-0.1-1.1-0.2c0.3,0.2,0.7,0.4,1.1,0.5c0.2,0.1,0.4,0.1,0.6,0.1
			c0.1,0,0.2,0,0.3,0h0.1c0.4,0.5,0.6,1.3,0.6,2.3c-0.1,0.8-0.3,1.8-0.8,2.7l0,0c-0.1,0-0.2,0-0.2,0c-0.2,0-0.3,0.1-0.5,0.1
			c-0.3,0.1-0.6,0.2-0.8,0.4c0.3,0,0.6-0.1,0.9-0.1c0.1,0,0.3,0,0.4,0s0.1,0,0.2,0h0.1l0,0c0.2,0.1,0.5,0.3,0.6,0.5
			c1.1,1.2,1.4,3.8,0.6,5.7c-0.4,1-1.4,2.3-3.5,2.3c-3.1,0-4.8-1.8-5.4-3.4C441.6,538.3,441.8,537.1,442.6,536.4z"/>
		<path class="st12" d="M454,531.3L454,531.3l0.1-0.3c-1.2-0.3-2.2-0.4-3.1-0.2c0-0.8-0.2-1.5-0.5-2c0.4-0.2,0.7-0.4,1-0.7
			c1.2,1.3,2.8,2.2,4.4,2.4c0,0.3-0.2,0.6-0.3,0.9c-0.5-0.1-0.9-0.3-1.4-0.4L454,531.3L454,531.3L454,531.3z"/>
		<path class="st12" d="M454.6,547.1c-0.3,0.1-0.5,0.1-0.8,0V547c0.3-4.5,0.6-9.6-2.5-13.1c0.3-0.6,0.6-1.1,0.9-1.5
			c3.1,3.3,2.8,7.8,2.4,12.6C454.7,545.7,454.6,546.4,454.6,547.1z"/>
	</g>
</g>
<path class="st3" d="M426.5,546c0,6.5-2.7,12.4-7,16.8c-2.6,2.5-5.7,4.5-9.2,5.8c-0.4,0.1-0.7,0.3-1.1,0.4c-2.3,0.7-4.8,1.1-7.4,1.1
	c-13.7,0-24.8-10.7-24.8-24c0-2.5,0.4-4.9,1.1-7.2c0.1-0.4,0.2-0.7,0.4-1.1c1.3-3.4,3.3-6.4,6-8.9c4.5-4.2,10.6-6.8,17.3-6.8
	c0.6,0,1.2,0,1.8,0.1c12.2,0.9,22,10.3,22.9,22.2C426.5,544.8,426.5,545.4,426.5,546z"/>
<g>
	<path class="st12" d="M404.2,554.9c3.9-1.8,7.9-5.4,7.9-9.1c0-4.1-5.2-7.5-11-7.5c-5.7,0-11,3.4-11,7.5c0,3.7,4,7.3,7.9,9.1
		c2.2,1,2.2,3.4,2.2,4.8c0,0.3,0.4,0.4,0.8,0.4s0.8-0.1,0.8-0.4C402,558.3,402,555.9,404.2,554.9z"/>
	<path class="st12" d="M390.8,542.7c0.4-0.7,1-1.3,1.8-1.9c-2.8-1-3.5-4.4-3.6-6.5c0-0.3,0-0.5,0-0.7c0-0.3-1.2-0.4-1.3,0.1
		c-0.1,0.4,0,0.7,0,1.3C387.7,538.9,389.3,541.4,390.8,542.7z"/>
	<path class="st12" d="M414.8,533.6c-0.1-0.5-1.3-0.4-1.3-0.1c0,0.2,0,0.4,0,0.7c-0.1,2.1-0.8,5.6-3.6,6.5c0.7,0.6,1.3,1.3,1.8,2
		c1.5-1.3,3.1-3.8,3.1-7.8C414.8,534.3,414.9,533.9,414.8,533.6z"/>
</g>
<path class="st13" d="M565.8,406.7c0,11.9-8.5,21.8-19.8,23.9c-1.5,0.3-3,0.4-4.6,0.4c-13.4,0-24.3-10.9-24.3-24.3
	s10.9-24.3,24.3-24.3c12.1,0,22.1,8.8,24,20.4C565.7,404,565.8,405.3,565.8,406.7z"/>
<g>
	<path class="st12" d="M535.9,411.8c0-1.6-0.4-1.6-1.2-2c-0.2,0.1-0.4,0.4-0.4,0.7c2,0.6,0.4,2.7,1.6,4
		C535.6,412.6,535.9,412.8,535.9,411.8z"/>
	<g>
		<path class="st12" d="M532.2,397.8c-0.3,0-0.6-0.1-0.9-0.3c-0.1,0-0.1-0.1-0.2-0.1c-0.1,0.1-0.2,0.2-0.3,0.3
			c-0.1,0.2-0.2,0.4-0.2,0.6c-0.1,0.4,0,0.9,0.1,1.3l0,0l0,0c-0.2,0.4-0.3,0.9-0.2,1.3s0.2,0.9,0.4,1.3v0.1l-0.1,0.1
			c-0.2,0.2-0.3,0.5-0.4,0.7c-0.1,0.3-0.1,0.6-0.1,0.9s0.1,0.6,0.2,0.9c0.1,0.3,0.2,0.6,0.4,0.8l0.1,0.1l-0.1,0.1
			c-0.2,0.2-0.3,0.5-0.3,0.8s0,0.6,0.1,0.9s0.2,0.5,0.5,0.7c0.2,0.2,0.6,0.2,0.9,0.2c-0.3,0.1-0.6,0-0.9-0.1
			c-0.3-0.2-0.5-0.4-0.6-0.7c-0.1-0.3-0.1-0.6-0.1-1c0-0.3,0.1-0.6,0.3-0.8c-0.2-0.3-0.3-0.5-0.4-0.8c-0.1-0.3-0.2-0.6-0.2-1
			c0-0.3,0-0.7,0.1-1s0.2-0.6,0.4-0.8c-0.2-0.4-0.3-0.8-0.4-1.3c-0.1-0.5,0.1-1,0.3-1.4c-0.1-0.4-0.2-0.9-0.1-1.3
			c0-0.2,0.2-0.4,0.3-0.6c0.1-0.1,0.2-0.2,0.3-0.3c-0.2-0.1-0.4-0.2-0.6-0.4c-0.1-0.1-0.3-0.2-0.4-0.4c-0.6-0.1-1.2-0.4-1.4-1.2
			c-0.9,0.4-1.4,2.6-0.6,3.3c0.1,0,0.2,0,0.4,0s0.4,0,0.5,0.1c0.2,0,0.4,0.1,0.5,0.2c-0.4,0.1-0.7,0.1-1.1,0.1c-0.2,0-0.4,0-0.5-0.1
			l0,0c-0.6,0.5-0.8,2.3-0.1,3.2c0.1,0,0.3,0,0.4,0.1c0.4,0.1,0.7,0.2,1.1,0.3c-0.4,0.1-0.8,0.1-1.1,0c-0.2,0-0.3-0.1-0.5-0.1
			c-1.1,0.5-1,2.6,0,3.1c0.2,0,0.3-0.1,0.5-0.1s0.4,0,0.7,0.1c0.2,0.1,0.4,0.2,0.5,0.4c-0.4-0.2-0.8-0.1-1.2-0.1c-0.2,0-0.4,0-0.6,0
			c-0.1,0-0.2,0-0.2,0c-1.2,0.8-0.8,2.6,0,3.2v0.1c0.1-0.2,0.3-0.4,0.5-0.5c0.3-0.2,0.8-0.2,1.1,0c-0.2,0-0.4,0.1-0.5,0.1
			c-0.2,0-0.3,0.1-0.5,0.2c-0.1,0.1-0.3,0.2-0.4,0.2c-0.1,0.1-0.2,0.1-0.2,0.2c0.4,3.4,6,2.5,6.8,0.5c0,0-0.8-0.6-1.6-1
			c0.8-0.1,1.3,0.5,1.6,0.8c0.8-0.6,1.7-2.2,0.4-3.5c-0.4,0-1.6,0-1.9-0.1c0.4-0.3,1.1-0.3,1.6-0.2c1.2-0.9,0.6-2.7-0.2-3.1
			c-0.7,0.1-1.1,0.2-1.6,0.2c0.5-0.3,1.1-0.5,1.6-0.5c0.2-0.6,0.4-1.8-0.2-2.3c-0.3,0-1.1-0.1-1.6-0.1c0.4-0.4,1-0.3,1.5-0.1
			c0.6-0.3,0.5-0.6,0.4-0.8c-0.5-0.2-0.9-0.8-1.1-1.3C532.8,397.8,532.5,397.8,532.2,397.8z"/>
		<path class="st12" d="M531.2,393.8c0.2,0.4,0.4,0.8,0.8,1.1c0.5,0.3,1.1,0.3,1.6,0.3c0.6,0,1.2,0,1.7,0.1c0.6,0.2,1,0.6,1.3,1.1
			c0.6,0,1.3,0,1.9,0.2c0.3,0.1,0.6,0.3,0.9,0.5c0.2,0.2,0.4,0.4,0.6,0.7c0.5-0.1,1-0.1,1.5,0s1,0.2,1.4,0.5c0.5-0.3,1-0.6,1.5-0.7
			c0.3-0.1,0.6-0.1,0.9-0.1c0.3,0,0.5,0.1,0.7,0.2c0.1-0.3,0.3-0.6,0.5-0.8c0.3-0.3,0.6-0.5,0.9-0.7c0.4-0.2,0.8-0.2,1.1-0.2
			c0.4,0,0.7,0.1,1,0.3c0.1-0.3,0.3-0.5,0.5-0.7c0.3-0.2,0.6-0.3,0.9-0.4c0.7-0.1,1.3,0.1,1.9,0.2c0.1,0,0.2-0.1,0.3-0.2
			s0.2-0.2,0.3-0.2l0.1-0.1c0.1-0.2,0.3-0.3,0.5-0.4s0.5-0.2,0.8-0.3c0.1,0,0.2,0,0.3-0.1c0.2-0.9-1.1-2.8-2.2-2.2
			c0,0.2,0,0.3,0,0.5c0,0.4-0.2,0.8-0.5,1.1c0.1-0.9,0.1-1.2,0.2-1.8c-0.8-1-3.4,0.2-3.9,1.3c0.1,0.1,0.2,0.3,0.3,0.4
			c0.1,0.2,0.2,0.4,0.2,0.6s0,0.5-0.1,0.7c-0.1-0.5-0.2-0.8-0.5-1.3l0,0c-1.1-0.7-3.5,0.1-3.3,1.5c0.2,0.4,0.4,0.8,0.3,1.2
			c0,0-0.6-1.2-0.6-1.3c-0.6-0.2-1.7,0.2-2.1,0.9c0.1,0.5,0.2,1.1-0.2,1.5c0-0.7-0.1-0.9-0.1-1.5c-0.1-0.7-1.7-1.5-2.4-0.6
			c0,0.2-0.5,1.6-0.5,1.8c-0.2-0.5,0.1-1.4,0.3-1.9c-0.4-1.2-1.6-1.5-2.6-1.4c0,0,0,0.4-0.8,1.4c0.1-0.5,0.3-1,0.6-1.4
			c-0.3-1.1-1.5-1.8-2.5-1.5c-0.5,0.2-0.5,0.4-1,1c0-0.4,0.2-0.8,0.4-1.1c-0.9-1.2-3.7-1-4.1,0.3l0,0c0.1,0.1,0.2,0.3,0.3,0.5
			C531,393.1,531.2,393.5,531.2,393.8z"/>
		<path class="st12" d="M553.1,409.2c0.5-0.1,1.1-0.2,1.6-0.1c0.5-0.3,0.9-2.5,0.1-3.3c-0.7,0-0.9,0-1.5,0c0.4-0.3,1-0.4,1.6-0.3
			c0.7-0.7,0.5-2.1,0.1-2.7c-0.8-0.2-1-0.2-1.8-0.3c0.5-0.2,1-0.2,1.5-0.1c0.8-0.2,1.4-2.1,0.6-3.2c-0.2-0.1-0.4-0.2-0.5-0.3
			c-0.2-0.1-0.3-0.2-0.5-0.2c-0.7-0.1-1.4-0.1-2,0s-1.3,0.2-1.9,0.3c-1.1,1.5-1.3,2-0.6,3.7c0.4,0.3,1,0.4,1.3,0.7
			c-0.4,0-1-0.1-1.3-0.3c-0.7,0.6-0.8,2.1,0,2.8c0.4-0.1,0.9-0.1,1.2,0.2c-0.5,0-0.8,0-1.1,0c-0.9,0.5-0.4,2.6,0.2,3
			c0.4,0,0.8,0,1.1,0.2c-0.4,0.1-0.9,0.1-1.4,0c-0.6,0.5-0.7,1.6-0.5,2.2l0,0c0.3,0.2,0.7,0.4,1,0.7c-0.4,0-0.9-0.2-1.2-0.6
			c-0.4,0.1-1,0.4-1.3,0.7c0,0.5,0,1.2-0.2,1.7c-0.1-0.5-0.2-1.2-0.1-1.6c-0.6-1.4-2.9-1.2-3.5,0c0.3,0.4,0.5,0.9,0.3,1.4
			c-0.2-0.8-0.5-1-0.9-1.6c-1.9-0.8-4.2,1.4-4.2,3.9c0,0.5,0.1,1,0.3,1.5c0.1,0,0.2,0,0.4-0.1c0.2,0,0.3,0,0.5,0s0.3,0.1,0.5,0.2
			c-0.2,0-0.3,0-0.5,0.1c-0.2,0-0.3,0-0.4,0c-0.1,0-0.3,0-0.4,0c-0.3,0.1-0.5,0.4-0.5,0.7l2.1,4.6c-1-0.9-1.8-2.9-2.1-4.4
			c0,0.8,1.1,6.9,2.2,6.9c1,0,2.6-5.8,2.7-6.6c-0.4,1.3-1.3,3-2.1,3.7l2.1-4.1c0-0.3-0.1-0.5-0.2-0.6c-0.6-0.2-1.2-0.2-1.8-0.1
			c0.3-0.4,0.9-0.5,1.4-0.3c0.1-0.1,0.2-0.2,0.3-0.2c0-0.5,0.2-1.4,0.4-1.9c0.2,0.6,0.1,1.4-0.2,2l0,0c0.8,0.8,2.7,0.7,3.7,0
			c0-0.7,0.1-1.5,0.4-2.2c0,0.6,0,1.4-0.1,2.1c1.6,2.3,3.9,0.8,4.3-0.2c-0.4-0.7-0.7-1.1-1-1.7c0.5,0.4,0.9,0.9,1.2,1.4
			c0.9-0.1,2.6-1.2,2.6-3.1c-0.6-0.4-1-0.6-1.5-0.9c0.6,0.1,1.2,0.3,1.7,0.6c1.1-0.9,1-3.1,0.2-4
			C554.4,409.2,553.8,409.3,553.1,409.2z M552.3,402.8c-0.3,0.5-0.6,0.9-0.7,1.5c-0.1,0.3,0,0.5,0,0.8c0.1,0.2,0.2,0.5,0.4,0.7
			l0.1,0.1L552,406c-0.2,0.2-0.3,0.5-0.3,0.8c-0.1,0.3-0.1,0.6-0.1,0.9c0,0.6,0.2,1.1,0.4,1.7v0.1l-0.1,0.1
			c-0.2,0.2-0.3,0.5-0.4,0.7c-0.1,0.3-0.1,0.6-0.2,0.8c-0.1,0.6-0.1,1.2-0.1,1.7v0.1h-0.1c-0.6,0.2-1.2,0.5-1.7,0.9s-1,0.8-1.6,1.1
			l0,0h-0.1c-0.6-0.2-1.2-0.4-1.8-0.4c-0.6-0.1-1.2,0.1-1.8,0.3l0,0l0,0c-0.3,0-0.5-0.1-0.8-0.2c-0.2-0.1-0.5-0.2-0.7-0.3
			c-0.1,0-0.1-0.1-0.2-0.1l0,0l0,0h-0.1c-0.1,0-0.2,0.1-0.3,0.1c-0.2,0.1-0.4,0.3-0.5,0.5c-0.3,0.4-0.5,0.9-0.5,1.4s0.1,1,0.4,1.4
			c-0.4-0.4-0.5-0.9-0.5-1.4s0.2-1,0.5-1.5c0.2-0.2,0.3-0.4,0.6-0.5c0.1-0.1,0.2-0.1,0.4-0.1h0.1h0.1c0,0,0,0,0.1,0s0.1,0,0.2,0.1
			c0.2,0.1,0.5,0.2,0.7,0.3c0.2,0.1,0.5,0.1,0.7,0.1c0.6-0.2,1.3-0.4,1.9-0.3c0.6,0,1.3,0.2,1.9,0.4c0.5-0.3,1-0.7,1.5-1.1
			s1.1-0.7,1.7-0.9c0-0.6,0-1.1,0.1-1.7c0-0.3,0.1-0.6,0.2-0.9c0.1-0.3,0.2-0.5,0.4-0.8c-0.2-0.5-0.4-1.1-0.4-1.7
			c0-0.3,0-0.6,0.1-0.9s0.2-0.5,0.3-0.8c-0.1-0.2-0.3-0.4-0.4-0.7c-0.1-0.3-0.1-0.6,0-0.9C551.7,403.8,552,403.3,552.3,402.8
			c-0.2-0.3-0.4-0.6-0.4-0.9c-0.1-0.4,0-0.7,0-1.1c0.1-0.7,0.3-1.4,0.5-2c-0.1,0.7-0.3,1.4-0.4,2c0,0.3-0.1,0.7,0,1s0.2,0.6,0.4,0.9
			L552.3,402.8L552.3,402.8z"/>
		<path class="st12" d="M539.7,399.4c0,0.4-0.3,0.9-0.3,1.1c0,0.9,1.6,1.9,3.3,0.7c-0.1-0.5,0-1.1,0.2-1.4c0.2,0.4,0.1,0.9,0,1.4
			c0.6,1.2,2.9,0.5,3.2-0.6c-0.1-0.4-0.2-0.8-0.1-1.2c0.2,0.3,0.3,0.8,0.4,1.2c1,0.8,2,0.3,2.8-0.3c0.1-0.8,0.3-1.4,1.3-1.7
			c0,0,0,0.1-0.1,0.1c0.6-0.2,1.2-0.4,1.8-0.5c0.4-0.1,0.8-0.1,1.2,0c0.1,0,0.2,0,0.3,0c0.2,0,0.3-0.1,0.5,0c0.3,0,0.6,0.1,0.8,0.3
			c0,0,0.1,0,0.1,0.1c1.7-0.8,1.9-2.8,0.4-4c-0.3,0.1-0.5,0.1-0.8,0.2c-0.2,0.1-0.5,0.2-0.7,0.3l0,0c-0.1,0.1-0.2,0.2-0.3,0.3
			c-0.1,0.1-0.2,0.2-0.4,0.2l0,0l0,0c-0.6-0.1-1.3-0.2-1.9-0.2c-0.3,0-0.6,0.1-0.8,0.3c-0.2,0.2-0.4,0.5-0.5,0.7v0.1H550
			c-0.3-0.2-0.7-0.3-1-0.3c-0.4,0-0.7,0.1-1,0.2s-0.6,0.4-0.8,0.6c-0.2,0.3-0.4,0.6-0.5,0.9v0.2l-0.2-0.1c-0.3-0.1-0.5-0.2-0.8-0.3
			c-0.3,0-0.5,0-0.8,0.1c-0.5,0.2-1,0.5-1.5,0.8h-0.1l-0.1-0.1c-0.4-0.3-0.9-0.4-1.4-0.5s-1-0.1-1.5,0h-0.1l-0.1-0.1
			c-0.2-0.2-0.4-0.5-0.6-0.7c-0.2-0.2-0.5-0.4-0.8-0.5c-0.6-0.2-1.2-0.2-1.8-0.3h-0.1v-0.1c-0.3-0.5-0.7-0.9-1.2-1.1
			s-1.1-0.2-1.7-0.2c-0.6,0-1.2,0-1.7-0.4c-0.4-0.3-0.6-0.7-0.8-1.1c-0.2-0.3-0.4-0.6-0.6-0.9c-0.1-0.2-0.2-0.4-0.3-0.6
			c-1.3,0.5-1.7,1.4-1.4,2.6c0.2,0.8,0.8,1.1,1.1,1.4c0.5,0.2,0.9,0.5,1.3,0.7c0.3,0.1,0.6,0.2,0.8,0.3c0.3,0.1,0.6,0.1,0.9,0.2
			c0.4,0.1,0.8,0.6,1,1.1c0,0,0.8,0.3,1.2,0.2l0,0c0.1-0.5,0.4-1.2,1-1.5c-0.2,0.5-0.4,0.7-0.7,1.5l0,0c0.1,1.1,2,1.9,3.4,1.5
			C539.1,400.1,539.4,399.6,539.7,399.4z"/>
	</g>
</g>
<circle class="st13" cx="507.8" cy="446" r="24.3"/>
<path class="st12" d="M496.3,451.9c2.1,2.1,5.8,4.6,11.5,4.6s9.4-2.5,11.5-4.6c2.3-2.3,3.2-4.5,3.2-4.6c0,0-3-7.6-8.2-9.4
	c-2.1-0.7-4.3-0.4-6.5,0.9c-2.2-1.3-4.4-1.6-6.5-0.9c-5.2,1.8-8.2,9.4-8.2,9.4C493.1,447.4,494.1,449.6,496.3,451.9z M508.2,451.5
	v-3.9h3.8v3.7C510.8,451.4,509.6,451.5,508.2,451.5z M508.2,446.8V442c1.4,0,2.6,0.1,3.8,0.3v4.5H508.2z M507.5,446.8h-4v-4.5
	c1.2-0.2,2.5-0.4,4-0.4V446.8z M507.5,447.6v3.9c-1.4,0-2.8-0.1-4-0.3v-3.6H507.5z M502.7,451.1c-1.3-0.2-2.5-0.5-3.5-0.9v-2.6h3.5
	V451.1z M512.8,451.1v-3.5h3.8v2.6C515.4,450.5,514.2,450.9,512.8,451.1z M517.3,447.6h4.3c-0.7,0.6-2.2,1.5-4.3,2.3V447.6z
	 M517.3,446.8v-2.9c2.2,1,3.7,2.2,4.4,2.9H517.3z M516.5,446.8h-3.8v-4.4c1.4,0.3,2.7,0.7,3.8,1.2V446.8z M502.7,442.5v4.3h-3.5
	v-3.2C500.3,443.2,501.4,442.8,502.7,442.5z M498.5,446.8H494c0.7-0.7,2.2-1.9,4.5-2.9V446.8z M498.5,447.6v2.3
	c-2.2-0.8-3.6-1.8-4.4-2.3H498.5z"/>
<line id="background_1_" class="st10" x1="156" y1="400" x2="704" y2="400"/>
<path class="st1" d="M453.2,469c-13.9,0-25.2-11.3-25.2-25.2c0-13.9,11.3-25.2,25.2-25.2c13.9,0,25.2,11.3,25.2,25.2
	C478.4,457.7,467.1,469,453.2,469"/>
<path class="st14" d="M617.7,444c0-0.1,0-0.3,0.1-0.4l0.1-0.1C617.8,443.6,617.7,443.8,617.7,444z"/>
<path class="st14" d="M618.2,444.5L618.2,444.5c0-0.1,0-0.3,0-0.4l0.1-0.1C618.3,444.2,618.2,444.3,618.2,444.5z"/>
<path class="st14" d="M621.1,441.4c0.1-0.2,0.1-0.3,0.2-0.5l0,0C621.2,441.1,621.2,441.2,621.1,441.4z"/>
<path class="st14" d="M621.6,441.9c0.1-0.2,0.1-0.3,0.2-0.5l0,0C621.8,441.6,621.7,441.8,621.6,441.9z"/>
<path class="st14" d="M631.5,439.8c0-0.1-0.1-0.1-0.1-0.2c0.1-0.1,0.2-0.2,0.3-0.2c0,0.2,0,0.4,0,0.6
	C631.6,440,631.6,439.9,631.5,439.8z"/>
<path class="st12" d="M454.1,445.7c-0.1,0.2-0.3,0.5-0.3,0.8c0,0.8-0.1,1.6,0.6,2.1c0.4,0.2,1,0.1,1.4,0.1c0.7,0,1.2-0.5,1.7-1
	c1.1-0.8,2-2.2,3.5-2c1.1,0.3,2.4,0.9,3.5,0.2c0-0.8-0.1-1.4-0.1-2.2c-0.3,0.2-0.6,0.4-0.9,0.6c-1,0.2-2.2,0.2-3.1-0.3
	c-0.7-0.1-1.4,0.2-1.9,0.7c-0.6,0.4-0.9,1.2-1.6,1.3c-0.2,0.2-0.3,0.4-0.6,0.4c-0.2-0.2-0.3,0.1-0.5,0c-0.1,0-0.2-0.1-0.2-0.2
	s0-0.2,0.1-0.3c0.2-0.2,0.5-0.3,0.8-0.4c0.3-0.2,0.8-0.3,0.9-0.7c0.1-0.5,0-1-0.3-1.3c-0.4-0.3-0.9-0.7-1.5-0.4
	c-0.3,0.1-0.5,0.3-0.8,0.2c-0.1-0.1-0.2-0.2-0.2-0.3c0-0.1,0-0.2,0.2-0.3c0.4-0.2,0.9-0.4,1.3-0.4c0.3,0,0.6,0.2,0.9,0.2
	c0.2,0.1,0.3-0.1,0.5-0.2c0.5-0.6,0.5-1.5,0.4-2.3c-0.2-0.6-0.7-1.1-1.3-1.3c-0.1-0.1-0.2-0.2-0.2-0.3c0-0.1,0.1-0.2,0.2-0.3
	c0.3,0,0.6,0.1,0.8,0.3c0.4-0.5,0.5-1.3,0.2-1.9c-0.2-0.5-0.6-0.8-1-1c-0.3-0.2-0.6-0.1-0.9-0.3c-0.1-0.1-0.1-0.2-0.1-0.3
	c0-0.1,0.1-0.2,0.2-0.2c0.6,0,1.1,0.2,1.5,0.5c0.1,0,0.2-0.1,0.3-0.2c0.3-0.5,0.4-1.1,0.2-1.6c-0.3-0.7-0.9-1.2-1.6-1.4
	c-0.2,0-0.4,0-0.5-0.1s-0.1-0.2-0.1-0.3c0-0.1,0.1-0.2,0.2-0.2c0.4-0.1,0.8,0.1,1.1,0.3c0.1-0.1,0.1-0.1,0.1-0.2
	c0.1-0.5,0-1-0.4-1.3c-0.3-0.2-0.7-0.3-1.1-0.4c-0.7-0.1-1.3,0.1-1.7,0.6c-0.4,0.4-0.2,1-0.2,1.5c0.3-0.3,0.7-0.5,1.1-0.5
	c0.1,0.1,0.2,0.2,0.2,0.3c0,0.1-0.1,0.2-0.2,0.3c-0.6,0.1-1,0.5-1.2,1.1v2.9l0.1,0.2c0.4-0.3,0.7-0.6,1.2-0.4c0.1,0,0.1,0.1,0.2,0.2
	c0.1,0.6-0.6,0.3-0.9,0.6c-0.2,0.3-0.5,0.4-0.6,0.7v2.2c0.1,0.1,0.1,0.3,0.2,0.4c0.3-0.2,0.6-0.2,0.9-0.3c0.7-0.1,1.4,0.2,1.8,0.8
	c0,0.1,0,0.2-0.1,0.3c-0.1,0.1-0.2,0.1-0.4,0.1c-0.1-0.1-0.2-0.2-0.3-0.3c-0.3-0.3-0.9-0.3-1.3-0.2c-0.5,0.1-0.7,0.6-0.9,1v3.1l0,0
	c0.4,0.3,0.9,0.1,1.3,0.1c0.1,0,0.1,0.1,0.2,0.2c0,0.1,0,0.2-0.1,0.3C454.8,445.2,454.4,445.4,454.1,445.7z M451.7,445.3
	c-0.2-0.1-0.4-0.1-0.6-0.3c0-0.1-0.1-0.2,0-0.3c0-0.1,0.2-0.2,0.3-0.2c0.4,0.1,0.9,0.2,1.2-0.1v-3.1c-0.1-0.3-0.2-0.6-0.5-0.8
	c-0.4-0.2-0.9-0.3-1.4-0.2c-0.3,0.1-0.4,0.6-0.8,0.5c-0.1,0-0.2-0.1-0.2-0.2c-0.1-0.1,0-0.3,0.1-0.4c0.5-0.6,1.3-0.8,2.1-0.5
	c0.1,0.1,0.3,0.1,0.5,0.2l0.2-0.3v-2.2c-0.1-0.4-0.5-0.6-0.8-0.8c-0.1-0.1-0.4-0.1-0.6-0.1c-0.1,0-0.2-0.2-0.2-0.3
	c0-0.1,0.1-0.2,0.2-0.3c0.5-0.2,0.9,0.2,1.2,0.5c0.1-0.1,0.1-0.1,0.1-0.2v-2.8c-0.1-0.3-0.2-0.6-0.5-0.8c-0.2-0.4-0.6-0.2-0.8-0.5
	c0-0.2,0-0.3,0.1-0.4c0.5-0.1,0.8,0.2,1.2,0.5V431c-0.4-0.7-1.1-1.1-1.9-1c-0.5,0.1-1.1,0.2-1.4,0.7c-0.2,0.4-0.3,0.9,0,1.3
	c0.1-0.1,0.2-0.1,0.4-0.2c0.3-0.1,0.7-0.2,1,0c0.1,0.1,0.1,0.2,0,0.3c0,0.1-0.1,0.1-0.2,0.2c-0.4,0-0.7,0.2-1,0.3
	c-0.6,0.4-1.1,1.1-1.1,1.8c0.1,0.4,0.1,0.8,0.4,1.1c0.2,0,0.4-0.2,0.6-0.3c0.3-0.1,0.7-0.3,1.1-0.2c0.1,0.1,0.2,0.2,0.2,0.4
	c0,0.1-0.1,0.2-0.2,0.2c-0.6,0-1.1,0.4-1.5,0.8c-0.4,0.5-0.6,1.4-0.3,2.1c0.1,0.1,0.1,0.3,0.3,0.4c0.2-0.2,0.5-0.3,0.8-0.2
	c0.1,0.1,0.2,0.2,0.2,0.3c0,0.1-0.1,0.2-0.2,0.2c-0.6,0.1-1.2,0.8-1.3,1.4c-0.1,0.7,0,1.6,0.5,2.2c0.1,0.1,0.3,0.1,0.5,0.1
	c0.4-0.2,0.8-0.3,1.2-0.2c0.4,0.2,0.8,0.2,1.1,0.5c0,0.1,0,0.3-0.1,0.4c-0.1,0-0.2,0.1-0.3,0c-0.4-0.1-0.8-0.4-1.3-0.3
	c-0.5,0.2-1,0.6-1.1,1.1c0,0.4,0.1,0.8,0.4,1c0.4,0.2,0.8,0.4,1.3,0.6c0.1,0.1,0.2,0.2,0.2,0.3c0,0.1-0.1,0.2-0.2,0.3
	c-0.2,0.2-0.4-0.1-0.5,0c-0.1,0-0.2,0-0.3-0.1c-0.2-0.4-0.7-0.4-1-0.7c-0.5-0.6-1.1-1.1-1.7-1.5c-0.5-0.2-1.1-0.2-1.6,0
	c-0.8,0.4-1.8,0.3-2.6,0.1c-0.3-0.1-0.6-0.3-0.9-0.6c-0.1,0.7-0.1,1.5-0.1,2.2c1,0.6,2.3,0.1,3.3-0.2c0.8-0.2,1.5,0.1,2.1,0.6
	c1.2,0.8,2.1,2.4,3.7,2.3h0.2c0.4-0.1,0.8,0.1,1.1-0.4c0.5-0.4,0.3-1.1,0.4-1.7C452.6,446.1,452.2,445.6,451.7,445.3z M459.8,434.7
	c-0.4-0.1-0.8,0.1-1.2,0.3c-0.4,0.2-0.5,0.8-0.6,1.2c0.2,0.4,0.3,0.7,0.3,1.2c0.1,0.2,0.3,0.4,0.4,0.5c0.1,0,0.1-0.2,0.2-0.2
	c0.3-0.4,0.6-0.8,1.1-1c0.1,0,0.2,0.1,0.3,0.2c0,0.1,0,0.2,0,0.3c-1,0.9-1.8,2-1.9,3.3c0,0.6,0.3,1.1,0.8,1.3c0.2,0,0.3,0.1,0.5,0
	c0.8,0,1.5-0.1,2.3-0.2c0.1-0.1,0.2-0.1,0.3-0.1c0.2-0.3,0.2-0.9,0.1-1.3c-0.3-0.3-0.7-0.2-1.1-0.2c-0.2,0-0.5,0.1-0.7-0.1
	c-0.1-0.1-0.1-0.2,0-0.3c-0.3-0.4,0.3-0.5,0.4-0.8c0.6-0.8,0.2-1.8-0.2-2.6c-0.2-0.5-0.9-0.4-1.2-0.8c0-0.1,0-0.2,0-0.3
	c0.2-0.3,0.4-0.1,0.6-0.1c0-0.6,0-1.3-0.4-1.8s-1.3-0.2-1.6-0.8c0-0.1,0-0.2,0.1-0.3c0.3-0.3,0.5,0.2,0.8,0.2
	c-0.3-0.3-0.7-0.6-1-0.9c-0.2,0.1-0.2,0.3-0.2,0.5c-0.1,0.8,0.2,1.6,0.9,2c0.4,0.2,0.8,0,1.1,0.3c0.1,0.1,0.1,0.2,0,0.3
	C460.1,434.6,459.9,434.6,459.8,434.7z M446,435.8c-0.8,0.2-0.9,1.1-1.1,1.8c-0.1,0.6,0.2,1.2,0.6,1.6c0.3,0.2,0.1,0.4,0.1,0.6
	c0,0.1-0.1,0.2-0.2,0.3c-0.5,0-1.1-0.1-1.5,0.1c-0.4,0.3-0.2,0.8-0.2,1.2c0,0.3,0.3,0.1,0.5,0.3c0.6,0,1.1,0.1,1.7,0.1
	c0.5,0,0.9,0.2,1.3-0.1c0.5-0.3,0.7-0.8,0.7-1.3c-0.1-1.3-0.9-2.3-1.9-3.2V437c0-0.1,0.1-0.2,0.2-0.3c0.1,0,0.2,0,0.3,0
	c0.4,0.4,0.8,0.7,1.1,1.2c0.2-0.1,0.3-0.3,0.4-0.5c0-0.4,0.2-0.8,0.3-1.1c0-0.3,0-0.5-0.1-0.7c-0.1-0.6-0.7-0.7-1.2-0.9
	c-0.3-0.1-0.6,0.1-0.7-0.1c-0.1-0.1-0.1-0.3,0-0.4s0.3-0.2,0.4-0.2c0.5,0,0.9-0.2,1.2-0.5c0.2-0.4,0.5-0.9,0.4-1.3
	c0-0.2,0-0.5-0.3-0.7c-0.3,0.3-0.7,0.6-1,0.9c0.2,0.1,0.3-0.2,0.5-0.3c0.1,0,0.2,0,0.3,0.1c0.1,0.1,0.1,0.1,0.1,0.2
	c0,0.2-0.2,0.4-0.4,0.5c-0.4,0.1-0.8,0.2-1.1,0.4c-0.5,0.5-0.5,1.1-0.5,1.8c0.2-0.1,0.4-0.2,0.6,0c0.1,0.1,0.1,0.2,0.1,0.3
	C446.4,435.7,446.2,435.7,446,435.8z M462,437.2c0.2-0.1,0.3-0.2,0.5-0.2c-0.4-0.9-0.9-1.7-1.4-2.5v1
	C461.7,435.9,461.8,436.6,462,437.2z M445.2,435.5v-1c-0.3,0.5-0.6,1-0.9,1.5c-0.1,0.3-0.4,0.7-0.5,1c0.2,0,0.4,0.1,0.5,0.2
	C444.5,436.6,444.7,435.9,445.2,435.5z M462.1,438.1c-0.1,0.5-0.3,0.9-0.6,1.2c0.4,0,0.8,0,1.1,0.2c0.2-0.2,0.5-0.4,0.8-0.4
	c-0.2-0.5-0.4-1-0.5-1.5C462.5,437.5,462.3,437.9,462.1,438.1z M443.8,439.6c0.3-0.2,0.7-0.2,1.1-0.2c-0.3-0.4-0.5-0.8-0.6-1.2
	c-0.1-0.2-0.3-0.4-0.5-0.5c-0.1-0.1-0.2,0-0.3,0c-0.2,0.5-0.4,1-0.5,1.5c0.2,0,0.3,0.1,0.5,0.2C443.6,439.4,443.6,439.5,443.8,439.6
	z M458.4,438.5L458.4,438.5c0-0.1-0.1-0.1-0.1-0.2c-0.1,0.3-0.2,0.6-0.4,0.8l0.2,0.2C458.2,439.1,458.3,438.8,458.4,438.5z
	 M447.9,438.5c0.1,0.3,0.3,0.6,0.4,0.9c0.1,0,0.1-0.1,0.2-0.2c-0.2-0.2-0.3-0.6-0.5-0.8L447.9,438.5z M463.3,441.4
	c0.2-0.1,0.5-0.3,0.6-0.5l-0.3-1.1h-0.1c-0.1,0-0.2,0.1-0.3,0.1C463.4,440.3,463.4,440.9,463.3,441.4z M443.1,441.4
	c-0.1-0.5-0.1-0.9,0.1-1.4c-0.1-0.1-0.3-0.2-0.4-0.2c-0.1,0.4-0.2,0.7-0.3,1.1C442.7,441.1,442.9,441.4,443.1,441.4z M458.4,441.8
	c-0.1,0.5-0.3,1-0.7,1.4c-0.1,0.2,0,0.3,0.1,0.4c0.2,0.2,0.7,0.2,1,0.2c0.5-0.3,1.1-0.4,1.8-0.3c0.8,0.4,1.8,0.5,2.7,0.3
	c0.4-0.2,0.8-0.6,1-1.1c-0.1-0.4-0.1-0.7-0.2-1.1c-1,0.8-2.6,0.6-3.9,0.8C459.5,442.5,458.8,442.3,458.4,441.8z M443.1,443.9
	c0.8,0.2,1.7,0.2,2.4-0.2c0.7-0.3,1.5-0.2,2.2,0.2c0.3,0,0.7,0,0.9-0.2c0.1-0.1,0.1-0.2,0.1-0.4c-0.4-0.4-0.7-0.9-0.8-1.4
	c-0.2,0.2-0.4,0.3-0.6,0.4c-0.4,0.2-0.9,0.2-1.3,0.1c-1.3-0.1-2.7,0-3.8-0.7l-0.2,1l0.1,0.2C442.4,443.3,442.7,443.6,443.1,443.9z
	 M463.9,447.7c0,0.1-0.1,0.2-0.2,0.2s-0.3,0-0.4-0.1c-0.1-0.3-0.2-0.8-0.6-0.9c-0.6-0.1-1.2-0.3-1.8-0.5c0.4,0.6,0.5,1.3,0.3,1.9
	c-0.2,0.4-0.2,0.8-0.5,1.1c-0.1,0.1-0.2,0-0.3,0c-0.1-0.1-0.2-0.2-0.2-0.3c0.2-0.6,0.5-1.2,0.4-1.9c-0.1-0.3-0.2-0.7-0.6-0.8
	c-1,0.6-1.8,1.4-2.7,2.2c0.2,0,0.3,0,0.5,0c0.5,0.2,0.9,0.7,1.1,1.2c0.3,0.5-0.1,1.3,0.5,1.6c0.7,0.1,1.3-0.3,1.9-0.6
	c0.7-0.6,1.4-1.2,2.2-1.6c1-0.5,0.9-1.6,1-2.6c-0.2,0.1-0.5,0.2-0.8,0.2C463.8,447.2,463.9,447.4,463.9,447.7z M441.9,446.8
	c0.1,0.8-0.1,1.9,0.8,2.5c0.7,0.5,1.5,0.9,2.1,1.5c0.6,0.4,1.2,0.8,2.1,0.8c0.2,0,0.2-0.2,0.3-0.3c0-0.6,0-1.3,0.4-1.8
	c0.3-0.5,0.8-0.9,1.4-0.8c-0.7-0.6-1.4-1.2-2.1-1.8c-0.2-0.1-0.4-0.4-0.7-0.4c-0.4,0.3-0.5,0.7-0.6,1.2c0,0.6,0.4,1,0.4,1.5
	c0,0.1-0.1,0.2-0.2,0.2s-0.3,0-0.3-0.1c-0.2-0.4-0.4-0.9-0.5-1.3c-0.1-0.6,0.1-1.2,0.3-1.6c-0.6,0.2-1.1,0.4-1.7,0.5l-0.2,0.1
	c-0.4,0.2-0.3,0.7-0.6,1c-0.2,0-0.3,0-0.4-0.1c-0.1-0.3,0.1-0.6,0.2-0.9C442.5,446.9,442.2,446.8,441.9,446.8z M454.2,449.2
	c-0.2,0-0.3,0.2-0.4,0.3v2.6c0.2,0.2,0.4,0.2,0.6,0.2s0.4,0,0.7,0.1c0.8,0,1.5-0.3,2.2-0.6c0.5-0.2,1-0.8,1.1-1.3s-0.3-1-0.7-1.2
	c-0.1-0.1-0.2,0.1-0.3,0.1c-0.1,0-0.2,0-0.3-0.1c-0.1-0.1-0.1-0.3,0-0.4C456.2,449.4,455.1,449.4,454.2,449.2z M452.2,449.2
	c-0.9,0.2-1.9,0.2-2.8-0.2v0.1c0,0.1,0.1,0.2-0.1,0.3c-0.1,0.1-0.2,0.1-0.3,0.1c-0.1,0-0.1-0.2-0.3-0.2c-0.3,0.1-0.6,0.5-0.8,0.8
	c-0.1,0.4-0.1,0.8,0.3,1.1c0.7,0.9,1.8,1.1,2.8,1.3c0.5,0,1.1,0,1.6-0.2v-2.6C452.6,449.4,452.4,449.3,452.2,449.2z M459.5,452.2
	c-0.4,0-0.7-0.3-0.9-0.6c-0.8,0.9-1.9,1.2-3,1.4c-0.6,0.1-1.3,0-1.9-0.1v1.1c0.1,0.3,0.4,0.5,0.7,0.6c1.1,0.1,2,0.7,3.1,0.4
	c0.8-0.1,1.1-0.9,1.6-1.3c0.1-0.1,0.2,0,0.3,0c0.1,0.1,0.1,0.1,0.1,0.2c0.8-0.2,1.5-0.8,2.2-1.4c0.3-0.2,0.4-0.6,0.6-0.8
	c0.1,0,0.3,0,0.4,0.1s0.1,0.2,0,0.3c-0.5,0.8-1.4,1.5-2.1,2c-0.5,0.2-1.1,0.5-1.7,0.5c-0.7,1-1.9,1.1-2.9,0.9
	c-0.8-0.3-1.6-0.3-2.3-0.7v1.9l0.1,0.1c0.2,0,0.4-0.1,0.6-0.1c1-0.2,2,0.1,3-0.1c1.1-0.2,1.8-1.1,2.9-1.4c1-0.1,1.8-0.6,2.5-1.3
	c0.6-1.2,1-2.5,1.3-3.9c0-0.3,0.1-0.5,0.1-0.8c-0.8,0.6-1.6,1-2.3,1.7C461.2,451.8,460.4,452.2,459.5,452.2z M443.7,452
	c0.1,0,0.2,0,0.3,0c0.7,1,1.7,1.8,2.8,2.1c0-0.1,0-0.2,0.1-0.2c0.1-0.1,0.2-0.1,0.3-0.1c0.4,0.2,0.6,0.5,0.9,0.8
	c0.7,0.6,1.6,0.6,2.4,0.4c0.7-0.4,1.8-0.1,2.2-0.9v-1.2c-0.5,0.1-1.1,0.2-1.7,0.2c-1.2-0.2-2.3-0.5-3.2-1.5l-0.3,0.3
	c-0.6,0.5-1.5,0.2-2.1-0.1c-0.7-0.3-1.2-0.8-1.8-1.3c-0.5-0.3-1-0.6-1.4-0.9c0.2,1.6,0.7,3.2,1.4,4.6c0.7,0.8,1.7,1.3,2.7,1.4
	c0.7,0.2,1.2,0.7,1.9,1.1c1.2,0.6,2.8-0.1,4,0.4c0.1,0,0.3,0.1,0.4,0v-1.9c-0.8,0.4-1.7,0.5-2.6,0.7c-1,0.1-2.1,0-2.7-0.9
	c-1.4-0.1-2.6-1-3.6-2c-0.1-0.2-0.3-0.4-0.3-0.7C443.6,452.1,443.7,452.1,443.7,452z M460.3,456.2c-0.5,0.2-1,0.6-1.6,0.9
	c-0.9,0.5-2,0.5-3,0.4c1.4,0.2,2.9,0.1,4.1-0.4c0.6-0.3,1.2-0.7,1.7-1.2c-0.1,0-0.2,0.1-0.3,0.1C461,456.1,460.7,456.2,460.3,456.2z
	 M447.6,457.1c-0.7-0.4-1.4-1-2.2-1L445,456c-0.1,0-0.1,0-0.2,0c1.5,1.5,3.7,2,5.9,1.6C449.6,457.7,448.4,457.7,447.6,457.1z
	 M454.1,445.7c-0.1,0.2-0.3,0.5-0.3,0.8c0,0.8-0.1,1.6,0.6,2.1c0.4,0.2,1,0.1,1.4,0.1c0.7,0,1.2-0.5,1.7-1c1.1-0.8,2-2.2,3.5-2
	c1.1,0.3,2.4,0.9,3.5,0.2c0-0.8-0.1-1.4-0.1-2.2c-0.3,0.2-0.6,0.4-0.9,0.6c-1,0.2-2.2,0.2-3.1-0.3c-0.7-0.1-1.4,0.2-1.9,0.7
	c-0.6,0.4-0.9,1.2-1.6,1.3c-0.2,0.2-0.3,0.4-0.6,0.4c-0.2-0.2-0.3,0.1-0.5,0c-0.1,0-0.2-0.1-0.2-0.2s0-0.2,0.1-0.3
	c0.2-0.2,0.5-0.3,0.8-0.4c0.3-0.2,0.8-0.3,0.9-0.7c0.1-0.5,0-1-0.3-1.3c-0.4-0.3-0.9-0.7-1.5-0.4c-0.3,0.1-0.5,0.3-0.8,0.2
	c-0.1-0.1-0.2-0.2-0.2-0.3c0-0.1,0-0.2,0.2-0.3c0.4-0.2,0.9-0.4,1.3-0.4c0.3,0,0.6,0.2,0.9,0.2c0.2,0.1,0.3-0.1,0.5-0.2
	c0.5-0.6,0.5-1.5,0.4-2.3c-0.2-0.6-0.7-1.1-1.3-1.3c-0.1-0.1-0.2-0.2-0.2-0.3c0-0.1,0.1-0.2,0.2-0.3c0.3,0,0.6,0.1,0.8,0.3
	c0.4-0.5,0.5-1.3,0.2-1.9c-0.2-0.5-0.6-0.8-1-1c-0.3-0.2-0.6-0.1-0.9-0.3c-0.1-0.1-0.1-0.2-0.1-0.3c0-0.1,0.1-0.2,0.2-0.2
	c0.6,0,1.1,0.2,1.5,0.5c0.1,0,0.2-0.1,0.3-0.2c0.3-0.5,0.4-1.1,0.2-1.6c-0.3-0.7-0.9-1.2-1.6-1.4c-0.2,0-0.4,0-0.5-0.1
	s-0.1-0.2-0.1-0.3c0-0.1,0.1-0.2,0.2-0.2c0.4-0.1,0.8,0.1,1.1,0.3c0.1-0.1,0.1-0.1,0.1-0.2c0.1-0.5,0-1-0.4-1.3
	c-0.3-0.2-0.7-0.3-1.1-0.4c-0.7-0.1-1.3,0.1-1.7,0.6c-0.4,0.4-0.2,1-0.2,1.5c0.3-0.3,0.7-0.5,1.1-0.5c0.1,0.1,0.2,0.2,0.2,0.3
	c0,0.1-0.1,0.2-0.2,0.3c-0.6,0.1-1,0.5-1.2,1.1v2.9l0.1,0.2c0.4-0.3,0.7-0.6,1.2-0.4c0.1,0,0.1,0.1,0.2,0.2c0.1,0.6-0.6,0.3-0.9,0.6
	c-0.2,0.3-0.5,0.4-0.6,0.7v2.2c0.1,0.1,0.1,0.3,0.2,0.4c0.3-0.2,0.6-0.2,0.9-0.3c0.7-0.1,1.4,0.2,1.8,0.8c0,0.1,0,0.2-0.1,0.3
	c-0.1,0.1-0.2,0.1-0.4,0.1c-0.1-0.1-0.2-0.2-0.3-0.3c-0.3-0.3-0.9-0.3-1.3-0.2c-0.5,0.1-0.7,0.6-0.9,1v3.1l0,0
	c0.4,0.3,0.9,0.1,1.3,0.1c0.1,0,0.1,0.1,0.2,0.2c0,0.1,0,0.2-0.1,0.3C454.8,445.2,454.4,445.4,454.1,445.7z M451.7,445.3
	c-0.2-0.1-0.4-0.1-0.6-0.3c0-0.1-0.1-0.2,0-0.3c0-0.1,0.2-0.2,0.3-0.2c0.4,0.1,0.9,0.2,1.2-0.1v-3.1c-0.1-0.3-0.2-0.6-0.5-0.8
	c-0.4-0.2-0.9-0.3-1.4-0.2c-0.3,0.1-0.4,0.6-0.8,0.5c-0.1,0-0.2-0.1-0.2-0.2c-0.1-0.1,0-0.3,0.1-0.4c0.5-0.6,1.3-0.8,2.1-0.5
	c0.1,0.1,0.3,0.1,0.5,0.2l0.2-0.3v-2.2c-0.1-0.4-0.5-0.6-0.8-0.8c-0.1-0.1-0.4-0.1-0.6-0.1c-0.1,0-0.2-0.2-0.2-0.3
	c0-0.1,0.1-0.2,0.2-0.3c0.5-0.2,0.9,0.2,1.2,0.5c0.1-0.1,0.1-0.1,0.1-0.2v-2.8c-0.1-0.3-0.2-0.6-0.5-0.8c-0.2-0.4-0.6-0.2-0.8-0.5
	c0-0.2,0-0.3,0.1-0.4c0.5-0.1,0.8,0.2,1.2,0.5V431c-0.4-0.7-1.1-1.1-1.9-1c-0.5,0.1-1.1,0.2-1.4,0.7c-0.2,0.4-0.3,0.9,0,1.3
	c0.1-0.1,0.2-0.1,0.4-0.2c0.3-0.1,0.7-0.2,1,0c0.1,0.1,0.1,0.2,0,0.3c0,0.1-0.1,0.1-0.2,0.2c-0.4,0-0.7,0.2-1,0.3
	c-0.6,0.4-1.1,1.1-1.1,1.8c0.1,0.4,0.1,0.8,0.4,1.1c0.2,0,0.4-0.2,0.6-0.3c0.3-0.1,0.7-0.3,1.1-0.2c0.1,0.1,0.2,0.2,0.2,0.4
	c0,0.1-0.1,0.2-0.2,0.2c-0.6,0-1.1,0.4-1.5,0.8c-0.4,0.5-0.6,1.4-0.3,2.1c0.1,0.1,0.1,0.3,0.3,0.4c0.2-0.2,0.5-0.3,0.8-0.2
	c0.1,0.1,0.2,0.2,0.2,0.3c0,0.1-0.1,0.2-0.2,0.2c-0.6,0.1-1.2,0.8-1.3,1.4c-0.1,0.7,0,1.6,0.5,2.2c0.1,0.1,0.3,0.1,0.5,0.1
	c0.4-0.2,0.8-0.3,1.2-0.2c0.4,0.2,0.8,0.2,1.1,0.5c0,0.1,0,0.3-0.1,0.4c-0.1,0-0.2,0.1-0.3,0c-0.4-0.1-0.8-0.4-1.3-0.3
	c-0.5,0.2-1,0.6-1.1,1.1c0,0.4,0.1,0.8,0.4,1c0.4,0.2,0.8,0.4,1.3,0.6c0.1,0.1,0.2,0.2,0.2,0.3c0,0.1-0.1,0.2-0.2,0.3
	c-0.2,0.2-0.4-0.1-0.5,0c-0.1,0-0.2,0-0.3-0.1c-0.2-0.4-0.7-0.4-1-0.7c-0.5-0.6-1.1-1.1-1.7-1.5c-0.5-0.2-1.1-0.2-1.6,0
	c-0.8,0.4-1.8,0.3-2.6,0.1c-0.3-0.1-0.6-0.3-0.9-0.6c-0.1,0.7-0.1,1.5-0.1,2.2c1,0.6,2.3,0.1,3.3-0.2c0.8-0.2,1.5,0.1,2.1,0.6
	c1.2,0.8,2.1,2.4,3.7,2.3h0.2c0.4-0.1,0.8,0.1,1.1-0.4c0.5-0.4,0.3-1.1,0.4-1.7C452.6,446.1,452.2,445.6,451.7,445.3z M459.8,434.7
	c-0.4-0.1-0.8,0.1-1.2,0.3c-0.4,0.2-0.5,0.8-0.6,1.2c0.2,0.4,0.3,0.7,0.3,1.2c0.1,0.2,0.3,0.4,0.4,0.5c0.1,0,0.1-0.2,0.2-0.2
	c0.3-0.4,0.6-0.8,1.1-1c0.1,0,0.2,0.1,0.3,0.2c0,0.1,0,0.2,0,0.3c-1,0.9-1.8,2-1.9,3.3c0,0.6,0.3,1.1,0.8,1.3c0.2,0,0.3,0.1,0.5,0
	c0.8,0,1.5-0.1,2.3-0.2c0.1-0.1,0.2-0.1,0.3-0.1c0.2-0.3,0.2-0.9,0.1-1.3c-0.3-0.3-0.7-0.2-1.1-0.2c-0.2,0-0.5,0.1-0.7-0.1
	c-0.1-0.1-0.1-0.2,0-0.3c-0.3-0.4,0.3-0.5,0.4-0.8c0.6-0.8,0.2-1.8-0.2-2.6c-0.2-0.5-0.9-0.4-1.2-0.8c0-0.1,0-0.2,0-0.3
	c0.2-0.3,0.4-0.1,0.6-0.1c0-0.6,0-1.3-0.4-1.8s-1.3-0.2-1.6-0.8c0-0.1,0-0.2,0.1-0.3c0.3-0.3,0.5,0.2,0.8,0.2
	c-0.3-0.3-0.7-0.6-1-0.9c-0.2,0.1-0.2,0.3-0.2,0.5c-0.1,0.8,0.2,1.6,0.9,2c0.4,0.2,0.8,0,1.1,0.3c0.1,0.1,0.1,0.2,0,0.3
	C460.1,434.6,459.9,434.6,459.8,434.7z M446,435.8c-0.8,0.2-0.9,1.1-1.1,1.8c-0.1,0.6,0.2,1.2,0.6,1.6c0.3,0.2,0.1,0.4,0.1,0.6
	c0,0.1-0.1,0.2-0.2,0.3c-0.5,0-1.1-0.1-1.5,0.1c-0.4,0.3-0.2,0.8-0.2,1.2c0,0.3,0.3,0.1,0.5,0.3c0.6,0,1.1,0.1,1.7,0.1
	c0.5,0,0.9,0.2,1.3-0.1c0.5-0.3,0.7-0.8,0.7-1.3c-0.1-1.3-0.9-2.3-1.9-3.2V437c0-0.1,0.1-0.2,0.2-0.3c0.1,0,0.2,0,0.3,0
	c0.4,0.4,0.8,0.7,1.1,1.2c0.2-0.1,0.3-0.3,0.4-0.5c0-0.4,0.2-0.8,0.3-1.1c0-0.3,0-0.5-0.1-0.7c-0.1-0.6-0.7-0.7-1.2-0.9
	c-0.3-0.1-0.6,0.1-0.7-0.1c-0.1-0.1-0.1-0.3,0-0.4s0.3-0.2,0.4-0.2c0.5,0,0.9-0.2,1.2-0.5c0.2-0.4,0.5-0.9,0.4-1.3
	c0-0.2,0-0.5-0.3-0.7c-0.3,0.3-0.7,0.6-1,0.9c0.2,0.1,0.3-0.2,0.5-0.3c0.1,0,0.2,0,0.3,0.1c0.1,0.1,0.1,0.1,0.1,0.2
	c0,0.2-0.2,0.4-0.4,0.5c-0.4,0.1-0.8,0.2-1.1,0.4c-0.5,0.5-0.5,1.1-0.5,1.8c0.2-0.1,0.4-0.2,0.6,0c0.1,0.1,0.1,0.2,0.1,0.3
	C446.4,435.7,446.2,435.7,446,435.8z M462,437.2c0.2-0.1,0.3-0.2,0.5-0.2c-0.4-0.9-0.9-1.7-1.4-2.5v1
	C461.7,435.9,461.8,436.6,462,437.2z M445.2,435.5v-1c-0.3,0.5-0.6,1-0.9,1.5c-0.1,0.3-0.4,0.7-0.5,1c0.2,0,0.4,0.1,0.5,0.2
	C444.5,436.6,444.7,435.9,445.2,435.5z M462.1,438.1c-0.1,0.5-0.3,0.9-0.6,1.2c0.4,0,0.8,0,1.1,0.2c0.2-0.2,0.5-0.4,0.8-0.4
	c-0.2-0.5-0.4-1-0.5-1.5C462.5,437.5,462.3,437.9,462.1,438.1z M443.8,439.6c0.3-0.2,0.7-0.2,1.1-0.2c-0.3-0.4-0.5-0.8-0.6-1.2
	c-0.1-0.2-0.3-0.4-0.5-0.5c-0.1-0.1-0.2,0-0.3,0c-0.2,0.5-0.4,1-0.5,1.5c0.2,0,0.3,0.1,0.5,0.2C443.6,439.4,443.6,439.5,443.8,439.6
	z M458.4,438.5L458.4,438.5c0-0.1-0.1-0.1-0.1-0.2c-0.1,0.3-0.2,0.6-0.4,0.8l0.2,0.2C458.2,439.1,458.3,438.8,458.4,438.5z
	 M447.9,438.5c0.1,0.3,0.3,0.6,0.4,0.9c0.1,0,0.1-0.1,0.2-0.2c-0.2-0.2-0.3-0.6-0.5-0.8L447.9,438.5z M463.3,441.4
	c0.2-0.1,0.5-0.3,0.6-0.5l-0.3-1.1h-0.1c-0.1,0-0.2,0.1-0.3,0.1C463.4,440.3,463.4,440.9,463.3,441.4z M443.1,441.4
	c-0.1-0.5-0.1-0.9,0.1-1.4c-0.1-0.1-0.3-0.2-0.4-0.2c-0.1,0.4-0.2,0.7-0.3,1.1C442.7,441.1,442.9,441.4,443.1,441.4z M458.4,441.8
	c-0.1,0.5-0.3,1-0.7,1.4c-0.1,0.2,0,0.3,0.1,0.4c0.2,0.2,0.7,0.2,1,0.2c0.5-0.3,1.1-0.4,1.8-0.3c0.8,0.4,1.8,0.5,2.7,0.3
	c0.4-0.2,0.8-0.6,1-1.1c-0.1-0.4-0.1-0.7-0.2-1.1c-1,0.8-2.6,0.6-3.9,0.8C459.5,442.5,458.8,442.3,458.4,441.8z M443.1,443.9
	c0.8,0.2,1.7,0.2,2.4-0.2c0.7-0.3,1.5-0.2,2.2,0.2c0.3,0,0.7,0,0.9-0.2c0.1-0.1,0.1-0.2,0.1-0.4c-0.4-0.4-0.7-0.9-0.8-1.4
	c-0.2,0.2-0.4,0.3-0.6,0.4c-0.4,0.2-0.9,0.2-1.3,0.1c-1.3-0.1-2.7,0-3.8-0.7l-0.2,1l0.1,0.2C442.4,443.3,442.7,443.6,443.1,443.9z
	 M463.9,447.7c0,0.1-0.1,0.2-0.2,0.2s-0.3,0-0.4-0.1c-0.1-0.3-0.2-0.8-0.6-0.9c-0.6-0.1-1.2-0.3-1.8-0.5c0.4,0.6,0.5,1.3,0.3,1.9
	c-0.2,0.4-0.2,0.8-0.5,1.1c-0.1,0.1-0.2,0-0.3,0c-0.1-0.1-0.2-0.2-0.2-0.3c0.2-0.6,0.5-1.2,0.4-1.9c-0.1-0.3-0.2-0.7-0.6-0.8
	c-1,0.6-1.8,1.4-2.7,2.2c0.2,0,0.3,0,0.5,0c0.5,0.2,0.9,0.7,1.1,1.2c0.3,0.5-0.1,1.3,0.5,1.6c0.7,0.1,1.3-0.3,1.9-0.6
	c0.7-0.6,1.4-1.2,2.2-1.6c1-0.5,0.9-1.6,1-2.6c-0.2,0.1-0.5,0.2-0.8,0.2C463.8,447.2,463.9,447.4,463.9,447.7z M441.9,446.8
	c0.1,0.8-0.1,1.9,0.8,2.5c0.7,0.5,1.5,0.9,2.1,1.5c0.6,0.4,1.2,0.8,2.1,0.8c0.2,0,0.2-0.2,0.3-0.3c0-0.6,0-1.3,0.4-1.8
	c0.3-0.5,0.8-0.9,1.4-0.8c-0.7-0.6-1.4-1.2-2.1-1.8c-0.2-0.1-0.4-0.4-0.7-0.4c-0.4,0.3-0.5,0.7-0.6,1.2c0,0.6,0.4,1,0.4,1.5
	c0,0.1-0.1,0.2-0.2,0.2s-0.3,0-0.3-0.1c-0.2-0.4-0.4-0.9-0.5-1.3c-0.1-0.6,0.1-1.2,0.3-1.6c-0.6,0.2-1.1,0.4-1.7,0.5l-0.2,0.1
	c-0.4,0.2-0.3,0.7-0.6,1c-0.2,0-0.3,0-0.4-0.1c-0.1-0.3,0.1-0.6,0.2-0.9C442.5,446.9,442.2,446.8,441.9,446.8z M454.2,449.2
	c-0.2,0-0.3,0.2-0.4,0.3v2.6c0.2,0.2,0.4,0.2,0.6,0.2s0.4,0,0.7,0.1c0.8,0,1.5-0.3,2.2-0.6c0.5-0.2,1-0.8,1.1-1.3s-0.3-1-0.7-1.2
	c-0.1-0.1-0.2,0.1-0.3,0.1c-0.1,0-0.2,0-0.3-0.1c-0.1-0.1-0.1-0.3,0-0.4C456.2,449.4,455.1,449.4,454.2,449.2z M452.2,449.2
	c-0.9,0.2-1.9,0.2-2.8-0.2v0.1c0,0.1,0.1,0.2-0.1,0.3c-0.1,0.1-0.2,0.1-0.3,0.1c-0.1,0-0.1-0.2-0.3-0.2c-0.3,0.1-0.6,0.5-0.8,0.8
	c-0.1,0.4-0.1,0.8,0.3,1.1c0.7,0.9,1.8,1.1,2.8,1.3c0.5,0,1.1,0,1.6-0.2v-2.6C452.6,449.4,452.4,449.3,452.2,449.2z M459.5,452.2
	c-0.4,0-0.7-0.3-0.9-0.6c-0.8,0.9-1.9,1.2-3,1.4c-0.6,0.1-1.3,0-1.9-0.1v1.1c0.1,0.3,0.4,0.5,0.7,0.6c1.1,0.1,2,0.7,3.1,0.4
	c0.8-0.1,1.1-0.9,1.6-1.3c0.1-0.1,0.2,0,0.3,0c0.1,0.1,0.1,0.1,0.1,0.2c0.8-0.2,1.5-0.8,2.2-1.4c0.3-0.2,0.4-0.6,0.6-0.8
	c0.1,0,0.3,0,0.4,0.1s0.1,0.2,0,0.3c-0.5,0.8-1.4,1.5-2.1,2c-0.5,0.2-1.1,0.5-1.7,0.5c-0.7,1-1.9,1.1-2.9,0.9
	c-0.8-0.3-1.6-0.3-2.3-0.7v1.9l0.1,0.1c0.2,0,0.4-0.1,0.6-0.1c1-0.2,2,0.1,3-0.1c1.1-0.2,1.8-1.1,2.9-1.4c1-0.1,1.8-0.6,2.5-1.3
	c0.6-1.2,1-2.5,1.3-3.9c0-0.3,0.1-0.5,0.1-0.8c-0.8,0.6-1.6,1-2.3,1.7C461.2,451.8,460.4,452.2,459.5,452.2z M443.7,452
	c0.1,0,0.2,0,0.3,0c0.7,1,1.7,1.8,2.8,2.1c0-0.1,0-0.2,0.1-0.2c0.1-0.1,0.2-0.1,0.3-0.1c0.4,0.2,0.6,0.5,0.9,0.8
	c0.7,0.6,1.6,0.6,2.4,0.4c0.7-0.4,1.8-0.1,2.2-0.9v-1.2c-0.5,0.1-1.1,0.2-1.7,0.2c-1.2-0.2-2.3-0.5-3.2-1.5l-0.3,0.3
	c-0.6,0.5-1.5,0.2-2.1-0.1c-0.7-0.3-1.2-0.8-1.8-1.3c-0.5-0.3-1-0.6-1.4-0.9c0.2,1.6,0.7,3.2,1.4,4.6c0.7,0.8,1.7,1.3,2.7,1.4
	c0.7,0.2,1.2,0.7,1.9,1.1c1.2,0.6,2.8-0.1,4,0.4c0.1,0,0.3,0.1,0.4,0v-1.9c-0.8,0.4-1.7,0.5-2.6,0.7c-1,0.1-2.1,0-2.7-0.9
	c-1.4-0.1-2.6-1-3.6-2c-0.1-0.2-0.3-0.4-0.3-0.7C443.6,452.1,443.7,452.1,443.7,452z M460.3,456.2c-0.5,0.2-1,0.6-1.6,0.9
	c-0.9,0.5-2,0.5-3,0.4c1.4,0.2,2.9,0.1,4.1-0.4c0.6-0.3,1.2-0.7,1.7-1.2c-0.1,0-0.2,0.1-0.3,0.1C461,456.1,460.7,456.2,460.3,456.2z
	 M447.6,457.1c-0.7-0.4-1.4-1-2.2-1L445,456c-0.1,0-0.1,0-0.2,0c1.5,1.5,3.7,2,5.9,1.6C449.6,457.7,448.4,457.7,447.6,457.1z"/>
<path class="st12" d="M393.8,444.3"/>
<path class="st12" d="M403.1,450.5"/>
<path class="st12" d="M408.6,462.6"/>
<line class="st10" x1="425.9" y1="458.4" x2="426.3" y2="461.2"/>
<path class="st12" d="M408.5,458"/>
<line class="st10" x1="424.9" y1="452.9" x2="425.1" y2="455.2"/>
<circle class="st11" cx="610.3" cy="546.2" r="25.7"/>
<path class="st12" d="M607.9,531.6c-3.3,0.9-4.5,3.1-0.5,3.6c2.5-0.9,3.1-1.2,5.6-0.1c4-0.9,2.9-1.4,0.3-3.6c1-0.6,2.3,0.3,4.4,1.8
	c1.6,1.1-5.4,3.8-6.1,3.7l0.1,1.9c3.2-0.1,8.5-0.3,6.9-3.7c0.1-2,1.6-0.3,1.1,2c-0.7,2.2-5.2,2.3-8.1,2.5c-0.2,0.4,0.2,1.2,0,1.6
	c3.2,0.5,7,1.4,9.4-1.7l0.1,1.3c-2.4,2.8-6.1,1.8-9.4,1.6c0,0.6,0,0.8,0.1,1.4c2.9,0.7,6.2,2.9,9.8-1.2l0.2,1.6
	c-3.1,3-6.9,1.7-10,0.7c0,0.3,0,0.9,0.1,1.3c2,1.5,7.2,4.7,10.2-0.3l0.1,1.6c-2.9,3-5.9,2-8.2,1.1l0.1,1.1c1.3,2.6,6.5,3.6,8.1-0.4
	v1.5c-0.8,1.7-3.6,2.5-5.9,1.9c0.1,1.7,3.4,3.7,5.9,0.4l0.1,1.7c-1.3,0.5-2.8,1-4.1,1.5c0.4,1.7,1.8,2,3.9-0.3c0,0.3,0.1,0.7,0.1,1
	c-0.7,0.7-1.8,1.2-2.5,2c-0.4,0.9,0.4,1.2,2.1,0.3c-0.2,0.4,0.3,0.4,0.1,0.6c-0.6,0.6-1.5,0.8-2.1,1.4c-2.7-5.3-4.3-8.6-8.1-12.1
	c-0.9,0.1-1.8,0-2.7,0.1c-3.2,3.3-6.2,6.9-7.6,12c-0.8-0.3-1.1-0.5-2.3-1.3c0.1-0.1-0.2-0.7,0-0.7c0.5,0.2,1.3,0.9,1.7,1
	c0.3,0,0.1-1,0.4-1c-1.1-1-2.1-1.5-2.7-2.2l-0.1-1c0.9,1,1.9,2,3.2,2.1c0.2-1,0.8-1.5,1-2.1c-2.4,0.3-3.5-0.6-4.3-1.7V553
	c1.4,1.7,2.2,2.5,5.2,1.4c0.1-0.4,1.2-1.7,1.3-2.1c-4.3,1.5-5.2-0.5-6.5-1.6v-1.4c1.1,1.5,4,4.6,8.1,0.7c0-0.3,0-1,0-1.3
	c-2.9,1.3-5.9,1.4-8.2-1.3l-0.1-1.3c3.9,4.6,7.6,2,10.7,0.2c-0.1-0.4,0-0.9,0-1.3c-4.5,2-7.8,0.8-10.3-0.7l-0.1-1.5
	c2.7,2.6,6.7,2.8,10.4,0.8c0-0.4,0-0.9-0.1-1.3c-4.8,1.2-7.7,0.1-9.6-1.7v-1.4c2.2,3,5.8,3,9.6,2c0-0.5-0.1-1-0.1-1.5
	c-3.8,0.4-7-0.4-8-2.4c-0.5-1.8,0-3.6,1.1-2.9c-1.5,2.8,0.9,5.2,6.9,4.4c0-0.3-0.1-1.5-0.1-1.8c-2.6-1-5.8-1.6-5.3-3.5
	C604.5,531.7,606,530.9,607.9,531.6L607.9,531.6z"/>
<g>
	<g>
		<path class="st10" d="M214.6,661.3c0.2-0.1,0.4-0.1,0.6,0c1,0.7,3.7,0.9,4.7,1c1,0,3.7-0.3,4.7-1c0.2-0.1,0.4-0.1,0.6,0
			c0.2,0.1,0.3,0.3,0.3,0.5l-0.8,7.7c0.6-0.4,1.3-0.7,2.1-0.7h0.1c0-2.1,0.5-6,3.4-9c2.6-2.7,3.7-6.1,2.8-8.8
			c-0.5-1.5-1.5-2.5-2.9-2.9s-3.1,0-4.8,1.2c-0.2,0.1-0.4,0.3-0.6,0.4c0.1,0.1,0.1,0.3,0.2,0.3c0.2,0.6,0.3,1.2-0.2,1.8
			c-0.4,0.6-1.4,0.6-2,0.3c-0.1,0-0.2-0.1-0.3-0.1c-0.6,0.8-1.1,1.7-1.4,2.5c1.3,0.5,2.2,1.9,2.2,3.5c0,2.1-3.3,3.7-3.3,3.7
			s-3.3-1.7-3.3-3.7c0-1.6,0.9-3,2.2-3.5c-0.3-0.9-0.8-1.7-1.4-2.5c-0.1,0.1-0.2,0.1-0.3,0.1c-0.6,0.3-1.6,0.3-2-0.3
			c-0.4-0.5-0.4-1.2-0.2-1.8c0-0.1,0.1-0.2,0.2-0.3c-0.2-0.2-0.4-0.3-0.6-0.4c-1.7-1.1-3.4-1.6-4.8-1.2c-1.4,0.4-2.4,1.4-2.9,2.9
			c-0.8,2.7,0.3,6.1,2.8,8.8c2.9,3,3.4,6.9,3.4,9h0.1c0.7,0,1.3,0.2,1.9,0.5l-0.8-7.5C214.3,661.6,214.4,661.4,214.6,661.3z"/>
		<path class="st12" d="M231.1,660.4c2.8-2.9,4-6.7,3.1-9.7c-0.6-1.8-1.9-3.1-3.7-3.6c-1.7-0.5-3.8,0-5.8,1.3c0,0-0.1,0-0.1,0.1
			c-0.4-0.7-1.2-1.1-2.1-0.9c-0.8,0.2-1.2,1.1-1,1.7c0,0.1,0,0.2,0.1,0.2c0,0,0,0,0,0.1s0,0.2,0.1,0.4c0.1,0.3,0.1,0.6,0.2,0.9
			c0,0,0,0.1,0.1,0.1c-0.8,1-1.5,2.1-1.9,3.2c-0.4-1.1-1.1-2.2-1.9-3.2c0,0,0-0.1,0.1-0.1c0.1-0.3,0.2-0.6,0.2-0.9
			c0-0.1,0-0.2,0.1-0.4c0-0.1,0-0.1,0-0.1c0-0.1,0-0.2,0.1-0.2c0.1-0.7-0.2-1.6-1-1.7c-0.9-0.2-1.8,0.2-2.1,0.9c0,0-0.1,0-0.1-0.1
			c-2-1.3-4.1-1.8-5.8-1.3c-1.8,0.5-3.1,1.8-3.7,3.6c-0.9,3,0.3,6.8,3.1,9.7c2.7,2.9,3.1,6.7,3.1,8.6c-1.6,0.6-2.7,2.3-2.7,4.3
			c0,2.5,1.8,4.5,3.9,4.5c0.4,0,0.8-0.1,1.2-0.2c0.2-1,0.7-1.9,1.3-2.3l-0.6-5.9c-0.6-0.3-1.2-0.5-1.9-0.5h-0.1c0-2.1-0.5-6-3.4-9
			c-2.6-2.7-3.7-6.1-2.8-8.8c0.5-1.5,1.5-2.5,2.9-2.9s3.1,0,4.8,1.2c0.2,0.1,0.4,0.3,0.6,0.4c-0.1,0.1-0.1,0.3-0.2,0.3
			c-0.2,0.6-0.3,1.2,0.2,1.8c0.4,0.6,1.4,0.6,2,0.3c0.1,0,0.2-0.1,0.3-0.1c0.6,0.8,1.1,1.7,1.4,2.5c-1.3,0.5-2.2,1.9-2.2,3.5
			c0,2.1,3.3,3.7,3.3,3.7s3.3-1.7,3.3-3.7c0-1.6-0.9-3-2.2-3.5c0.3-0.9,0.8-1.7,1.4-2.5c0.1,0.1,0.2,0.1,0.3,0.1
			c0.6,0.3,1.6,0.3,2-0.3c0.4-0.5,0.4-1.2,0.2-1.8c0-0.1-0.1-0.2-0.2-0.3c0.2-0.2,0.4-0.3,0.6-0.4c1.7-1.1,3.4-1.6,4.8-1.2
			c1.4,0.4,2.4,1.4,2.9,2.9c0.8,2.7-0.3,6.1-2.8,8.8c-2.9,3-3.4,6.9-3.4,9H227c-0.8,0-1.5,0.3-2.1,0.7l-0.6,5.7
			c0.5,0.5,1.1,1.3,1.3,2.3c0.4,0.2,0.9,0.3,1.4,0.3c2.2,0,3.9-2,3.9-4.5c0-2-1.1-3.7-2.7-4.3C228,667,228.4,663.2,231.1,660.4z"/>
		<path class="st12" d="M223.1,675.8c-0.1-0.1-0.2-0.3-0.2-0.4l1.4-12.7c-1.4,0.5-3.2,0.6-4,0.7v14.1c0,0.3-0.3,0.5-0.6,0.5
			s-0.6-0.2-0.6-0.5v-14.1c-0.9-0.1-2.4-0.2-3.6-0.7l1.4,12.7c0,0.2-0.1,0.3-0.2,0.4c-0.1,0.1-2.2,1.7-0.5,4.2
			c1.5,2.2,2.5,2.6,3.7,2.6c1.1,0,2.2-0.4,3.7-2.6C225.3,677.5,223.2,675.8,223.1,675.8z"/>
	</g>
</g>
<g>
	<path class="st13" d="M604.2,402c-13.1,0-23.8,10.8-23.8,24s10.7,24,23.8,24s23.8-10.8,23.8-24S617.3,402,604.2,402z"/>
</g>
<g>
	<g>
		<path class="st15" d="M595,436.5c-0.4-0.3-0.9-0.7-1.2-1.2c-0.2-0.3-0.3-0.5-0.3-0.8v-0.2v-0.2c0-0.1,0-0.2,0-0.3v-0.2
			c0.1-0.6,0.4-1.3,0.8-2c0.4-0.7,1-1.4,1.5-2.1s1.1-1.5,1.6-2.4c0.2-0.4,0.4-0.9,0.6-1.4c0.1-0.2,0.2-0.5,0.2-0.8l0.1-0.3
			c0-0.2,0-0.2,0.1-0.4c0.2-0.9,0.3-1.8,0.5-2.7c0.1-0.9,0.3-1.7,0.3-2.5c0.1-0.8,0.2-1.6,0.2-2.2c0.1-0.7,0.1-1.3,0.1-1.9
			s0-1.1,0-1.5c0-0.8,0-1.3,0-1.3s-0.1,0.5-0.3,1.2c-0.2,0.8-0.5,1.9-0.8,3.3c-0.2,0.7-0.4,1.4-0.5,2.2c-0.2,0.8-0.4,1.6-0.6,2.4
			c-0.2,0.8-0.4,1.7-0.6,2.6l-0.1,0.3l-0.1,0.3c-0.1,0.2-0.1,0.4-0.2,0.6c-0.1,0.4-0.3,0.8-0.5,1.1c-0.4,0.8-0.9,1.5-1.4,2.3
			s-1,1.5-1.4,2.3s-0.8,1.7-0.8,2.7v0.4c0,0.2,0,0.2,0,0.3c0,0.3,0.1,0.5,0.2,0.7c0.2,0.4,0.4,0.8,0.7,1.1c0.5,0.6,1.1,1,1.7,1.2
			c0.5,0.2,1,0.4,1.4,0.5c0.8,0.2,1.3,0.2,1.3,0.2s-0.4-0.2-1.2-0.5C595.9,437.1,595.5,436.8,595,436.5z"/>
	</g>
	<g>
		<path class="st15" d="M615.5,430.8c-0.4-0.8-0.9-1.6-1.4-2.3c-0.5-0.8-1-1.5-1.4-2.3c-0.2-0.4-0.4-0.8-0.5-1.1
			c-0.1-0.2-0.1-0.4-0.2-0.6l-0.1-0.3l-0.1-0.3c-0.2-0.9-0.4-1.8-0.6-2.6c-0.2-0.8-0.4-1.6-0.6-2.4c-0.2-0.8-0.4-1.5-0.5-2.2
			c-0.3-1.3-0.6-2.5-0.8-3.3s-0.3-1.2-0.3-1.2s0,0.5,0,1.3c0,0.4,0,0.9,0,1.5s0,1.2,0.1,1.9c0.1,0.7,0.1,1.5,0.2,2.2
			c0.1,0.8,0.2,1.6,0.3,2.5s0.3,1.8,0.5,2.7c0,0.1,0,0.2,0.1,0.4l0.1,0.3c0.1,0.3,0.2,0.5,0.2,0.8c0.2,0.5,0.4,0.9,0.6,1.4
			c0.5,0.9,1,1.7,1.6,2.4c0.5,0.7,1.1,1.4,1.5,2.1s0.7,1.4,0.8,2v0.2c0,0,0,0.2,0,0.3v0.2v0.2c-0.1,0.3-0.2,0.6-0.3,0.8
			c-0.3,0.5-0.8,0.9-1.2,1.2c-0.4,0.3-0.9,0.6-1.2,0.7c-0.7,0.4-1.2,0.5-1.2,0.5s0.5,0,1.3-0.2c0.4-0.1,0.9-0.2,1.4-0.5
			c0.5-0.2,1.2-0.6,1.7-1.2c0.3-0.3,0.5-0.7,0.7-1.1c0.1-0.2,0.1-0.4,0.2-0.7c0-0.1,0-0.2,0-0.3v-0.4
			C616.2,432.5,615.9,431.6,615.5,430.8z"/>
	</g>
	<g>
		<path class="st15" d="M611.9,434.8c0.1,0,0.3,0.1,0.4,0.1c0.2,0,0.3,0.1,0.3,0.1s-0.1-0.1-0.2-0.3c-0.1-0.1-0.2-0.2-0.3-0.3
			c-0.1-0.1-0.3-0.2-0.5-0.3c-0.2-0.1-0.4-0.1-0.7-0.2c-0.1,0-0.3,0-0.4,0c-0.1,0-0.3,0-0.4,0.1c-0.3,0.1-0.5,0.2-0.8,0.4
			c-0.2,0.2-0.4,0.4-0.6,0.6c-0.4,0.4-0.6,0.8-0.8,1.2c-0.1,0.2-0.2,0.4-0.3,0.5c-0.1,0.2-0.2,0.3-0.3,0.5c-0.1,0.1-0.2,0.3-0.3,0.3
			c-0.1,0.1-0.2,0.2-0.3,0.2c-0.2,0.1-0.3,0.2-0.3,0.2s0.1,0,0.4,0.1c0.1,0,0.3,0,0.4-0.1c0.2,0,0.3-0.1,0.5-0.2s0.4-0.2,0.5-0.4
			c0.2-0.1,0.3-0.3,0.5-0.5c0.3-0.3,0.6-0.7,0.9-1c0.1-0.2,0.3-0.3,0.4-0.4c0.1-0.1,0.1-0.1,0.2-0.2c0.1-0.1,0.1-0.1,0.2-0.1
			c0.1-0.1,0.1-0.1,0.2-0.1c0.1,0,0.1-0.1,0.2-0.1c0.2,0,0.3-0.1,0.5,0C611.6,434.8,611.7,434.8,611.9,434.8z"/>
	</g>
	<g>
		<path class="st15" d="M601.1,437.4c-0.1-0.1-0.2-0.2-0.3-0.3c-0.1-0.1-0.2-0.3-0.3-0.5s-0.2-0.3-0.3-0.5c-0.2-0.4-0.5-0.8-0.8-1.2
			c-0.2-0.2-0.4-0.4-0.6-0.6c-0.2-0.2-0.5-0.3-0.8-0.4c-0.1-0.1-0.3-0.1-0.4-0.1c-0.1,0-0.3,0-0.4,0c-0.2,0.1-0.5,0.1-0.7,0.2
			s-0.3,0.2-0.5,0.3c-0.1,0.1-0.2,0.2-0.3,0.3c-0.1,0.2-0.2,0.3-0.2,0.3s0.1,0,0.3-0.1c0.1,0,0.2,0,0.4-0.1c0.1,0,0.3,0,0.4,0
			c0.1,0,0.3,0,0.5,0c0.1,0,0.1,0.1,0.2,0.1c0.1,0,0.1,0,0.2,0.1c0.1,0,0.1,0.1,0.2,0.1c0.1,0.1,0.1,0.1,0.2,0.2
			c0.1,0.1,0.3,0.3,0.4,0.4c0.3,0.3,0.6,0.7,0.9,1c0.2,0.2,0.3,0.3,0.5,0.5s0.4,0.3,0.5,0.4c0.2,0.1,0.3,0.2,0.5,0.2
			s0.3,0.1,0.4,0.1c0.2,0,0.4-0.1,0.4-0.1s-0.1-0.1-0.3-0.2C601.3,437.6,601.2,437.5,601.1,437.4z"/>
	</g>
</g>
<path class="st11" d="M534,691.2c0,12.9-9.9,23.5-22.5,24.5c-0.7,0.1-1.4,0.1-2.1,0.1c-13.6,0-24.6-11-24.6-24.6
	c0-0.7,0-1.4,0.1-2.1c1.1-12.6,11.6-22.5,24.5-22.5c0.6,0,1.2,0,1.8,0.1c12.1,0.9,21.8,10.6,22.7,22.7C534,690,534,690.6,534,691.2z
	"/>
<g>
	<g>
		<path class="st10" d="M515.5,685.1c-0.2,0.4-0.4,0.8-0.6,1.3L515.5,685.1z"/>
		<path class="st10" d="M518.9,684c-0.1,0.1-0.2,0.1-0.3,0.1c-0.2,0-0.3-0.1-0.4-0.2c-0.2-0.3-0.1-0.6,0.1-0.8
			c0.1-0.1,0.3-0.2,0.4-0.4c-1.1,0.3-2.2,1-3,2.2c0.1,0.2,1.6,2.7,2.6,3.8c1,1.2,3.2,0.8,4.2,1.4c0.3,0.2,0.6,0.7,1,1.2
			c0-0.2,0-0.4,0.2-0.5c0.2-0.2,0.6-0.2,0.8,0c0,0,0.4,0.5,0.7,1.2c0.4-0.2,0.8-0.7,1.2-1.5c1.5-2.6,1.3-6-1.2-7
			c-1.1-0.5-3-1.1-4.9-1C519.8,683,519.4,683.5,518.9,684z"/>
		<path class="st10" d="M503.8,686.4c-0.2-0.5-0.4-0.9-0.6-1.3L503.8,686.4z"/>
		<path class="st10" d="M493.7,683.5c-2.5,1.1-2.7,4.5-1.2,7c0.5,0.8,0.9,1.3,1.2,1.5c0.3-0.7,0.7-1.2,0.7-1.2
			c0.2-0.2,0.6-0.3,0.8,0c0.2,0.1,0.2,0.4,0.2,0.5c0.3-0.5,0.6-1,1-1.2c1-0.6,3.2-0.2,4.2-1.4c0.9-1.2,2.4-3.6,2.6-3.8
			c-0.8-1.2-1.9-1.9-3-2.2c0.1,0.1,0.2,0.2,0.4,0.4c0.2,0.2,0.3,0.6,0.1,0.8c-0.1,0.1-0.3,0.2-0.4,0.2s-0.2,0-0.3-0.1
			c-0.6-0.5-0.9-1-1.2-1.5C496.6,682.4,494.7,683.1,493.7,683.5z"/>
		<path class="st12" d="M519.2,679.9c-0.1-0.6-0.4-1.1-0.5-1.2h-0.1c-2.1,0-4.6-2.5-9.3-2.5s-7.2,2.5-9.3,2.5h-0.1
			c-0.1,0.2-0.3,0.6-0.5,1.2H519.2z"/>
		<path class="st12" d="M507.2,701.2c-0.6-1.2-0.7-1.7-0.5-2c0.1-0.1,0.2-0.3,0.6-0.3c0.1,0,0.2,0,0.3,0c0.2,0,0.3,0,0.4,0
			c0.3-0.6-0.3-5.1-1.6-6.7c-1-1.1-0.9-3.7-0.9-6c0-1.3,0.1-2.5-0.1-3.2c-0.3-1.1-3.6-2-6.1-2.4c0,0.7,0.2,1.4,0.7,2
			c1.1,0.3,2.2,1,3,2.2c-0.1,0.2-1.6,2.7-2.6,3.8c-1,1.2-3.2,0.8-4.2,1.4c-0.3,0.2-0.6,0.7-1,1.2c0,0.1-0.1,0.2-0.1,0.3
			c0,0-1.1,1.3-0.9,2.8c0.1,0.8,0.6,1.5,1.5,2.2l0,0c1.2,0.3,2.4,0.2,3.5-0.8c3-2.6,2.4-7.8,4.6-9c0.2,0.7,0.4,1.4,0.5,2.3
			c0.6,4.1,1.3,9,1.3,9s-0.7,2.1,1.5,5.6v3.3h1.1C508.4,705.3,508.3,703.4,507.2,701.2z M503.2,685.1c0.2,0.4,0.4,0.8,0.6,1.3
			L503.2,685.1z"/>
		<path class="st12" d="M493.7,692.1c-0.4-0.2-0.8-0.7-1.2-1.5c-1.5-2.6-1.3-6,1.2-7c1.1-0.5,3-1.1,4.9-1c-0.6-1.3-0.4-2.7,0.1-3.7
			c-2.9,0.4-8.2,2.2-9.1,6.7c-1,4.7,2,8.2,3.9,9.8c-0.1-0.2-0.1-0.4-0.1-0.7C493.1,693.6,493.4,692.8,493.7,692.1z"/>
		<path class="st12" d="M524.3,694.4c0.2-1.4-0.9-2.8-0.9-2.8c-0.1-0.1-0.1-0.2-0.1-0.3c-0.3-0.5-0.6-1-1-1.2
			c-1-0.6-3.2-0.2-4.2-1.4c-0.9-1.2-2.4-3.6-2.6-3.8c0.8-1.2,1.9-1.9,3-2.2c0.6-0.6,0.7-1.3,0.7-2c-2.5,0.4-5.9,1.3-6.2,2.4
			c-0.2,0.7-0.1,1.9-0.1,3.2c0.1,2.2,0.1,4.8-0.9,5.9c-1.3,1.5-1.9,6.1-1.7,6.7c0.1,0,0.3,0,0.4,0s0.2,0,0.3,0
			c0.3,0,0.5,0.2,0.5,0.3c0.2,0.3,0,0.9-0.6,2c-1.1,2.2-1.3,4-1.4,5.9h1.5v-3.3c2.2-3.5,1.5-5.6,1.5-5.6s0.7-4.9,1.3-9
			c0.1-0.9,0.3-1.6,0.5-2.3c2.3,1.2,1.6,6.3,4.6,9c1.1,1,2.3,1.1,3.5,0.8l0,0C523.7,696,524.2,695.3,524.3,694.4z M514.9,686.4
			c0.2-0.5,0.4-0.9,0.6-1.3L514.9,686.4z"/>
		<path class="st12" d="M529.2,685.5c-1-4.6-6.2-6.3-9.1-6.7c0.4,1,0.6,2.4,0.1,3.7c1.9-0.1,3.8,0.6,4.9,1c2.5,1.1,2.7,4.5,1.2,7
			c-0.5,0.8-0.9,1.3-1.2,1.5c0.3,0.7,0.6,1.5,0.5,2.5c0,0.2-0.1,0.4-0.1,0.7C527.1,693.7,530.2,690.2,529.2,685.5z"/>
	</g>
</g>
<ellipse class="st3" cx="421.2" cy="499" rx="25.2" ry="26"/>
<path class="st12" d="M409.6,500c0,0.8-0.7,1.4-1.5,1.4s-1.5-0.6-1.5-1.4s1-2.1,1.8-2.1C409.2,498,409.6,499.3,409.6,500z"/>
<path class="st12" d="M433.3,500c0,0.8-0.7,1.4-1.5,1.4s-1.5-0.6-1.5-1.4s0.4-2.1,1.2-2.1C432.3,498,433.3,499.3,433.3,500z"/>
<g>
	<path class="st12" d="M440.8,491.5c-0.3-0.2-0.7-0.1-0.7-0.1c-0.4,0.2-0.3,0.6-0.3,0.8c0,0,0,0,0.1,0c0.6,1.2,1,2.6,1,4.1
		c0,5.2-4.2,9.4-9.5,9.5c-4.4,0-8.1-3-9.1-7.1c-0.1-0.2-0.3-0.4-0.5-0.4c-0.3,0-0.5,0.2-0.5,0.4c-1.3,5.2-4.2,7.1-9.1,7.1
		c-5.2,0-9.4-4.2-9.5-9.5c0-2.2,0.7-4.2,2-5.7c0.1-0.3,0-0.5-0.2-0.6l-0.2,0.3l0.2-0.3c-0.1-0.1-0.2-0.1-0.2-0.1
		c-0.2-0.1-0.4,0-0.6,0.2c-1.3,1.8-2.1,3.9-2.1,6.3c0,5.8,4.7,10.6,10.6,10.6c4.3,0,8.1-2.6,9.7-6.4c1.6,3.7,5.3,6.4,9.7,6.4
		c5.8,0,10.6-4.7,10.6-10.6C442,494.6,441.6,492.9,440.8,491.5z"/>
</g>
<text transform="matrix(1 0 0 1 14.6021 162.9459)" class="st8 st5">最低致死率标准下</text>
<text transform="matrix(1 0 0 1 14.6021 188.146)" class="st8 st5">的治疗费用/$</text>
<text transform="matrix(1 0 0 1 865.3145 744.3105)" class="st8 st5">平均死亡率/%</text>
<line class="st6" x1="865" y1="737.3" x2="865" y2="202.9"/>
<line class="st6" x1="106" y1="203.3" x2="864.6" y2="203.3"/>
<path class="st1" d="M281.2,340c-13.9,0-25.2-11.3-25.2-25.2c0-13.9,11.3-25.2,25.2-25.2c13.9,0,25.2,11.3,25.2,25.2
	C306.4,328.7,295.1,340,281.2,340"/>
<path class="st12" d="M268.5,327c2.2,2.1,7.5-7,13.5-7s10.6,8.1,12.9,6c2.4-2.3,2.7-7.6,2.7-7.7c0.5-5.4-2.3-20.1-8.6-13.3
	c-1.5,1.7-2,9-7,9c-6,0-6-8.8-8-10c-8.1-5.1-8,10-8,15C266,319.1,266.1,324.7,268.5,327z"/>
<circle class="st11" cx="552.3" cy="506.2" r="25.7"/>
<path class="st16" d="M547.2,519.7"/>
<path class="st12" d="M548.6,521.8l-0.6-4.3l-0.9-1.1L546,515h-3.7l-1.7-0.9v-2.2l-0.7-0.7c0-0.5,0.5-1.3,0.5-1.3l-1.2-0.7l0.6-2.5
	l-2.5-0.8c5-5.2,0.6-10,7.2-14.6c1.3-0.7,2.4-1.4,3.5-1.6l1.7-0.2c4.6-0.7,9.4,0,13.5,4.8c2.4,3.6,2,7.1,0.9,10.5
	c-2.6,3.4-4.2,6.4-4.2,9.5v1.1l0.9,6.6c0,0-3.4-0.1-8-0.2H549L548.6,521.8L548.6,521.8z"/>
<path class="st11" d="M542.9,505.9l2,0.3l11.9-0.2l0.2,11h-2c0,0,0.7-8.9-1-9l-11.2,0.2l0.1-1.8V505.9z"/>
<path class="st17" d="M748.9,585.3"/>
<path class="st17" d="M745.8,584.4"/>
<path class="st17" d="M740.7,578"/>
<path class="st17" d="M743.3,581.8h-0.9"/>
<line class="st10" x1="793" y1="571.9" x2="792.2" y2="571.5"/>
<path class="st17" d="M793.9,568.1"/>
<line class="st10" x1="775.8" y1="554.8" x2="778" y2="554.4"/>
<path class="st11" d="M691.5,709.3c0,1.1-0.1,2.2-0.2,3.3c-1.6,11.5-11.5,20.4-23.5,20.4c-1.1,0-2.1-0.1-3.1-0.2
	c-10.6-1.4-19-9.8-20.4-20.4c-0.1-1-0.2-2.1-0.2-3.1c0-1.9,0.2-3.8,0.7-5.6c2.1-8.6,8.8-15.3,17.4-17.4c0.8-0.2,1.6-0.3,2.4-0.4
	c1.1-0.2,2.2-0.2,3.3-0.2C680.9,685.6,691.5,696.2,691.5,709.3z"/>
<g>
	<path class="st18" d="M673,698.5c0,0-4.9-4.3-9.9,0.3c0,0-1.7-6.3,4.9-6.3C674.1,692.4,673,698.5,673,698.5z"/>
	<path class="st18" d="M670,713c0,0,3.9-7.2,4-7.7c0.2-0.6,1.2-3-0.1-7.2c-1.2-4.2-2.9-4.9-2.9-4.9c2.7,1.8,1,5.3-0.2,7.5
		c-0.2,0.4-0.5,0.8-0.7,1.2c-1.1,1.8-11.1,19.7-11.1,19.7l2.4,0.6l0.5,4L670,713z"/>
	<path class="st19" d="M668,705.8c-1,1.7-2.1,3.7-3.2,5.7c0.5,0.9,0.8,1.6,0.9,1.6l2.1,3.5l2.2-3.6c0,0,0.5-0.9,1.1-2.1
		C669.9,709.2,668.9,707.4,668,705.8z"/>
	<path class="st18" d="M665.9,713c0,0-3.9-7.2-4-7.7c-0.2-0.6-1.2-3,0.1-7.2c1.2-4.2,2.9-4.9,2.9-4.9c-2.7,1.8-1,5.3,0.2,7.5
		c0.2,0.4,0.5,0.8,0.7,1.2c1.1,1.8,11.4,19.3,11.4,19.3l-2.5,0.7l-0.7,4.2L665.9,713z"/>
</g>
<path class="st12" d="M397.4,402c-0.9,0-1.7,0.7-1.7,1.7c0,0.9,0.8,1.7,1.7,1.7c0.9,0,1.7-0.7,1.7-1.7
	C399.2,402.7,398.4,402,397.4,402L397.4,402z"/>
<path class="st12" d="M397.4,389.4c-0.9,0-1.7,0.7-1.7,1.7c0,0.9,0.8,1.7,1.7,1.7c0.9,0,1.7-0.7,1.7-1.7
	C399.2,390.1,398.4,389.4,397.4,389.4L397.4,389.4z"/>
<path class="st12" d="M397.4,405.9c-0.6,0-1.1,0.5-1.1,1c0,0.6,0.5,1,1.1,1s1.1-0.5,1.1-1C398.5,406.3,398,405.9,397.4,405.9
	L397.4,405.9z"/>
<path class="st12" d="M402.9,396.3c-0.6,0-1.1,0.5-1.1,1c0,0.6,0.5,1,1.1,1s1.1-0.5,1.1-1C403.9,396.8,403.4,396.3,402.9,396.3
	L402.9,396.3z"/>
<path class="st12" d="M402.9,415.6c-0.6,0-1.1,0.5-1.1,1c0,0.6,0.5,1,1.1,1s1.1-0.5,1.1-1C403.9,416,403.4,415.6,402.9,415.6
	L402.9,415.6z"/>
<path class="st12" d="M386.7,405.9c-0.6,0-1.1,0.5-1.1,1c0,0.6,0.5,1,1.1,1s1.1-0.5,1.1-1C387.8,406.3,387.3,405.9,386.7,405.9
	L386.7,405.9z"/>
<path class="st12" d="M392.1,396.3c-0.6,0-1.1,0.5-1.1,1c0,0.6,0.5,1,1.1,1s1.1-0.5,1.1-1S392.7,396.3,392.1,396.3L392.1,396.3z"/>
<path class="st12" d="M392.1,415.6c-0.6,0-1.1,0.5-1.1,1c0,0.6,0.5,1,1.1,1s1.1-0.5,1.1-1C393.2,416,392.7,415.6,392.1,415.6
	L392.1,415.6z"/>
<path class="st12" d="M389.4,410.7c-0.6,0-1.1,0.5-1.1,1c0,0.6,0.5,1,1.1,1s1.1-0.5,1.1-1C390.4,411.1,389.9,410.7,389.4,410.7
	L389.4,410.7z"/>
<path class="st12" d="M394.8,410.7c-0.6,0-1.1,0.5-1.1,1c0,0.6,0.5,1,1.1,1s1.1-0.5,1.1-1C395.8,411.1,395.4,410.7,394.8,410.7
	L394.8,410.7z"/>
<path class="st12" d="M394.7,420.2c-0.6,0-1.1,0.5-1.1,1c0,0.6,0.5,1,1.1,1s1.1-0.5,1.1-1C395.8,420.6,395.3,420.2,394.7,420.2
	L394.7,420.2z"/>
<path class="st12" d="M400.2,420.3c-0.6,0-1.1,0.5-1.1,1c0,0.6,0.5,1,1.1,1s1.1-0.5,1.1-1C401.2,420.7,400.8,420.3,400.2,420.3
	L400.2,420.3z"/>
<path class="st12" d="M400,410.7c-0.6,0-1.1,0.5-1.1,1c0,0.6,0.5,1,1.1,1s1.1-0.5,1.1-1C401.1,411.1,400.6,410.7,400,410.7
	L400,410.7z"/>
<path class="st12" d="M400.2,401.1c-0.6,0-1.1,0.5-1.1,1c0,0.6,0.5,1,1.1,1s1.1-0.5,1.1-1C401.2,401.6,400.8,401.1,400.2,401.1
	L400.2,401.1z"/>
<path class="st12" d="M394.7,401.1c-0.6,0-1.1,0.5-1.1,1c0,0.6,0.5,1,1.1,1s1.1-0.5,1.1-1C395.8,401.6,395.3,401.1,394.7,401.1
	L394.7,401.1z"/>
<path class="st12" d="M389.4,401c-0.6,0-1.1,0.5-1.1,1c0,0.6,0.5,1,1.1,1s1.1-0.5,1.1-1C390.4,401.5,389.9,401,389.4,401L389.4,401z
	"/>
<path class="st12" d="M394.8,391.6c-0.6,0-1.1,0.5-1.1,1c0,0.6,0.5,1,1.1,1s1.1-0.5,1.1-1C395.8,392,395.4,391.6,394.8,391.6
	L394.8,391.6z"/>
<path class="st12" d="M400,391.6c-0.6,0-1.1,0.5-1.1,1c0,0.6,0.5,1,1.1,1s1.1-0.5,1.1-1S400.6,391.6,400,391.6L400,391.6z"/>
<path class="st12" d="M397.4,424.5c-0.6,0-1.1,0.5-1.1,1c0,0.6,0.5,1,1.1,1s1.1-0.5,1.1-1S398,424.5,397.4,424.5L397.4,424.5z"/>
<path class="st12" d="M397.4,384.5c-0.6,0-1.1,0.5-1.1,1c0,0.6,0.5,1,1.1,1s1.1-0.5,1.1-1S398,384.5,397.4,384.5L397.4,384.5z"/>
<path class="st12" d="M386.2,390.8c-0.3,0.5-0.1,1.1,0.4,1.4s1.2,0.1,1.4-0.4c0.3-0.5,0.1-1.1-0.4-1.4
	C387.2,390.1,386.5,390.3,386.2,390.8L386.2,390.8z"/>
<path class="st12" d="M380.8,400.4c-0.3,0.5-0.1,1.1,0.4,1.4s1.2,0.1,1.4-0.4c0.3-0.5,0.1-1.1-0.4-1.4
	C381.8,399.7,381.1,399.9,380.8,400.4L380.8,400.4z"/>
<path class="st12" d="M404.7,401.7c-0.3,0.5-0.1,1.1,0.4,1.4s1.2,0.1,1.4-0.4c0.3-0.5,0.1-1.1-0.4-1.4
	C405.6,401,405,401.2,404.7,401.7L404.7,401.7z"/>
<path class="st12" d="M404.8,420.9c-0.3,0.5-0.1,1.1,0.4,1.4s1.2,0.1,1.4-0.4c0.3-0.5,0.1-1.1-0.4-1.4
	C405.8,420.2,405.1,420.4,404.8,420.9L404.8,420.9z"/>
<path class="st12" d="M386.1,423.1c-0.3-0.5-0.1-1.1,0.4-1.4s1.2-0.1,1.4,0.4c0.3,0.5,0.1,1.1-0.4,1.4S386.4,423.6,386.1,423.1
	L386.1,423.1z"/>
<path class="st12" d="M380.8,413.4c-0.3-0.5-0.1-1.1,0.4-1.4s1.2-0.1,1.4,0.4c0.3,0.5,0.1,1.1-0.4,1.4
	C381.8,414.1,381.1,413.9,380.8,413.4L380.8,413.4z"/>
<path class="st12" d="M404.8,412.1c-0.3-0.5-0.1-1.1,0.4-1.4s1.2-0.1,1.4,0.4c0.3,0.5,0.1,1.1-0.4,1.4
	C405.7,412.8,405.1,412.6,404.8,412.1L404.8,412.1z"/>
<path class="st12" d="M404.8,393c-0.3-0.5-0.1-1.1,0.4-1.4s1.2-0.1,1.4,0.4c0.3,0.5,0.1,1.1-0.4,1.4
	C405.7,393.6,405.1,393.5,404.8,393L404.8,393z"/>
<path class="st12" d="M397.4,426.9c-0.6,0-1.1,0.5-1.1,1c0,0.6,0.5,1,1.1,1s1.1-0.5,1.1-1S398,426.9,397.4,426.9L397.4,426.9z"/>
<path class="st12" d="M397.4,386.9c-0.6,0-1.1,0.5-1.1,1c0,0.6,0.5,1,1.1,1s1.1-0.5,1.1-1S398,386.9,397.4,386.9L397.4,386.9z"/>
<path class="st12" d="M388.4,392c-0.3,0.5-0.1,1.1,0.4,1.4s1.2,0.1,1.4-0.4c0.3-0.5,0.1-1.1-0.4-1.4
	C389.4,391.4,388.7,391.5,388.4,392L388.4,392z"/>
<path class="st12" d="M383,401.6c-0.3,0.5-0.1,1.1,0.4,1.4s1.2,0.1,1.4-0.4c0.3-0.5,0.1-1.1-0.4-1.4
	C384,400.9,383.3,401.1,383,401.6L383,401.6z"/>
<path class="st12" d="M406.9,402.9c-0.3,0.5-0.1,1.1,0.4,1.4s1.2,0.1,1.4-0.4c0.3-0.5,0.1-1.1-0.4-1.4S407.2,402.4,406.9,402.9
	L406.9,402.9z"/>
<path class="st12" d="M407,422.1c-0.3,0.5-0.1,1.1,0.4,1.4s1.2,0.1,1.4-0.4c0.3-0.5,0.1-1.1-0.4-1.4
	C408,421.4,407.3,421.6,407,422.1L407,422.1z"/>
<path class="st12" d="M388.3,421.9c-0.3-0.5-0.1-1.1,0.4-1.4s1.2-0.1,1.4,0.4s0.1,1.1-0.4,1.4C389.2,422.6,388.6,422.4,388.3,421.9
	L388.3,421.9z"/>
<path class="st12" d="M383,412.2c-0.3-0.5-0.1-1.1,0.4-1.4s1.2-0.1,1.4,0.4c0.3,0.5,0.1,1.1-0.4,1.4
	C384,412.8,383.3,412.7,383,412.2L383,412.2z"/>
<path class="st12" d="M407,410.9c-0.3-0.5-0.1-1.1,0.4-1.4s1.2-0.1,1.4,0.4c0.3,0.5,0.1,1.1-0.4,1.4
	C407.9,411.6,407.2,411.4,407,410.9L407,410.9z"/>
<path class="st12" d="M407,391.8c-0.3-0.5-0.1-1.1,0.4-1.4s1.2-0.1,1.4,0.4c0.3,0.5,0.1,1.1-0.4,1.4
	C407.9,392.4,407.2,392.2,407,391.8L407,391.8z"/>
<path class="st12" d="M397.4,420.9c-0.9,0-1.7,0.7-1.7,1.7s0.8,1.7,1.7,1.7c0.9,0,1.7-0.7,1.7-1.7S398.4,420.9,397.4,420.9
	L397.4,420.9z"/>
<path class="st12" d="M392.1,392.4c-0.9,0-1.7,0.7-1.7,1.7c0,0.9,0.8,1.7,1.7,1.7s1.7-0.7,1.7-1.7
	C393.8,393.2,393,392.4,392.1,392.4L392.1,392.4z"/>
<path class="st12" d="M402.8,392.4c-0.9,0-1.7,0.7-1.7,1.7c0,0.9,0.8,1.7,1.7,1.7c0.9,0,1.7-0.7,1.7-1.7
	C404.5,393.2,403.8,392.4,402.8,392.4L402.8,392.4z"/>
<path class="st12" d="M402.8,411.6c-0.9,0-1.7,0.7-1.7,1.7c0,0.9,0.8,1.7,1.7,1.7c0.9,0,1.7-0.7,1.7-1.7
	C404.5,412.4,403.8,411.6,402.8,411.6L402.8,411.6z"/>
<path class="st12" d="M392.1,411.6c-0.9,0-1.7,0.7-1.7,1.7c0,0.9,0.8,1.7,1.7,1.7s1.7-0.7,1.7-1.7
	C393.8,412.4,393,411.6,392.1,411.6L392.1,411.6z"/>
<path class="st12" d="M386.8,402c-0.9,0-1.7,0.7-1.7,1.7c0,0.9,0.8,1.7,1.7,1.7c0.9,0,1.7-0.7,1.7-1.7S387.7,402,386.8,402
	L386.8,402z"/>
<path class="st12" d="M386.8,408.5c-0.9,0-1.7,0.7-1.7,1.7c0,0.9,0.8,1.7,1.7,1.7c0.9,0,1.7-0.7,1.7-1.7S387.7,408.5,386.8,408.5
	L386.8,408.5z"/>
<path class="st12" d="M397.4,408.5c-0.9,0-1.7,0.7-1.7,1.7c0,0.9,0.8,1.7,1.7,1.7c0.9,0,1.7-0.7,1.7-1.7S398.4,408.5,397.4,408.5
	L397.4,408.5z"/>
<path class="st12" d="M392,398.9c-0.9,0-1.7,0.7-1.7,1.7c0,0.9,0.8,1.7,1.7,1.7c0.9,0,1.7-0.7,1.7-1.7
	C393.7,399.7,393,398.9,392,398.9L392,398.9z"/>
<path class="st12" d="M402.8,398.9c-0.9,0-1.7,0.7-1.7,1.7c0,0.9,0.8,1.7,1.7,1.7c0.9,0,1.7-0.7,1.7-1.7
	C404.5,399.7,403.7,398.9,402.8,398.9L402.8,398.9z"/>
<path class="st12" d="M402.8,418.1c-0.9,0-1.7,0.7-1.7,1.7c0,0.9,0.8,1.7,1.7,1.7c0.9,0,1.7-0.7,1.7-1.7
	C404.5,418.9,403.7,418.1,402.8,418.1L402.8,418.1z"/>
<path class="st12" d="M392,418.1c-0.9,0-1.7,0.7-1.7,1.7c0,0.9,0.8,1.7,1.7,1.7c0.9,0,1.7-0.7,1.7-1.7
	C393.7,418.9,393,418.1,392,418.1L392,418.1z"/>
<text transform="matrix(1 0 0 1 246.2661 80.5415)" class="st20 st21">不同癌症的死亡率与治疗费用</text>
<text transform="matrix(1 0 0 1 704.7029 353.4998)" class="st13 st22 st23">高费用高死亡区</text>
<text transform="matrix(1 0 0 1 704.7026 597)" class="st11 st22 st23">低费用高死亡区</text>
<text transform="matrix(1 0 0 1 129 359.3002)" class="st1 st22 st23">高费用低死亡区</text>
<text transform="matrix(1 0 0 1 129 604.8005)" class="st3 st22 st23">低费用低死亡区</text>
<g>
	<g>
		<defs>
			<circle id="SVGID_1_" cx="511.2" cy="613.1" r="25.7"/>
		</defs>
		<clipPath id="SVGID_2_">
			<use xlink:href="#SVGID_1_"  style="overflow:visible;"/>
		</clipPath>
		<g class="st24">
			
				<image style="overflow:visible;enable-background:new    ;" width="1200" height="1200" xlink:href="../../../timg.jpg"  transform="matrix(6.447450e-02 0 0 6.978834e-02 471.3519 573.6144)">
			</image>
		</g>
	</g>
</g>
</svg>
