<?xml version="1.0" encoding="utf-8"?>
<!-- Generator: Adobe Illustrator 21.0.0, SVG Export Plug-In . SVG Version: 6.00 Build 0)  -->
<svg version="1.1" id="图层_1" xmlns="http://www.w3.org/2000/svg" xmlns:xlink="http://www.w3.org/1999/xlink" x="0px" y="0px"
	 viewBox="0 0 969.1 858.1" style="enable-background:new 0 0 969.1 858.1;" xml:space="preserve">
<style type="text/css">
	.st0{fill:none;}
	.st1{fill:#E3F2FD;}
	.st2{fill:#8EB2C2;}
	.st3{fill:#1E88E5;}
	.st4{fill:#C5E0AE;}
	.st5{fill:#B0E7E9;}
	.st6{fill:#BBDEFB;}
	.st7{fill:#EA8461;}
	.st8{fill:#F2E6C6;}
	.st9{fill:#4C9BD5;}
	.st10{fill:#FFFFFF;stroke:#040A00;stroke-width:0.25;stroke-miterlimit:10;}
	.st11{fill:#FFFFFF;}
	.st12{fill:#8CC665;}
	.st13{fill:#368BCB;}
	.st14{fill:#AED048;}
	.st15{fill:#90CAF9;}
	.st16{fill:#E0C9B9;}
	.st17{fill:#A39C31;}
	.st18{fill:#E8DD3F;}
	.st19{fill:#E2F0FB;}
	.st20{fill:#BFD0DA;}
	.st21{fill:#64B5F6;}
	.st22{fill:#F2E6C6;stroke:#010101;stroke-width:0.25;stroke-miterlimit:10;}
	.st23{font-family:'STHeitiTC-Light';}
	.st24{font-size:36px;}
	.st25{font-family:'AdobeSongStd-Light-GBpc-EUC-H';}
	.st26{font-size:16.9335px;}
	.st27{fill:none;stroke:#000000;stroke-miterlimit:10;}
	.st28{font-size:18px;}
</style>
<polygon class="st0" points="929.1,814 44.5,817.9 44.5,115.9 929.1,112 "/>
<g>
	<polygon class="st1" points="304.9,342.1 302,348.8 298,350.8 294.1,353.1 293.2,356.3 290.7,357.1 287.8,356.9 286.6,359.2 
		286,362.5 284.7,362.3 285.1,355.7 286.8,354 286,351.8 285.4,350.2 280.8,345.3 281,336.3 292.2,332.8 296.5,333.9 300.9,340.6 
		303.8,340.9 	"/>
	<polygon class="st2" points="663.1,439.8 666.5,446.5 666.8,450 665,453.5 662.5,455.6 661.9,461.9 662.7,462.8 664.2,462.2 
		665,462.8 665,466.8 666.8,471.6 668.9,472.4 669.1,479.3 667.9,484 669.1,486.1 671.4,488.4 677,486.9 678.1,489 676.4,491.3 
		673.5,495.7 673.5,496.8 675.2,498 686.8,493.4 690.9,495.7 692.2,494.5 690.9,491.9 691.2,490.2 693,479.7 694.7,477 695.6,474.1 
		697.6,469.7 696.5,468 696.8,464.3 701.7,458.7 701.4,454.9 704.6,449.4 707.8,450.2 714.2,445.6 715.4,443.3 711.3,435.7 
		708.6,431.9 710.6,430.1 708.2,427.9 702,427.9 699.4,425 694.5,429.9 692.6,429 694.7,425.2 694.5,424 692.6,423.6 686.8,426.7 
		682.2,428.2 678.5,427.9 670.3,435.4 666,436.9 	"/>
	<polygon class="st3" points="663.1,439.8 660.4,439.2 659.2,437.5 659.2,433.4 657.7,431.3 654.8,434.2 653.4,436.3 651.4,436.3 
		650.8,433.1 648.2,434 644.6,436.3 642.3,434.8 637.7,431.7 624.3,430.8 622.8,432.3 625.5,435.4 622.3,437.5 617.4,435.4 
		612.2,439.8 610.3,443.9 610.7,453.5 613.2,463.7 607.4,470.1 608,470.9 613.2,469.5 615.1,471.8 613.6,479.1 616.5,484.3 
		619.4,485.1 622.3,481.1 623.8,484.3 624.6,484 629.2,479.7 630.5,479.9 632.5,478.8 636.3,479.9 636.3,484 639.2,484.6 
		638.3,488.6 635.7,493 634.5,496.8 635.7,496.8 638.8,493.9 641.5,499.7 643.6,498.2 645.9,498.2 648.2,496.5 648.2,493 
		649.4,491.9 652.3,492.2 657.2,494.5 658.1,492.8 656.9,490.7 657.2,489.2 660.4,486.6 666,488 669.1,486.1 667.9,484 669.1,479.3 
		668.9,472.4 666.8,471.6 665,466.8 665,462.8 664.2,462.2 662.7,462.8 661.9,461.9 662.5,455.6 665,453.5 666.8,450 666.5,446.5 	
		"/>
	<polygon class="st4" points="739.9,450.8 733.4,453.1 729.6,449.4 727.1,452.6 722.9,452.6 721.2,449.1 719.2,443.9 715.4,443.3 
		711.3,435.7 708.6,431.9 710.6,430.1 711.3,429.4 715.7,423.2 715.4,418.2 716.9,416.3 720.3,415.7 721.2,414.2 720,411.9 
		721.7,409.5 721.7,404.9 724.2,403.7 728.2,406.1 733.1,406.9 736.4,403.1 740.5,406.4 738.7,407.8 736.6,410.9 733.4,411.9 
		732.3,412.8 735.4,414.5 741.2,411.9 750.8,415.9 751.8,424 747.9,424 747.7,426.5 749.7,429.9 747.9,431.9 750,435.2 746.8,438.9 
		745.4,437.1 740.6,449.1 	"/>
	<polygon class="st3" points="610.3,443.9 612.2,439.8 617.4,435.4 622.3,437.5 625.5,435.4 622.8,432.3 624.3,430.8 637.7,431.7 
		642.3,434.8 644.6,436.3 648.2,434 650.8,433.1 651.4,436.3 653.4,436.3 654.8,434.2 657.7,431.3 659.2,433.4 659.2,437.5 
		660.4,439.2 663.1,439.8 666,436.9 670.3,435.4 678.5,427.9 682.2,428.2 686.8,426.7 681.4,416.3 683.1,413 682.5,411.9 
		679.5,410.9 674.7,408 672.3,406.6 669.1,408 665.6,405.1 661,405.1 657.5,403.2 656.6,400.3 654.8,398.5 652.3,399.9 650,398.8 
		642.7,399.9 634.8,398.2 625.2,389.7 622.6,391.8 621.4,390.9 619.4,390.9 610.7,390.9 609.5,392 612.2,394.7 614.7,395.3 
		617,396.2 615.9,397.9 611.6,399.9 610.7,403.4 611.6,404.6 612.2,409 614.7,409.2 617.4,412.8 618.5,419.4 617.6,421.7 
		615.9,421.1 610.9,425 602.5,426.5 600.2,428.8 602,431.1 602.2,436 604.5,436.6 	"/>
	<polygon class="st5" points="531.8,394.7 533.6,390.6 531.6,388.3 531.2,384.8 538.5,381.6 540.3,381.6 541.4,384.3 541.7,387.7 
		545.2,390.1 549.9,394.7 552.5,393 554.2,394.7 554.8,399.3 557.7,401.4 565.3,402 566.5,400.5 566.1,398.5 570.5,397.4 
		572.9,397.9 573.1,400.5 575.2,400.8 582.7,399.3 584.2,399.9 584.5,402 587.7,402.8 594.3,406.1 598.1,404.6 606.3,407.6 
		608,409.9 612.2,409 614.7,409.2 617.4,412.8 618.5,419.4 617.6,421.7 615.9,421.1 610.9,425 602.5,426.5 600.2,428.8 602,431.1 
		602.2,436 604.5,436.6 610.3,443.9 610.7,453.5 606.8,456.4 603.4,452.9 600.2,448.5 599.9,445.9 597.6,445.4 594.9,446.2 
		590.6,444.2 588.5,449.1 584.8,449.4 582.1,453.5 580.4,452.6 577.7,453.5 573.7,451.2 570.5,454.9 570.5,456.6 576.9,460.2 
		578.3,462.8 573.7,464.5 566.7,464.3 565.9,461.4 563.2,460.4 558.8,463.1 555.9,461.6 555.7,457.9 554.2,456 554.2,454.1 
		550.1,453.1 549,454.3 549.6,457.2 546.3,458.7 545.5,460.8 546.3,463.3 539.1,471.8 540.3,481.7 536.8,484.6 535.1,482.8 
		528,486.9 525.4,485.5 515.2,466 511.2,463.1 507.9,462.2 506.5,459.5 508.3,456.6 505.4,454.3 501.9,457.2 498.3,457.9 496,447.3 
		495.4,444.8 494.8,427.9 491.7,419.4 494,417.7 487.3,405.5 479.2,399.1 480.3,395.3 481.2,394.1 493.1,392.4 501,394.7 
		505.6,393.2 507.4,396.2 513.2,402 517.9,401.1 517.9,397.6 519.1,395.3 523.7,393.5 525.4,396.4 528,394.5 531.8,394.9 	"/>
	<polygon class="st1" points="402.7,454.3 409.6,455.2 411.9,458.5 413.1,458.9 423.6,457 424.2,455.2 426.2,454.1 431.2,450 
		435.6,449.4 439.6,446.8 447.4,442.5 448.3,443.9 454.1,445.9 462.6,441.5 465.2,443.3 462.8,446.8 463.8,447.7 467.2,447.7 
		467.6,449.1 464.6,454.3 465.5,455.2 467.2,455.2 475.7,457.5 479.4,454.3 485,458.7 486.7,456.6 488.2,458.1 490,458.1 
		490.8,456.6 490.5,450 491.9,449.1 495.4,444.8 494.8,427.9 491.7,419.4 494,417.7 487.3,405.5 479.2,399.1 476.9,400.5 
		477.1,404.3 470.1,413.4 458.5,410.9 457.6,406.6 450.3,400.8 434.3,398.2 427.4,397 424.8,396.8 418.7,391.8 406.1,388.9 
		397.4,372 397.1,367.3 400.6,365.6 400.6,360.4 403.2,354 400.3,351.1 404.2,347.9 401.7,346.5 395.9,346.5 385.5,341.7 
		378.8,341.7 373.6,343.2 367.8,343.2 358.7,348.2 351.4,347.3 344.2,349.9 338.1,347.9 334.3,344.6 324.6,343.2 318.3,347.6 
		314.8,346.1 311.9,343.8 304.9,342.1 299.9,345.5 298,350.8 294.1,353.1 293.2,356.3 290.7,357.1 287.8,356.9 286.6,359.2 
		286,362.5 284.7,362.3 284.5,365.6 288,369.1 288.3,374.1 287.2,376 282,376.6 279.3,373.7 276.6,374.1 276.2,376.4 277.6,380.2 
		278.1,382.8 278.1,386.2 277.2,388.6 277.6,390.6 281,390.9 282.8,394.1 290.7,400.3 290.7,402.2 296.5,408.6 298.5,410.9 
		300.3,411.5 303.8,408 306.9,410.9 320.3,422.3 322.7,428.2 325.6,428.2 327.3,426.5 328.8,427.9 328.8,433.1 336.6,437.5 
		338.3,437.1 339.6,441.5 346.2,445.4 346.5,447.9 347.7,448.8 353.5,448.5 356.6,448.5 361.4,452 371.8,451.7 377.4,451.4 
		378.8,453.7 377.6,458.7 379.1,460.4 384.9,455.6 392.2,450.2 397.4,451.2 	"/>
	<polygon class="st0" points="402.7,454.3 409.6,455.2 411.9,458.5 413.1,458.9 423.6,457 424.2,455.2 426.2,454.1 431.2,450 
		435.6,449.4 439.6,446.8 447.4,442.5 448.3,443.9 454.1,445.9 462.6,441.5 465.2,443.3 462.8,446.8 463.8,447.7 467.2,447.7 
		467.6,449.1 464.6,454.3 465.5,455.2 467.2,455.2 475.7,457.5 479.4,454.3 485,458.7 486.7,456.6 488.2,458.1 490,458.1 
		490.8,456.6 490.5,450 491.9,449.1 495.4,444.8 494.8,427.9 491.7,419.4 494,417.7 487.3,405.5 479.2,399.1 476.9,400.5 
		477.1,404.3 470.1,413.4 458.5,410.9 457.6,406.6 450.3,400.8 434.3,398.2 427.4,397 424.8,396.8 418.7,391.8 406.1,388.9 
		397.4,372 397.1,367.3 400.6,365.6 400.6,360.4 403.2,354 400.3,351.1 404.2,347.9 401.7,346.5 395.9,346.5 385.5,341.7 
		378.8,341.7 373.6,343.2 367.8,343.2 358.7,348.2 351.4,347.3 344.2,349.9 338.1,347.9 334.3,344.6 324.6,343.2 318.3,347.6 
		314.8,346.1 311.9,343.8 304.9,342.1 299.9,345.5 298,350.8 294.1,353.1 293.2,356.3 290.7,357.1 287.8,356.9 286.6,359.2 
		286,362.5 284.7,362.3 284.5,365.6 288,369.1 288.3,374.1 287.2,376 282,376.6 279.3,373.7 276.6,374.1 276.2,376.4 277.6,380.2 
		278.1,382.8 278.1,386.2 277.2,388.6 277.6,390.6 281,390.9 282.8,394.1 290.7,400.3 290.7,402.2 296.5,408.6 298.5,410.9 
		300.3,411.5 303.8,408 306.9,410.9 320.3,422.3 322.7,428.2 325.6,428.2 327.3,426.5 328.8,427.9 328.8,433.1 336.6,437.5 
		338.3,437.1 339.6,441.5 346.2,445.4 346.5,447.9 347.7,448.8 353.5,448.5 356.6,448.5 361.4,452 371.8,451.7 377.4,451.4 
		378.8,453.7 377.6,458.7 379.1,460.4 384.9,455.6 392.2,450.2 397.4,451.2 	"/>
	<polygon class="st6" points="404.2,347.9 408.8,349.6 416.6,346.9 415.4,345.5 413.4,345.5 412.5,343.2 413.1,341.1 416.9,339.4 
		419.6,335.1 411.4,328.4 411.1,321.4 414.8,318.5 441.6,313.2 443.4,311.8 447.4,312.4 460.9,315.5 464.9,317.9 470.7,321.4 
		474.5,321.1 480.3,317.6 487.9,318.8 492.9,316.2 503.1,322.6 508.5,320.5 511.4,327.6 518.5,331.9 523.7,336.5 527.4,335.1 
		534.7,344.6 536.2,350.8 538.8,354.6 538,361.9 532.2,366.5 533.2,369.4 530.9,371.7 528,374.3 528,379.3 525.4,381.4 522.2,380.4 
		519.6,377.9 518.1,380.8 519.9,383.3 524.5,383.9 528.9,388.3 531.6,388.3 533.6,390.6 531.8,394.7 531.8,394.9 528,394.5 
		525.4,396.4 523.7,393.5 519.1,395.3 517.9,397.6 517.9,401.1 513.2,402 507.4,396.2 505.6,393.2 501,394.7 493.1,392.4 
		481.2,394.1 480.3,395.3 479.2,399.1 476.9,400.5 477.1,404.3 470.1,413.4 458.5,410.9 457.6,406.6 450.3,400.8 434.3,398.2 
		427.4,397 424.8,396.8 418.7,391.8 406.1,388.9 397.4,372 397.1,367.3 400.6,365.6 400.6,360.4 403.2,354 400.3,351.1 	"/>
	<polygon class="st0" points="404.2,347.9 408.8,349.6 416.6,346.9 415.4,345.5 413.4,345.5 412.5,343.2 413.1,341.1 416.9,339.4 
		419.6,335.1 411.4,328.4 411.1,321.4 414.8,318.5 441.6,313.2 443.4,311.8 447.4,312.4 460.9,315.5 464.9,317.9 470.7,321.4 
		474.5,321.1 480.3,317.6 487.9,318.8 492.9,316.2 503.1,322.6 508.5,320.5 511.4,327.6 518.5,331.9 523.7,336.5 527.4,335.1 
		534.7,344.6 536.2,350.8 538.8,354.6 538,361.9 532.2,366.5 533.2,369.4 530.9,371.7 528,374.3 528,379.3 525.4,381.4 522.2,380.4 
		519.6,377.9 518.1,380.8 519.9,383.3 524.5,383.9 528.9,388.3 531.6,388.3 533.6,390.6 531.8,394.7 531.8,394.9 528,394.5 
		525.4,396.4 523.7,393.5 519.1,395.3 517.9,397.6 517.9,401.1 513.2,402 507.4,396.2 505.6,393.2 501,394.7 493.1,392.4 
		481.2,394.1 480.3,395.3 479.2,399.1 476.9,400.5 477.1,404.3 470.1,413.4 458.5,410.9 457.6,406.6 450.3,400.8 434.3,398.2 
		427.4,397 424.8,396.8 418.7,391.8 406.1,388.9 397.4,372 397.1,367.3 400.6,365.6 400.6,360.4 403.2,354 400.3,351.1 	"/>
	<polygon class="st6" points="404.1,179.4 406.5,179.4 405,184 407.1,186.5 407.3,188.2 411.9,192.8 413.1,196.3 419.2,196.6 
		421.9,198.9 423.3,198.9 426.8,206.5 430.3,215.6 428.5,221 428.9,223.1 425.6,228.6 426.5,233 437.9,237.9 450.1,239.7 
		462.8,248.4 466.9,249.9 467.2,252.2 469.9,257.7 472.5,265 475.9,271.1 474,273.4 474,277.5 469.6,279.6 458.8,283.9 451.8,289.7 
		446.8,292 446,295.5 447.4,312.4 443.4,311.8 441.6,313.2 414.8,318.5 411.1,321.4 411.4,328.4 419.6,335.1 416.9,339.4 
		413.1,341.1 412.5,343.2 413.4,345.5 415.4,345.5 416.6,346.9 408.8,349.6 404.2,347.9 401.7,346.5 395.9,346.5 385.5,341.7 
		378.8,341.7 373.6,343.2 367.8,343.2 358.7,348.2 351.4,347.3 344.2,349.9 338.1,347.9 334.3,344.6 324.6,343.2 318.3,347.6 
		314.8,346.1 311.9,343.8 304.9,342.1 303.8,340.9 300.9,340.6 296.5,333.9 292.2,332.8 281,336.3 276.4,335.1 266.8,328 
		264.2,327.8 262.1,323.2 263.6,318.5 263.1,316.2 259.6,313.9 258.3,311.6 251.1,307.4 251.1,306.2 254.6,304.8 256.6,306 
		258.7,303.9 258.1,297 258.7,291.2 254,286.5 250.8,287.3 249.6,283.9 251.4,280.4 250.5,277.1 253.6,274.3 254.8,273.1 
		254.8,270.5 259.2,268.4 263.6,267.6 267.4,266.1 270.6,266.9 272.9,266.1 273.7,266.7 274.1,269.6 276.2,270.5 281,270.2 
		286.6,264 298,266.5 303.8,262.3 320.6,258.6 321.7,256.3 323.2,249.9 327.9,246.1 329.4,246.1 329.4,244.2 329.6,228 330.5,224.8 
		325.9,223.1 325.6,221.9 330.5,220.4 343.1,219.3 345,221.9 349.4,222.8 350.6,223.1 352.3,220.8 350,218.5 359.3,199.6 
		360.8,198.6 369.2,202.7 373,202.7 374.7,205 382.8,202.5 384.9,189 388.4,186.7 392.5,186.5 395.4,182.9 396.5,179.4 398.8,178.2 
			"/>
	<polygon class="st0" points="475.9,271.1 477.7,271.3 485,272.5 506.5,274.6 509.7,273.1 527.4,275.2 530.7,278.9 542.8,282.7 
		553.4,283.3 554.2,285.6 556.5,286.8 564.4,281.9 581.6,274.6 583.9,274.8 598.7,273.4 607.8,269.4 614.7,260.6 619.4,257.7 
		622.8,254.2 617.6,246.6 619.4,239.9 623.2,236.2 626.3,237.6 635.9,239.7 640.9,236.8 646.1,229.7 650.8,229.1 658.3,224.3 
		658.9,220.4 662.5,215.2 667.7,214.1 669.7,210.8 672.6,211.2 676.4,208.3 687.4,207.7 689.5,206.2 689.5,204.2 679.9,194.2 
		672,191.3 667.9,192.3 665.6,196 657.7,195.4 652.9,198.1 650,195.7 648.8,192.3 651.1,189.9 655.8,170.9 656.3,169.3 659.6,170.5 
		665.4,171.6 676.2,163.7 677.6,161.1 675.8,158.2 680.5,140.8 683.1,137 684.5,134.3 682,127.7 678.7,127.3 677,126.2 681.4,119.8 
		686.6,116 688.6,116 690.7,114.2 702,110.2 710.5,111.9 714.2,112.8 718.6,111.3 725.2,114.6 726.7,118.1 731.9,124.8 733.4,128.5 
		738.1,134.9 740.2,138.1 743.5,141.6 744.5,144.5 747.1,147.4 749.7,151.2 754.1,152.6 759.1,151.8 762.5,153.5 765.4,152.4 
		772.6,156.2 776.8,156.4 778,160.3 780.5,164 779.9,166.3 784.9,170.1 795.7,166.3 800,160.3 804.4,158.2 808.8,153.2 812.5,151.8 
		814,153.9 813.4,156.2 816.6,159.9 813.7,165.7 814,183.8 813.1,187.3 813.7,189.4 811.7,193.1 812.3,196.9 810.5,198.6 
		800.6,198.6 798,203.6 795.1,206.5 800.3,214.6 800.9,221.6 802.1,223.8 802.9,225.1 801.7,229.5 797.4,235.3 795.7,233.9 794,232 
		792.2,232.6 791.3,235.9 791.1,240.8 787.8,242.2 785.2,247.2 779.1,249.2 778.2,250.5 781.4,255.3 779.1,257.4 772.4,258.2 
		768.3,255.9 766.6,256.5 762.8,267.3 758.7,269.9 754.3,274.8 747.4,285 743.9,285.9 732.9,292 725.6,301.6 720.6,304.3 720,303.1 
		722.9,300.2 723.2,297 719.4,294.3 723.5,287.9 726.7,281 722.3,276.6 715.4,278.1 711.3,285 707.2,290 704.6,291.4 699.7,298.7 
		699.7,301.4 691.2,306 687.8,304.5 685.4,306.2 684.5,310.1 685.6,312.8 687.2,316.8 688.9,317.9 691.8,319.9 696.5,318.8 
		699.4,320.5 700.5,325.1 700.9,327.8 706.1,330.1 708.4,328.6 716.5,318.2 719.8,317.6 725.2,320.3 733.1,319.3 736.6,319.7 
		737.2,324.6 734.8,326.9 729.6,328.6 722.9,334.8 721.5,338 718.8,339.4 717.1,338.8 715.7,340.3 717.1,342.6 709,356.3 
		716.3,361.2 721.5,363.3 731.4,379.9 731.1,381.6 737.7,384.8 739.5,387.7 742.7,389.1 744.2,392 742.1,393 738.7,391.8 734,391.8 
		729.6,390.3 727.9,391.8 731.9,393 735.8,394.7 739.8,396.4 744.2,398.2 746.2,401.1 744.8,403.2 740.5,406.4 738.7,407.8 
		736.6,410.9 733.4,411.9 732.3,412.8 735.4,414.5 741.2,411.9 750.8,415.9 751.8,424 747.9,424 747.7,426.5 749.7,429.9 
		747.9,431.9 750,435.2 746.8,438.9 745.4,437.1 740.6,449.1 739.9,450.8 735.8,460.8 733.4,459.5 731.7,460.4 731.4,461.4 
		733.7,463.9 733.1,473 733.7,475.9 733.1,476.8 730.5,476.2 728.8,477.9 730,480.3 726.7,483.4 727.3,484.6 724.2,486.3 
		724.6,488.6 723.5,489.9 719.2,489.9 716.9,491.9 716.5,492.8 718.6,494.2 716.3,497.7 713.4,501.5 712.2,501.1 709,504.4 
		706.7,506.1 704.6,509.9 702.8,510.5 701.1,514 695.3,516.9 693,515.7 691.5,518.1 691.5,518.9 689.7,518.9 686.6,518.9 683.7,521 
		681.6,519.8 679.1,521.5 672.6,524.2 667.4,520 667.1,523.3 668.9,528.3 664.2,530.2 661.6,533.7 656.6,534.9 654,536 648.8,536 
		645.2,539.5 635.9,542.8 631.3,546 629,548.3 633.4,555.3 630.5,557.9 626.9,557.6 622.8,550.1 623.8,544.8 623.8,542.2 
		616.2,543.3 612.2,540.4 608,538.7 603.9,542.8 599.7,543.1 595.5,543.3 586.2,538.1 584.5,533.5 586.8,528.8 584.2,526.8 
		580.6,526.8 579.8,525.9 576,526.8 572.3,524.2 570.2,522.1 566.5,522.9 563.8,526.8 560.6,529.4 557.4,530 556.3,529.1 554,531.4 
		553,532.9 551.9,532.9 549.2,530.2 546.3,532 544.9,530.6 542,533.1 535.1,530.8 532.4,534.1 531.2,534.1 526.3,534.1 524.9,536.6 
		526.8,545.1 526.8,549.7 525.7,550.9 524.5,550.1 521.4,550.6 519.9,549.1 519.1,546.2 519.1,544.3 517.2,543.3 511.4,546.6 
		506.8,546.6 503.6,541.6 504.2,539.9 499.2,538.1 496.3,537.9 495.2,536.4 496.9,532.3 497.2,528.8 499.6,525.9 497.5,524.4 
		492.9,524.2 491.9,522.7 491.4,518.3 490,515.4 490.8,512.3 482.9,512.8 477.4,514.2 476.5,513.7 478,510.2 476.3,505.5 
		476.5,503.6 478.6,501.7 479.2,498 490.2,488 491.1,472 490.5,467.4 488.8,466.2 486.7,466.2 485,458.7 479.4,454.3 475.7,457.5 
		467.2,455.2 465.5,455.2 464.6,454.3 467.6,449.1 467.2,447.7 463.8,447.7 462.8,446.8 465.2,443.3 462.6,441.5 454.1,445.9 
		448.3,443.9 447.4,442.5 439.6,446.8 435.6,449.4 431.2,450 426.2,454.1 424.2,455.2 423.6,457 413.1,458.9 411.9,458.5 
		409.6,455.2 402.7,454.3 397.4,451.2 392.2,450.2 384.9,455.6 379.1,460.4 377.6,458.7 378.8,453.7 377.4,451.4 371.8,451.7 
		361.4,452 356.6,448.5 353.5,448.5 347.7,448.8 346.5,447.9 346.2,445.4 339.6,441.5 338.3,437.1 336.6,437.5 328.8,433.1 
		328.8,427.9 327.3,426.5 325.6,428.2 322.7,428.2 320.3,422.3 306.9,410.9 303.8,408 300.3,411.5 298.5,410.9 296.5,408.6 
		290.7,402.2 290.7,400.3 282.8,394.1 281,390.9 277.6,390.6 277.2,388.6 278.1,386.2 278.1,382.8 277.6,380.2 276.2,376.4 
		276.6,374.1 279.3,373.7 282,376.6 287.2,376 288.3,374.1 288,369.1 284.5,365.6 284.7,362.3 286,362.5 286.6,359.2 287.8,356.9 
		290.7,357.1 293.3,356.3 294.1,353.1 298,350.8 299.9,345.5 304.9,342.1 303.8,340.9 300.9,340.6 296.5,333.9 292.2,332.8 
		281,336.3 276.4,335.1 266.8,328 264.2,327.8 262.1,323.2 263.6,318.5 263.1,316.2 259.6,313.9 258.3,311.6 251.1,307.4 
		251.1,306.2 254.6,304.8 256.6,306 258.7,303.9 258.1,297 258.7,291.2 254,286.5 250.8,287.3 249.6,283.9 251.4,280.4 250.5,277.1 
		253.6,274.3 254.8,273.1 254.8,270.5 259.2,268.4 263.6,267.6 267.4,266.1 270.6,266.9 272.9,266.1 273.7,266.7 274.1,269.6 
		276.2,270.5 281,270.2 286.6,264 298,266.5 303.8,262.3 320.6,258.6 321.7,256.3 323.2,249.9 327.9,246.1 329.4,246.1 329.4,244.2 
		329.6,228 330.5,224.8 325.9,223.1 325.6,221.9 330.5,220.4 343.1,219.3 345,221.9 349.4,222.8 350.6,223.1 352.3,220.8 350,218.5 
		359.3,199.6 360.8,198.6 369.3,202.7 373,202.7 374.7,205 382.8,202.5 384.9,189 388.4,186.7 392.5,186.5 395.4,182.9 396.5,179.4 
		398.8,178.2 404.1,179.4 406.5,179.4 405,184 407.1,186.5 407.3,188.2 411.9,192.8 413.1,196.3 419.2,196.6 421.9,198.9 
		423.3,198.9 426.8,206.5 430.3,215.6 428.5,221 428.9,223.1 425.6,228.6 426.5,233 437.9,237.9 450.1,239.7 462.8,248.4 
		466.9,249.9 467.2,252.2 469.9,257.7 472.5,265 	"/>
	<polygon class="st7" points="672.7,525.1 676.2,525.9 679.7,523.2 681.4,527.9 677.6,529.7 672.9,529.4 672,525.9 	"/>
	<polygon class="st8" points="672.7,525.1 676.2,525.9 679.7,523.2 681.4,527.9 677.6,529.7 672.9,529.4 672,525.9 	"/>
	<polygon class="st9" points="672.7,525.1 676.2,525.9 679.7,523.2 681.4,527.9 677.6,529.7 672.9,529.4 672,525.9 	"/>
	<polygon class="st10" points="762,486.6 758.7,506.1 757,512.3 757,517.5 755.6,518.9 752,513.7 748.3,510.8 745,502.1 
		745.4,494.2 750.8,479.9 757.2,474.5 761.4,476.4 	"/>
	<polygon class="st10" points="762,486.6 758.7,506.1 757,512.3 757,517.5 755.6,518.9 752,513.7 748.3,510.8 745,502.1 
		745.4,494.2 750.8,479.9 757.2,474.5 761.4,476.4 	"/>
	<polygon class="st10" points="762,486.6 758.7,506.1 757,512.3 757,517.5 755.6,518.9 752,513.7 748.3,510.8 745,502.1 
		745.4,494.2 750.8,479.9 757.2,474.5 761.4,476.4 	"/>
	<polygon class="st0" points="304.9,342.1 302,348.8 298,350.8 294.1,353.1 293.2,356.3 290.7,357.1 287.8,356.9 286.6,359.2 
		286,362.5 284.7,362.3 285.1,355.7 286.8,354 286,351.8 285.4,350.2 280.8,345.3 281,336.3 292.2,332.8 296.5,333.9 300.9,340.6 
		303.8,340.9 	"/>
	<polygon class="st0" points="304.9,342.1 302,348.8 298,350.8 294.1,353.1 293.2,356.3 290.7,357.1 287.8,356.9 286.6,359.2 
		286,362.5 284.7,362.3 285.1,355.7 286.8,354 286,351.8 285.4,350.2 280.8,345.3 281,336.3 292.2,332.8 296.5,333.9 300.9,340.6 
		303.8,340.9 	"/>
	<polyline class="st8" points="286,351.8 287.8,351.3 290.1,351.7 294.1,353.1 	"/>
	<polyline class="st0" points="286,351.8 287.8,351.3 290.1,351.7 294.1,353.1 	"/>
	<polyline class="st0" points="286,351.8 287.8,351.3 290.1,351.7 294.1,353.1 	"/>
	<polyline class="st11" points="298,350.8 299.9,345.5 304.9,342.1 	"/>
	<polyline class="st0" points="298,350.8 299.9,345.5 304.9,342.1 	"/>
	<polygon class="st9" points="645.9,498.2 648.2,496.5 648.2,493 649.4,491.9 652.3,492.2 657.2,494.5 658.1,492.8 656.9,490.7 
		657.2,489.2 660.4,486.6 666,488 669.1,486.1 671.4,488.4 677,486.9 678.1,489 676.4,491.3 673.5,495.7 673.5,496.8 675.2,498 
		686.8,493.4 690.9,495.7 692.2,494.5 690.9,491.9 691.2,490.2 698.8,491.9 700.3,493 702.3,492.8 705.5,496.8 709,504.4 
		706.7,506.1 704.6,509.9 702.8,510.5 701.1,514 695.3,516.9 693,515.7 691.6,518.1 691.6,518.9 689.7,518.9 686.6,518.9 683.7,521 
		681.6,519.8 679.1,521.5 672.6,524.2 667.4,520 667.1,523.3 668.9,528.3 664.2,530.2 661.6,533.7 656.6,534.9 654,536 648.8,536 
		645.2,539.5 635.9,542.8 631.3,546 629,548.3 633.4,555.3 630.5,557.9 626.9,557.6 622.8,550.1 623.8,544.8 623.8,542.2 
		626.7,537.5 630.5,536.6 630.1,534.1 634,532.3 634.5,527.9 641.2,522.7 640.9,515.7 646.1,509 645.9,506.5 647.5,504 	"/>
	<polygon class="st0" points="645.9,498.2 648.2,496.5 648.2,493 649.4,491.9 652.3,492.2 657.2,494.5 658.1,492.8 656.9,490.7 
		657.2,489.2 660.4,486.6 666,488 669.1,486.1 671.4,488.4 677,486.9 678.1,489 676.4,491.3 673.5,495.7 673.5,496.8 675.2,498 
		686.8,493.4 690.9,495.7 692.2,494.5 690.9,491.9 691.2,490.2 698.8,491.9 700.3,493 702.3,492.8 705.5,496.8 709,504.4 
		706.7,506.1 704.6,509.9 702.8,510.5 701.1,514 695.3,516.9 693,515.7 691.6,518.1 691.6,518.9 689.7,518.9 686.6,518.9 683.7,521 
		681.6,519.8 679.1,521.5 672.6,524.2 667.4,520 667.1,523.3 668.9,528.3 664.2,530.2 661.6,533.7 656.6,534.9 654,536 648.8,536 
		645.2,539.5 635.9,542.8 631.3,546 629,548.3 633.4,555.3 630.5,557.9 626.9,557.6 622.8,550.1 623.8,544.8 623.8,542.2 
		626.7,537.5 630.5,536.6 630.1,534.1 634,532.3 634.5,527.9 641.2,522.7 640.9,515.7 646.1,509 645.9,506.5 647.5,504 	"/>
	<polygon class="st0" points="645.9,498.2 648.2,496.5 648.2,493 649.4,491.9 652.3,492.2 657.2,494.5 658.1,492.8 656.9,490.7 
		657.2,489.2 660.4,486.6 666,488 669.1,486.1 671.4,488.4 677,486.9 678.1,489 676.4,491.3 673.5,495.7 673.5,496.8 675.2,498 
		686.8,493.4 690.9,495.7 692.2,494.5 690.9,491.9 691.2,490.2 698.8,491.9 700.3,493 702.3,492.8 705.5,496.8 709,504.4 
		706.7,506.1 704.6,509.9 702.8,510.5 701.1,514 695.3,516.9 693,515.7 691.6,518.1 691.6,518.9 689.7,518.9 686.6,518.9 683.7,521 
		681.6,519.8 679.1,521.5 672.6,524.2 667.4,520 667.1,523.3 668.9,528.3 664.2,530.2 661.6,533.7 656.6,534.9 654,536 648.8,536 
		645.2,539.5 635.9,542.8 631.3,546 629,548.3 633.4,555.3 630.5,557.9 626.9,557.6 622.8,550.1 623.8,544.8 623.8,542.2 
		626.7,537.5 630.5,536.6 630.1,534.1 634,532.3 634.5,527.9 641.2,522.7 640.9,515.7 646.1,509 645.9,506.5 647.5,504 	"/>
	<polygon class="st9" points="558.6,503 562.3,503.2 566.5,499.5 568.2,500.6 576,503.9 577.5,503 577.7,500.3 579.2,498.9 
		590.3,491.6 592.3,493.9 599.1,496 602.8,491 604.5,492.2 607.2,492.2 607.2,490.8 610.7,489.5 610.7,488.5 612.2,487 613,487.2 
		616.5,483.7 619.4,484.6 622.3,480.6 623.8,483.7 624.6,483.5 629.2,479.1 630.5,479.4 632.5,478.3 636.3,479.4 636.3,483.5 
		639.2,484.1 638.3,488.1 635.7,492.5 634.5,496.2 635.7,496.2 638.8,493.3 641.5,499.1 643.6,497.7 645.9,497.7 647.5,503.5 
		645.9,505.9 646.1,508.5 640.9,515.1 641.2,522.2 634.5,527.4 634,531.7 630.1,533.6 630.5,536.1 626.7,536.9 623.8,541.7 
		616.2,542.8 612.2,539.9 608,538.2 603.9,542.3 599.7,542.5 595.5,542.8 586.2,537.6 584.5,532.9 586.8,528.2 584.2,526.3 
		580.6,526.3 579.8,525.3 576,526.3 572.3,523.6 573.7,519.5 576.6,519.2 577.7,518.4 578.7,514.6 577.5,512.6 567.5,510.8 
		565.9,507.9 562.9,507.9 560.3,507.9 558.3,504.7 	"/>
	<polygon class="st0" points="558.6,503.5 562.3,503.8 566.5,500 568.2,501.1 576,504.4 577.5,503.5 577.7,500.9 579.2,499.4 
		590.3,492.2 592.3,494.5 599.1,496.5 602.8,491.5 604.5,492.8 607.2,492.8 607.2,491.3 610.7,490.1 610.7,489 612.2,487.5 
		613,487.8 616.5,484.3 619.4,485.1 622.3,481.1 623.8,484.3 624.6,484 629.2,479.7 630.5,479.9 632.5,478.8 636.3,479.9 636.3,484 
		639.2,484.6 638.3,488.6 635.7,493 634.5,496.8 635.7,496.8 638.8,493.9 641.5,499.7 643.6,498.2 645.9,498.2 647.5,504 
		645.9,506.5 646.1,509 640.9,515.7 641.2,522.7 634.5,527.9 634,532.3 630.1,534.1 630.5,536.6 626.7,537.5 623.8,542.2 
		616.2,543.3 612.2,540.4 608,538.7 603.9,542.8 599.7,543.1 595.5,543.3 586.2,538.1 584.5,533.5 586.8,528.8 584.2,526.8 
		580.6,526.8 579.8,525.9 576,526.8 572.3,524.2 573.7,520 576.6,519.8 577.7,518.9 578.7,515.2 577.5,513.1 567.5,511.3 
		565.9,508.4 562.9,508.4 560.3,508.4 558.3,505.2 	"/>
	<polygon class="st0" points="558.6,503.5 562.3,503.8 566.5,500 568.2,501.1 576,504.4 577.5,503.5 577.7,500.9 579.2,499.4 
		590.3,492.2 592.3,494.5 599.1,496.5 602.8,491.5 604.5,492.8 607.2,492.8 607.2,491.3 610.7,490.1 610.7,489 612.2,487.5 
		613,487.8 616.5,484.3 619.4,485.1 622.3,481.1 623.8,484.3 624.6,484 629.2,479.7 630.5,479.9 632.5,478.8 636.3,479.9 636.3,484 
		639.2,484.6 638.3,488.6 635.7,493 634.5,496.8 635.7,496.8 638.8,493.9 641.5,499.7 643.6,498.2 645.9,498.2 647.5,504 
		645.9,506.5 646.1,509 640.9,515.7 641.2,522.7 634.5,527.9 634,532.3 630.1,534.1 630.5,536.6 626.7,537.5 623.8,542.2 
		616.2,543.3 612.2,540.4 608,538.7 603.9,542.8 599.7,543.1 595.5,543.3 586.2,538.1 584.5,533.5 586.8,528.8 584.2,526.8 
		580.6,526.8 579.8,525.9 576,526.8 572.3,524.2 573.7,520 576.6,519.8 577.7,518.9 578.7,515.2 577.5,513.1 567.5,511.3 
		565.9,508.4 562.9,508.4 560.3,508.4 558.3,505.2 	"/>
	<polygon class="st11" points="640.3,564.3 635.1,573.4 635.1,577.4 624.6,585.9 613.9,582.1 611.8,574.5 612.4,570.9 618.2,565.1 
		620.3,563.4 629.9,561.7 634.2,561.4 635.7,559.7 638.8,560.5 	"/>
	<polygon class="st12" points="640.3,564.3 635.1,573.4 635.1,577.4 624.6,585.9 613.9,582.1 611.8,574.5 612.4,570.9 618.2,565.1 
		620.3,563.4 629.9,561.7 634.2,561.4 635.7,559.7 638.8,560.5 	"/>
	<polygon class="st9" points="640.3,564.3 635.1,573.4 635.1,577.4 624.6,585.9 613.9,582.1 611.8,574.5 612.4,570.9 618.2,565.1 
		620.3,563.4 629.9,561.7 634.2,561.4 635.7,559.7 638.8,560.5 	"/>
	<polygon class="st1" points="566.7,464.3 565.9,461.4 563.2,460.4 558.8,463.1 555.9,461.6 555.7,457.9 554.2,456 554.2,454.1 
		550.1,453.1 549,454.3 549.6,457.2 546.3,458.7 545.5,460.8 546.3,463.3 539.1,471.8 540.3,481.7 536.8,484.6 535.1,482.8 
		528,486.9 525.4,485.5 515.2,466 511.2,463.1 507.9,462.2 506.5,459.5 508.3,456.6 505.4,454.3 501.9,457.2 498.3,457.9 496,447.3 
		495.4,444.8 491.9,449.1 490.5,450 490.8,456.6 490,458.1 488.2,458.1 486.7,456.6 485,458.7 486.7,466.2 488.8,466.2 490.5,467.4 
		491.1,472 490.2,488 479.2,498 478.6,501.7 476.5,503.6 476.3,505.5 478,510.2 476.5,513.7 477.4,514.2 482.9,512.8 490.8,512.3 
		490,515.4 491.4,518.3 491.9,522.7 492.9,524.2 497.5,524.4 499.6,525.9 497.2,528.8 496.9,532.3 495.2,536.4 496.3,537.9 
		499.2,538.1 504.2,539.9 503.6,541.6 506.8,546.6 511.4,546.6 517.2,543.3 519.1,544.3 519.1,546.2 519.9,549.1 521.4,550.6 
		524.5,550.1 525.7,550.9 526.8,549.7 526.8,545.1 524.9,536.6 526.3,534.1 531.2,534.1 532.4,534.1 535.1,530.8 542,533.1 
		544.9,530.6 546.3,532 549.2,530.2 551.9,532.9 553,532.9 554,531.4 556.3,529.1 557.4,530 560.6,529.4 563.8,526.8 566.5,522.9 
		570.2,522.1 572.3,524.2 573.7,520 576.6,519.8 577.7,518.9 578.7,515.2 577.5,513.1 567.5,511.3 565.9,508.4 562.9,508.4 
		560.3,508.4 558.3,505.2 558.6,503.6 559.8,496.5 555.9,492.8 558.8,480.5 556.9,478.8 550.5,480.8 549,478.2 549,475.3 
		547.6,473.9 550.7,469.5 554.2,470.6 555.7,469.1 562.1,470.1 565,469.1 	"/>
	<polygon class="st0" points="566.7,464.3 565.9,461.4 563.2,460.4 558.8,463.1 555.9,461.6 555.7,457.9 554.2,456 554.2,454.1 
		550.1,453.1 549,454.3 549.6,457.2 546.3,458.7 545.5,460.8 546.3,463.3 539.1,471.8 540.3,481.7 536.8,484.6 535.1,482.8 
		528,486.9 525.4,485.5 515.2,466 511.2,463.1 507.9,462.2 506.5,459.5 508.3,456.6 505.4,454.3 501.9,457.2 498.3,457.9 496,447.3 
		495.4,444.8 491.9,449.1 490.5,450 490.8,456.6 490,458.1 488.2,458.1 486.7,456.6 485,458.7 486.7,466.2 488.8,466.2 490.5,467.4 
		491.1,472 490.2,488 479.2,498 478.6,501.7 476.5,503.6 476.3,505.5 478,510.2 476.5,513.7 477.4,514.2 482.9,512.8 490.8,512.3 
		490,515.4 491.4,518.3 491.9,522.7 492.9,524.2 497.5,524.4 499.6,525.9 497.2,528.8 496.9,532.3 495.2,536.4 496.3,537.9 
		499.2,538.1 504.2,539.9 503.6,541.6 506.8,546.6 511.4,546.6 517.2,543.3 519.1,544.3 519.1,546.2 519.9,549.1 521.4,550.6 
		524.5,550.1 525.7,550.9 526.8,549.7 526.8,545.1 524.9,536.6 526.3,534.1 531.2,534.1 532.4,534.1 535.1,530.8 542,533.1 
		544.9,530.6 546.3,532 549.2,530.2 551.9,532.9 553,532.9 554,531.4 556.3,529.1 557.4,530 560.6,529.4 563.8,526.8 566.5,522.9 
		570.2,522.1 572.3,524.2 573.7,520 576.6,519.8 577.7,518.9 578.7,515.2 577.5,513.1 567.5,511.3 565.9,508.4 562.9,508.4 
		560.3,508.4 558.3,505.2 558.6,503.6 559.8,496.5 555.9,492.8 558.8,480.5 556.9,478.8 550.5,480.8 549,478.2 549,475.3 
		547.6,473.9 550.7,469.5 554.2,470.6 555.7,469.1 562.1,470.1 565,469.1 	"/>
	<polygon class="st0" points="566.7,464.3 565.9,461.4 563.2,460.4 558.8,463.1 555.9,461.6 555.7,457.9 554.2,456 554.2,454.1 
		550.1,453.1 549,454.3 549.6,457.2 546.3,458.7 545.5,460.8 546.3,463.3 539.1,471.8 540.3,481.7 536.8,484.6 535.1,482.8 
		528,486.9 525.4,485.5 515.2,466 511.2,463.1 507.9,462.2 506.5,459.5 508.3,456.6 505.4,454.3 501.9,457.2 498.3,457.9 496,447.3 
		495.4,444.8 491.9,449.1 490.5,450 490.8,456.6 490,458.1 488.2,458.1 486.7,456.6 485,458.7 486.7,466.2 488.8,466.2 490.5,467.4 
		491.1,472 490.2,488 479.2,498 478.6,501.7 476.5,503.6 476.3,505.5 478,510.2 476.5,513.7 477.4,514.2 482.9,512.8 490.8,512.3 
		490,515.4 491.4,518.3 491.9,522.7 492.9,524.2 497.5,524.4 499.6,525.9 497.2,528.8 496.9,532.3 495.2,536.4 496.3,537.9 
		499.2,538.1 504.2,539.9 503.6,541.6 506.8,546.6 511.4,546.6 517.2,543.3 519.1,544.3 519.1,546.2 519.9,549.1 521.4,550.6 
		524.5,550.1 525.7,550.9 526.8,549.7 526.8,545.1 524.9,536.6 526.3,534.1 531.2,534.1 532.4,534.1 535.1,530.8 542,533.1 
		544.9,530.6 546.3,532 549.2,530.2 551.9,532.9 553,532.9 554,531.4 556.3,529.1 557.4,530 560.6,529.4 563.8,526.8 566.5,522.9 
		570.2,522.1 572.3,524.2 573.7,520 576.6,519.8 577.7,518.9 578.7,515.2 577.5,513.1 567.5,511.3 565.9,508.4 562.9,508.4 
		560.3,508.4 558.3,505.2 558.6,503.6 559.8,496.5 555.9,492.8 558.8,480.5 556.9,478.8 550.5,480.8 549,478.2 549,475.3 
		547.6,473.9 550.7,469.5 554.2,470.6 555.7,469.1 562.1,470.1 565,469.1 	"/>
	<polygon class="st13" points="691.2,490.2 693,479.7 694.7,477 695.6,474.1 697.6,469.7 696.5,468 696.8,464.3 701.7,458.7 
		701.4,454.9 704.6,449.4 707.8,450.2 714.2,445.6 715.4,443.3 719.2,443.9 721.2,449.1 722.9,452.6 727.1,452.6 729.6,449.4 
		733.4,453.1 739.9,450.8 735.8,460.8 733.4,459.5 731.7,460.4 731.4,461.4 733.7,463.9 733.1,473 733.7,475.9 733.1,476.8 
		730.5,476.2 728.8,477.9 730,480.3 726.7,483.4 727.3,484.6 724.2,486.3 724.6,488.6 723.5,489.9 719.2,489.9 716.9,491.9 
		716.5,492.8 718.6,494.2 716.3,497.7 713.4,501.5 712.2,501.1 709,504.4 705.5,496.8 702.3,492.8 700.3,493 698.8,491.9 	"/>
	<polygon class="st0" points="691.2,490.2 693,479.7 694.7,477 695.6,474.1 697.6,469.7 696.5,468 696.8,464.3 701.7,458.7 
		701.4,454.9 704.6,449.4 707.8,450.2 714.2,445.6 715.4,443.3 719.2,443.9 721.2,449.1 722.9,452.6 727.1,452.6 729.6,449.4 
		733.4,453.1 739.9,450.8 735.8,460.8 733.4,459.5 731.7,460.4 731.4,461.4 733.7,463.9 733.1,473 733.7,475.9 733.1,476.8 
		730.5,476.2 728.8,477.9 730,480.3 726.7,483.4 727.3,484.6 724.2,486.3 724.6,488.6 723.5,489.9 719.2,489.9 716.9,491.9 
		716.5,492.8 718.6,494.2 716.3,497.7 713.4,501.5 712.2,501.1 709,504.4 705.5,496.8 702.3,492.8 700.3,493 698.8,491.9 	"/>
	<polygon class="st0" points="691.2,490.2 693,479.7 694.7,477 695.6,474.1 697.6,469.7 696.5,468 696.8,464.3 701.7,458.7 
		701.4,454.9 704.6,449.4 707.8,450.2 714.2,445.6 715.4,443.3 719.2,443.9 721.2,449.1 722.9,452.6 727.1,452.6 729.6,449.4 
		733.4,453.1 739.9,450.8 735.8,460.8 733.4,459.5 731.7,460.4 731.4,461.4 733.7,463.9 733.1,473 733.7,475.9 733.1,476.8 
		730.5,476.2 728.8,477.9 730,480.3 726.7,483.4 727.3,484.6 724.2,486.3 724.6,488.6 723.5,489.9 719.2,489.9 716.9,491.9 
		716.5,492.8 718.6,494.2 716.3,497.7 713.4,501.5 712.2,501.1 709,504.4 705.5,496.8 702.3,492.8 700.3,493 698.8,491.9 	"/>
	<polygon class="st0" points="663.1,439.8 666.5,446.5 666.8,450 665,453.5 662.5,455.6 661.9,461.9 662.7,462.8 664.2,462.2 
		665,462.8 665,466.8 666.8,471.6 668.9,472.4 669.1,479.3 667.9,484 669.1,486.1 671.4,488.4 677,486.9 678.1,489 676.4,491.3 
		673.5,495.7 673.5,496.8 675.2,498 686.8,493.4 690.9,495.7 692.2,494.5 690.9,491.9 691.2,490.2 693,479.7 694.7,477 695.6,474.1 
		697.6,469.7 696.5,468 696.8,464.3 701.7,458.7 701.4,454.9 704.6,449.4 707.8,450.2 714.2,445.6 715.4,443.3 711.3,435.7 
		708.6,431.9 710.6,430.1 708.2,427.9 702,427.9 699.4,425 694.5,429.9 692.6,429 694.7,425.2 694.5,424 692.6,423.6 686.8,426.7 
		682.2,428.2 678.5,427.9 670.3,435.4 666,436.9 	"/>
	<polygon class="st13" points="663.1,439.8 666.5,446.5 666.8,450 665,453.5 662.5,455.6 661.9,461.9 662.7,462.8 664.2,462.2 
		665,462.8 665,466.8 666.8,471.6 668.9,472.4 669.1,479.3 667.9,484 669.1,486.1 671.4,488.4 677,486.9 678.1,489 676.4,491.3 
		673.5,495.7 673.5,496.8 675.2,498 686.8,493.4 690.9,495.7 692.2,494.5 690.9,491.9 691.2,490.2 693,479.7 694.7,477 695.6,474.1 
		697.6,469.7 696.5,468 696.8,464.3 701.7,458.7 701.4,454.9 704.6,449.4 707.8,450.2 714.2,445.6 715.4,443.3 711.3,435.7 
		708.6,431.9 710.6,430.1 708.2,427.9 702,427.9 699.4,425 694.5,429.9 692.6,429 694.7,425.2 694.5,424 692.6,423.6 686.8,426.7 
		682.2,428.2 678.5,427.9 670.3,435.4 666,436.9 	"/>
	<polygon class="st0" points="663.1,439.8 660.4,439.2 659.2,437.5 659.2,433.4 657.7,431.3 654.8,434.2 653.4,436.3 651.4,436.3 
		650.8,433.1 648.2,434 644.6,436.3 642.3,434.8 637.7,431.7 624.3,430.8 622.8,432.3 625.5,435.4 622.3,437.5 617.4,435.4 
		612.2,439.8 610.3,443.9 610.7,453.5 613.2,463.7 607.4,470.1 608,470.9 613.2,469.5 615.1,471.8 613.6,479.1 616.5,484.3 
		619.4,485.1 622.3,481.1 623.8,484.3 624.6,484 629.2,479.7 630.5,479.9 632.5,478.8 636.3,479.9 636.3,484 639.2,484.6 
		638.3,488.6 635.7,493 634.5,496.8 635.7,496.8 638.8,493.9 641.5,499.7 643.6,498.2 645.9,498.2 648.2,496.5 648.2,493 
		649.4,491.9 652.3,492.2 657.2,494.5 658.1,492.8 656.9,490.7 657.2,489.2 660.4,486.6 666,488 669.1,486.1 667.9,484 669.1,479.3 
		668.9,472.4 666.8,471.6 665,466.8 665,462.8 664.2,462.2 662.7,462.8 661.9,461.9 662.5,455.6 665,453.5 666.8,450 666.5,446.5 	
		"/>
	<polygon class="st0" points="663.1,439.8 660.4,439.2 659.2,437.5 659.2,433.4 657.7,431.3 654.8,434.2 653.4,436.3 651.4,436.3 
		650.8,433.1 648.2,434 644.6,436.3 642.3,434.8 637.7,431.7 624.3,430.8 622.8,432.3 625.5,435.4 622.3,437.5 617.4,435.4 
		612.2,439.8 610.3,443.9 610.7,453.5 613.2,463.7 607.4,470.1 608,470.9 613.2,469.5 615.1,471.8 613.6,479.1 616.5,484.3 
		619.4,485.1 622.3,481.1 623.8,484.3 624.6,484 629.2,479.7 630.5,479.9 632.5,478.8 636.3,479.9 636.3,484 639.2,484.6 
		638.3,488.6 635.7,493 634.5,496.8 635.7,496.8 638.8,493.9 641.5,499.7 643.6,498.2 645.9,498.2 648.2,496.5 648.2,493 
		649.4,491.9 652.3,492.2 657.2,494.5 658.1,492.8 656.9,490.7 657.2,489.2 660.4,486.6 666,488 669.1,486.1 667.9,484 669.1,479.3 
		668.9,472.4 666.8,471.6 665,466.8 665,462.8 664.2,462.2 662.7,462.8 661.9,461.9 662.5,455.6 665,453.5 666.8,450 666.5,446.5 	
		"/>
	<polygon class="st1" points="566.7,464.3 565,469.1 562.1,470.1 555.7,469.1 554.2,470.6 550.7,469.5 547.6,473.9 549,475.3 
		549,478.2 550.5,480.8 556.9,478.8 558.8,480.5 555.9,492.8 559.8,496.5 558.6,503.6 562.3,503.8 566.5,500 568.2,501.1 576,504.4 
		577.5,503.6 577.7,500.9 579.2,499.4 590.3,492.2 592.3,494.5 599.1,496.5 602.8,491.5 604.5,492.8 607.2,492.8 607.2,491.3 
		610.7,490.1 610.7,489 612.2,487.5 613,487.8 616.5,484.3 613.6,479.1 615.1,471.8 613.2,469.5 608,470.9 607.4,470.1 613.2,463.7 
		610.7,453.5 606.8,456.4 603.4,452.9 600.2,448.5 599.9,445.9 597.6,445.4 594.9,446.2 590.6,444.2 588.5,449.1 584.8,449.4 
		582.1,453.5 580.4,452.6 577.7,453.5 573.7,451.2 570.5,454.9 570.5,456.6 576.9,460.2 578.3,462.8 573.7,464.5 	"/>
	<polygon class="st0" points="566.7,464.3 565,469.1 562.1,470.1 555.7,469.1 554.2,470.6 550.7,469.5 547.6,473.9 549,475.3 
		549,478.2 550.5,480.8 556.9,478.8 558.8,480.5 555.9,492.8 559.8,496.5 558.6,503.6 562.3,503.8 566.5,500 568.2,501.1 576,504.4 
		577.5,503.6 577.7,500.9 579.2,499.4 590.3,492.2 592.3,494.5 599.1,496.5 602.8,491.5 604.5,492.8 607.2,492.8 607.2,491.3 
		610.7,490.1 610.7,489 612.2,487.5 613,487.8 616.5,484.3 613.6,479.1 615.1,471.8 613.2,469.5 608,470.9 607.4,470.1 613.2,463.7 
		610.7,453.5 606.8,456.4 603.4,452.9 600.2,448.5 599.9,445.9 597.6,445.4 594.9,446.2 590.6,444.2 588.5,449.1 584.8,449.4 
		582.1,453.5 580.4,452.6 577.7,453.5 573.7,451.2 570.5,454.9 570.5,456.6 576.9,460.2 578.3,462.8 573.7,464.5 	"/>
	<polygon class="st0" points="566.7,464.3 565,469.1 562.1,470.1 555.7,469.1 554.2,470.6 550.7,469.5 547.6,473.9 549,475.3 
		549,478.2 550.5,480.8 556.9,478.8 558.8,480.5 555.9,492.8 559.8,496.5 558.6,503.6 562.3,503.8 566.5,500 568.2,501.1 576,504.4 
		577.5,503.6 577.7,500.9 579.2,499.4 590.3,492.2 592.3,494.5 599.1,496.5 602.8,491.5 604.5,492.8 607.2,492.8 607.2,491.3 
		610.7,490.1 610.7,489 612.2,487.5 613,487.8 616.5,484.3 613.6,479.1 615.1,471.8 613.2,469.5 608,470.9 607.4,470.1 613.2,463.7 
		610.7,453.5 606.8,456.4 603.4,452.9 600.2,448.5 599.9,445.9 597.6,445.4 594.9,446.2 590.6,444.2 588.5,449.1 584.8,449.4 
		582.1,453.5 580.4,452.6 577.7,453.5 573.7,451.2 570.5,454.9 570.5,456.6 576.9,460.2 578.3,462.8 573.7,464.5 	"/>
	<polygon class="st0" points="739.9,450.8 733.4,453.1 729.6,449.4 727.1,452.6 722.9,452.6 721.2,449.1 719.2,443.9 715.4,443.3 
		711.3,435.7 708.6,431.9 710.6,430.1 711.3,429.4 715.7,423.2 715.4,418.2 716.9,416.3 720.3,415.7 721.2,414.2 720,411.9 
		721.7,409.5 721.7,404.9 724.2,403.7 728.2,406.1 733.1,406.9 736.4,403.1 740.5,406.4 738.7,407.8 736.6,410.9 733.4,411.9 
		732.3,412.8 735.4,414.5 741.2,411.9 750.8,415.9 751.8,424 747.9,424 747.7,426.5 749.7,429.9 747.9,431.9 750,435.2 746.8,438.9 
		745.4,437.1 740.6,449.1 	"/>
	<polygon class="st13" points="739.9,450.8 733.4,453.1 729.6,449.4 727.1,452.6 722.9,452.6 721.2,449.1 719.2,443.9 715.4,443.3 
		711.3,435.7 708.6,431.9 710.6,430.1 711.3,429.4 715.7,423.2 715.4,418.2 716.9,416.3 720.3,415.7 721.2,414.2 720,411.9 
		721.7,409.5 721.7,404.9 724.2,403.7 728.2,406.1 733.1,406.9 736.4,403.1 740.5,406.4 738.7,407.8 736.6,410.9 733.4,411.9 
		732.3,412.8 735.4,414.5 741.2,411.9 750.8,415.9 751.8,424 747.9,424 747.7,426.5 749.7,429.9 747.9,431.9 750,435.2 746.8,438.9 
		745.4,437.1 740.6,449.1 	"/>
	<polygon class="st2" points="678.7,366.5 680.8,365.9 687.2,368.5 690.1,371.4 695.3,372.9 697.4,374.6 700.3,374.1 700.9,375.2 
		699.9,381.4 702.8,383.1 704,385.4 708.4,386.2 710.1,383.3 712.8,383.7 714.5,386 714.2,388 709,388.6 709,390.9 709,392.6 
		706.9,394.9 708.4,397.6 712.8,400.5 713,404 721.7,404.9 721.7,409.5 720,411.9 721.2,414.2 720.3,415.7 716.9,416.3 715.4,418.2 
		715.7,423.2 711.3,429.4 710.6,430.1 708.2,427.9 702,427.9 699.4,425 694.5,429.9 692.6,429 694.7,425.2 694.5,424 692.6,423.6 
		686.8,426.7 681.4,416.3 683.1,413 682.5,411.9 679.5,410.9 674.7,408 676.6,404 679.5,402.6 680.2,399.3 679.1,393.5 678.5,393 
		675.6,395.9 671.2,392.4 667.9,388.3 671.2,386 672,381.9 674.1,380.4 673.7,374.9 675.2,373.7 677.9,375.6 679.5,377.9 
		683.1,375.6 684.3,374.1 683.7,371.4 679.5,369.1 	"/>
	<polygon class="st0" points="678.7,366.5 680.8,365.9 687.2,368.5 690.1,371.4 695.3,372.9 697.4,374.6 700.3,374.1 700.9,375.2 
		699.9,381.4 702.8,383.1 704,385.4 708.4,386.2 710.1,383.3 712.8,383.7 714.5,386 714.2,388 709,388.6 709,390.9 709,392.6 
		706.9,394.9 708.4,397.6 712.8,400.5 713,404 721.7,404.9 721.7,409.5 720,411.9 721.2,414.2 720.3,415.7 716.9,416.3 715.4,418.2 
		715.7,423.2 711.3,429.4 710.6,430.1 708.2,427.9 702,427.9 699.4,425 694.5,429.9 692.6,429 694.7,425.2 694.5,424 692.6,423.6 
		686.8,426.7 681.4,416.3 683.1,413 682.5,411.9 679.5,410.9 674.7,408 676.6,404 679.5,402.6 680.2,399.3 679.1,393.5 678.5,393 
		675.6,395.9 671.2,392.4 667.9,388.3 671.2,386 672,381.9 674.1,380.4 673.7,374.9 675.2,373.7 677.9,375.6 679.5,377.9 
		683.1,375.6 684.3,374.1 683.7,371.4 679.5,369.1 	"/>
	<polygon class="st13" points="678.7,366.5 680.8,365.9 687.2,368.5 690.1,371.4 695.3,372.9 697.4,374.6 700.3,374.1 700.9,375.2 
		699.9,381.4 702.8,383.1 704,385.4 708.4,386.2 710.1,383.3 712.8,383.7 714.5,386 714.2,388 709,388.6 709,390.9 709,392.6 
		706.9,394.9 708.4,397.6 712.8,400.5 713,404 721.7,404.9 721.7,409.5 720,411.9 721.2,414.2 720.3,415.7 716.9,416.3 715.4,418.2 
		715.7,423.2 711.3,429.4 710.6,430.1 708.2,427.9 702,427.9 699.4,425 694.5,429.9 692.6,429 694.7,425.2 694.5,424 692.6,423.6 
		686.8,426.7 681.4,416.3 683.1,413 682.5,411.9 679.5,410.9 674.7,408 676.6,404 679.5,402.6 680.2,399.3 679.1,393.5 678.5,393 
		675.6,395.9 671.2,392.4 667.9,388.3 671.2,386 672,381.9 674.1,380.4 673.7,374.9 675.2,373.7 677.9,375.6 679.5,377.9 
		683.1,375.6 684.3,374.1 683.7,371.4 679.5,369.1 	"/>
	<polygon class="st8" points="740.5,406.4 736.4,403.1 738.3,400.8 739.8,396.4 744.2,398.2 746.2,401.1 744.8,403.2 	"/>
	<polygon class="st0" points="740.5,406.4 736.4,403.1 738.3,400.8 739.8,396.4 744.2,398.2 746.2,401.1 744.8,403.2 	"/>
	<polygon class="st13" points="740.5,406.4 736.4,403.1 738.3,400.8 739.8,396.4 744.2,398.2 746.2,401.1 744.8,403.2 	"/>
	<polygon class="st14" points="739.8,396.4 738.3,400.8 736.4,403.1 733.1,406.9 728.2,406.1 724.2,403.7 721.7,404.9 713,404 
		712.8,400.5 708.4,397.6 706.9,394.9 709,392.6 709,390.9 709,388.6 714.2,388 714.5,386 712.8,383.7 710.1,383.3 708.4,386.2 
		704,385.4 702.8,383.1 699.9,381.4 700.9,375.2 700.3,374.1 697.4,374.6 695.3,372.9 690.1,371.4 687.2,368.5 680.8,365.9 
		681.4,362.9 683.9,361.9 688.6,365.9 690.1,365.9 694.5,365.4 697,363.3 700.5,366.2 702,363.6 702.3,362.1 705.2,360.4 
		706.1,356.9 709,356.3 716.3,361.2 721.5,363.3 731.4,379.9 731.1,381.6 737.7,384.8 739.5,387.7 742.7,389.1 744.2,392 742.1,393 
		738.7,391.8 734,391.8 729.6,390.3 727.9,391.8 731.9,393 735.8,394.7 	"/>
	<polygon class="st0" points="739.8,396.4 738.3,400.8 736.4,403.1 733.1,406.9 728.2,406.1 724.2,403.7 721.7,404.9 713,404 
		712.8,400.5 708.4,397.6 706.9,394.9 709,392.6 709,390.9 709,388.6 714.2,388 714.5,386 712.8,383.7 710.1,383.3 708.4,386.2 
		704,385.4 702.8,383.1 699.9,381.4 700.9,375.2 700.3,374.1 697.4,374.6 695.3,372.9 690.1,371.4 687.2,368.5 680.8,365.9 
		681.4,362.9 683.9,361.9 688.6,365.9 690.1,365.9 694.5,365.4 697,363.3 700.5,366.2 702,363.6 702.3,362.1 705.2,360.4 
		706.1,356.9 709,356.3 716.3,361.2 721.5,363.3 731.4,379.9 731.1,381.6 737.7,384.8 739.5,387.7 742.7,389.1 744.2,392 742.1,393 
		738.7,391.8 734,391.8 729.6,390.3 727.9,391.8 731.9,393 735.8,394.7 	"/>
	<polygon class="st13" points="739.8,396.4 738.3,400.8 736.4,403.1 733.1,406.9 728.2,406.1 724.2,403.7 721.7,404.9 713,404 
		712.8,400.5 708.4,397.6 706.9,394.9 709,392.6 709,390.9 709,388.6 714.2,388 714.5,386 712.8,383.7 710.1,383.3 708.4,386.2 
		704,385.4 702.8,383.1 699.9,381.4 700.9,375.2 700.3,374.1 697.4,374.6 695.3,372.9 690.1,371.4 687.2,368.5 680.8,365.9 
		681.4,362.9 683.9,361.9 688.6,365.9 690.1,365.9 694.5,365.4 697,363.3 700.5,366.2 702,363.6 702.3,362.1 705.2,360.4 
		706.1,356.9 709,356.3 716.3,361.2 721.5,363.3 731.4,379.9 731.1,381.6 737.7,384.8 739.5,387.7 742.7,389.1 744.2,392 742.1,393 
		738.7,391.8 734,391.8 729.6,390.3 727.9,391.8 731.9,393 735.8,394.7 	"/>
	<polygon class="st0" points="610.3,443.9 612.2,439.8 617.4,435.4 622.3,437.5 625.5,435.4 622.8,432.3 624.3,430.8 637.7,431.7 
		642.3,434.8 644.6,436.3 648.2,434 650.8,433.1 651.4,436.3 653.4,436.3 654.8,434.2 657.7,431.3 659.2,433.4 659.2,437.5 
		660.4,439.2 663.1,439.8 666,436.9 670.3,435.4 678.5,427.9 682.2,428.2 686.8,426.7 681.4,416.3 683.1,413 682.5,411.9 
		679.5,410.9 674.7,408 672.3,406.6 669.1,408 665.6,405.1 661,405.1 657.5,403.2 656.6,400.3 654.8,398.5 652.3,399.9 650,398.8 
		642.7,399.9 634.8,398.2 625.2,389.7 622.6,391.8 621.4,390.9 619.4,390.9 610.7,390.9 609.5,392 612.2,394.7 614.7,395.3 
		617,396.2 615.9,397.9 611.6,399.9 610.7,403.4 611.6,404.6 612.2,409 614.7,409.2 617.4,412.8 618.5,419.4 617.6,421.7 
		615.9,421.1 610.9,425 602.5,426.5 600.2,428.8 602,431.1 602.2,436 604.5,436.6 	"/>
	<polygon class="st0" points="610.3,443.9 612.2,439.8 617.4,435.4 622.3,437.5 625.5,435.4 622.8,432.3 624.3,430.8 637.7,431.7 
		642.3,434.8 644.6,436.3 648.2,434 650.8,433.1 651.4,436.3 653.4,436.3 654.8,434.2 657.7,431.3 659.2,433.4 659.2,437.5 
		660.4,439.2 663.1,439.8 666,436.9 670.3,435.4 678.5,427.9 682.2,428.2 686.8,426.7 681.4,416.3 683.1,413 682.5,411.9 
		679.5,410.9 674.7,408 672.3,406.6 669.1,408 665.6,405.1 661,405.1 657.5,403.2 656.6,400.3 654.8,398.5 652.3,399.9 650,398.8 
		642.7,399.9 634.8,398.2 625.2,389.7 622.6,391.8 621.4,390.9 619.4,390.9 610.7,390.9 609.5,392 612.2,394.7 614.7,395.3 
		617,396.2 615.9,397.9 611.6,399.9 610.7,403.4 611.6,404.6 612.2,409 614.7,409.2 617.4,412.8 618.5,419.4 617.6,421.7 
		615.9,421.1 610.9,425 602.5,426.5 600.2,428.8 602,431.1 602.2,436 604.5,436.6 	"/>
	<polygon class="st0" points="531.8,394.7 533.6,390.6 531.6,388.3 531.2,384.8 538.5,381.6 540.3,381.6 541.4,384.3 541.7,387.7 
		545.2,390.1 549.9,394.7 552.5,393 554.2,394.7 554.8,399.3 557.7,401.4 565.3,402 566.5,400.5 566.1,398.5 570.5,397.4 
		572.9,397.9 573.1,400.5 575.2,400.8 582.7,399.3 584.2,399.9 584.5,402 587.7,402.8 594.3,406.1 598.1,404.6 606.3,407.6 
		608,409.9 612.2,409 614.7,409.2 617.4,412.8 618.5,419.4 617.6,421.7 615.9,421.1 610.9,425 602.5,426.5 600.2,428.8 602,431.1 
		602.2,436 604.5,436.6 610.3,443.9 610.7,453.5 606.8,456.4 603.4,452.9 600.2,448.5 599.9,445.9 597.6,445.4 594.9,446.2 
		590.6,444.2 588.5,449.1 584.8,449.4 582.1,453.5 580.4,452.6 577.7,453.5 573.7,451.2 570.5,454.9 570.5,456.6 576.9,460.2 
		578.3,462.8 573.7,464.5 566.7,464.3 565.9,461.4 563.2,460.4 558.8,463.1 555.9,461.6 555.7,457.9 554.2,456 554.2,454.1 
		550.1,453.1 549,454.3 549.6,457.2 546.3,458.7 545.5,460.8 546.3,463.3 539.1,471.8 540.3,481.7 536.8,484.6 535.1,482.8 
		528,486.9 525.4,485.5 515.2,466 511.2,463.1 507.9,462.2 506.5,459.5 508.3,456.6 505.4,454.3 501.9,457.2 498.3,457.9 496,447.3 
		495.4,444.8 494.8,427.9 491.7,419.4 494,417.7 487.3,405.5 479.2,399.1 480.3,395.3 481.2,394.1 493.1,392.4 501,394.7 
		505.6,393.2 507.4,396.2 513.2,402 517.9,401.1 517.9,397.6 519.1,395.3 523.7,393.5 525.4,396.4 528,394.5 531.8,394.9 	"/>
	<polygon class="st1" points="531.8,394.7 533.6,390.6 531.6,388.3 531.2,384.8 538.5,381.6 540.3,381.6 541.4,384.3 541.7,387.7 
		545.2,390.1 549.9,394.7 552.5,393 554.2,394.7 554.8,399.3 557.7,401.4 565.3,402 566.5,400.5 566.1,398.5 570.5,397.4 
		572.9,397.9 573.1,400.5 575.2,400.8 582.7,399.3 584.2,399.9 584.5,402 587.7,402.8 594.3,406.1 598.1,404.6 606.3,407.6 
		608,409.9 612.2,409 614.7,409.2 617.4,412.8 618.5,419.4 617.6,421.7 615.9,421.1 610.9,425 602.5,426.5 600.2,428.8 602,431.1 
		602.2,436 604.5,436.6 610.3,443.9 610.7,453.5 606.8,456.4 603.4,452.9 600.2,448.5 599.9,445.9 597.6,445.4 594.9,446.2 
		590.6,444.2 588.5,449.1 584.8,449.4 582.1,453.5 580.4,452.6 577.7,453.5 573.7,451.2 570.5,454.9 570.5,456.6 576.9,460.2 
		578.3,462.8 573.7,464.5 566.7,464.3 565.9,461.4 563.2,460.4 558.8,463.1 555.9,461.6 555.7,457.9 554.2,456 554.2,454.1 
		550.1,453.1 549,454.3 549.6,457.2 546.3,458.7 545.5,460.8 546.3,463.3 539.1,471.8 540.3,481.7 536.8,484.6 535.1,482.8 
		528,486.9 525.4,485.5 515.2,466 511.2,463.1 507.9,462.2 506.5,459.5 508.3,456.6 505.4,454.3 501.9,457.2 498.3,457.9 496,447.3 
		495.4,444.8 494.8,427.9 491.7,419.4 494,417.7 487.3,405.5 479.2,399.1 480.3,395.3 481.2,394.1 493.1,392.4 501,394.7 
		505.6,393.2 507.4,396.2 513.2,402 517.9,401.1 517.9,397.6 519.1,395.3 523.7,393.5 525.4,396.4 528,394.5 531.8,394.9 	"/>
	<polygon class="st0" points="402.7,454.3 409.6,455.2 411.9,458.5 413.1,458.9 423.6,457 424.2,455.2 426.2,454.1 431.2,450 
		435.6,449.4 439.6,446.8 447.4,442.5 448.3,443.9 454.1,445.9 462.6,441.5 465.2,443.3 462.8,446.8 463.8,447.7 467.2,447.7 
		467.6,449.1 464.6,454.3 465.5,455.2 467.2,455.2 475.7,457.5 479.4,454.3 485,458.7 486.7,456.6 488.2,458.1 490,458.1 
		490.8,456.6 490.5,450 491.9,449.1 495.4,444.8 494.8,427.9 491.7,419.4 494,417.7 487.3,405.5 479.2,399.1 476.9,400.5 
		477.1,404.3 470.1,413.4 458.5,410.9 457.6,406.6 450.3,400.8 434.3,398.2 427.4,397 424.8,396.8 418.7,391.8 406.1,388.9 
		397.4,372 397.1,367.3 400.6,365.6 400.6,360.4 403.2,354 400.3,351.1 404.2,347.9 401.7,346.5 395.9,346.5 385.5,341.7 
		378.8,341.7 373.6,343.2 367.8,343.2 358.7,348.2 351.4,347.3 344.2,349.9 338.1,347.9 334.3,344.6 324.6,343.2 318.3,347.6 
		314.8,346.1 311.9,343.8 304.9,342.1 299.9,345.5 298,350.8 294.1,353.1 293.2,356.3 290.7,357.1 287.8,356.9 286.6,359.2 
		286,362.5 284.7,362.3 284.5,365.6 288,369.1 288.3,374.1 287.2,376 282,376.6 279.3,373.7 276.6,374.1 276.2,376.4 277.6,380.2 
		278.1,382.8 278.1,386.2 277.2,388.6 277.6,390.6 281,390.9 282.8,394.1 290.7,400.3 290.7,402.2 296.5,408.6 298.5,410.9 
		300.3,411.5 303.8,408 306.9,410.9 320.3,422.3 322.7,428.2 325.6,428.2 327.3,426.5 328.8,427.9 328.8,433.1 336.6,437.5 
		338.3,437.1 339.6,441.5 346.2,445.4 346.5,447.9 347.7,448.8 353.5,448.5 356.6,448.5 361.4,452 371.8,451.7 377.4,451.4 
		378.8,453.7 377.6,458.7 379.1,460.4 384.9,455.6 392.2,450.2 397.4,451.2 	"/>
	<polygon class="st0" points="404.2,347.9 408.8,349.6 416.6,346.9 415.4,345.5 413.4,345.5 412.5,343.2 413.1,341.1 416.9,339.4 
		419.6,335.1 411.4,328.4 411.1,321.4 414.8,318.5 441.6,313.2 443.4,311.8 447.4,312.4 460.9,315.5 464.9,317.9 470.7,321.4 
		474.5,321.1 480.3,317.6 487.9,318.8 492.9,316.2 503.1,322.6 508.5,320.5 511.4,327.6 518.5,331.9 523.7,336.5 527.4,335.1 
		534.7,344.6 536.2,350.8 538.8,354.6 538,361.9 532.2,366.5 533.2,369.4 530.9,371.7 528,374.3 528,379.3 525.4,381.4 522.2,380.4 
		519.6,377.9 518.1,380.8 519.9,383.3 524.5,383.9 528.9,388.3 531.6,388.3 533.6,390.6 531.8,394.7 531.8,394.9 528,394.5 
		525.4,396.4 523.7,393.5 519.1,395.3 517.9,397.6 517.9,401.1 513.2,402 507.4,396.2 505.6,393.2 501,394.7 493.1,392.4 
		481.2,394.1 480.3,395.3 479.2,399.1 476.9,400.5 477.1,404.3 470.1,413.4 458.5,410.9 457.6,406.6 450.3,400.8 434.3,398.2 
		427.4,397 424.8,396.8 418.7,391.8 406.1,388.9 397.4,372 397.1,367.3 400.6,365.6 400.6,360.4 403.2,354 400.3,351.1 	"/>
	<polygon class="st6" points="447.4,312.4 446,295.5 446.8,292 451.8,289.7 458.8,283.9 469.6,279.6 474,277.5 474,273.4 
		475.9,271.1 477.7,271.3 485,272.5 484.6,275.7 486.1,280.6 485.2,288.8 491.4,297.9 494.6,299.9 499.6,296 510,296 512.6,297 
		514.1,299.3 512.9,301.9 507.1,306.6 507.7,308.9 514.3,313.9 517,313.9 517.9,314.9 517.2,317 521.4,320.3 530.9,321.7 
		535.6,320.5 541.4,314.7 548.4,315.3 551.3,319.7 549.6,323.7 550.1,326.1 546.3,328.4 544.6,330.5 545.2,335.3 551.9,340 
		554.8,339.4 562.7,349 564.4,356.3 563.6,359.8 569,362.7 569,365 574,366.2 575.4,366.2 575.4,362.1 579.2,361.5 580.2,356.6 
		577.5,354.6 575.4,352.5 576.3,343.2 578.3,342.1 581.9,343.6 583.3,342.9 584.2,344.6 593.5,349.4 598.5,352.5 599.3,355.4 
		596.6,359.2 598.1,363.6 597.2,365.6 590.3,366.2 588.9,367.1 589.4,368.3 589.4,370.2 583.9,370.8 581,369.4 577.2,369.4 
		576.6,370.2 577.2,372.3 575.4,374.3 574.8,376.6 578.3,379.5 575.8,384.8 576.9,387.4 576.6,388.6 572.5,388.6 569.6,390.1 
		571.9,393.2 570.5,397.4 566.1,398.5 566.5,400.5 565.3,402 557.7,401.4 554.8,399.3 554.2,394.7 552.5,393 549.9,394.7 
		545.2,390.1 541.7,387.7 541.4,384.3 540.3,381.6 538.5,381.6 531.2,384.8 531.6,388.3 528.9,388.3 524.5,383.9 519.9,383.3 
		518.1,380.8 519.6,377.9 522.2,380.4 525.4,381.4 528,379.3 528,374.3 530.9,371.7 533.2,369.4 532.2,366.5 538,361.9 538.8,354.6 
		536.2,350.8 534.7,344.6 527.4,335.1 523.7,336.5 518.5,331.9 511.4,327.6 508.5,320.5 503.1,322.6 492.9,316.2 487.9,318.8 
		480.3,317.6 474.5,321.1 470.7,321.4 464.9,317.9 460.9,315.5 	"/>
	<polygon class="st0" points="447.4,312.4 446,295.5 446.8,292 451.8,289.7 458.8,283.9 469.6,279.6 474,277.5 474,273.4 
		475.9,271.1 477.7,271.3 485,272.5 484.6,275.7 486.1,280.6 485.2,288.8 491.4,297.9 494.6,299.9 499.6,296 510,296 512.6,297 
		514.1,299.3 512.9,301.9 507.1,306.6 507.7,308.9 514.3,313.9 517,313.9 517.9,314.9 517.2,317 521.4,320.3 530.9,321.7 
		535.6,320.5 541.4,314.7 548.4,315.3 551.3,319.7 549.6,323.7 550.1,326.1 546.3,328.4 544.6,330.5 545.2,335.3 551.9,340 
		554.8,339.4 562.7,349 564.4,356.3 563.6,359.8 569,362.7 569,365 574,366.2 575.4,366.2 575.4,362.1 579.2,361.5 580.2,356.6 
		577.5,354.6 575.4,352.5 576.3,343.2 578.3,342.1 581.9,343.6 583.3,342.9 584.2,344.6 593.5,349.4 598.5,352.5 599.3,355.4 
		596.6,359.2 598.1,363.6 597.2,365.6 590.3,366.2 588.9,367.1 589.4,368.3 589.4,370.2 583.9,370.8 581,369.4 577.2,369.4 
		576.6,370.2 577.2,372.3 575.4,374.3 574.8,376.6 578.3,379.5 575.8,384.8 576.9,387.4 576.6,388.6 572.5,388.6 569.6,390.1 
		571.9,393.2 570.5,397.4 566.1,398.5 566.5,400.5 565.3,402 557.7,401.4 554.8,399.3 554.2,394.7 552.5,393 549.9,394.7 
		545.2,390.1 541.7,387.7 541.4,384.3 540.3,381.6 538.5,381.6 531.2,384.8 531.6,388.3 528.9,388.3 524.5,383.9 519.9,383.3 
		518.1,380.8 519.6,377.9 522.2,380.4 525.4,381.4 528,379.3 528,374.3 530.9,371.7 533.2,369.4 532.2,366.5 538,361.9 538.8,354.6 
		536.2,350.8 534.7,344.6 527.4,335.1 523.7,336.5 518.5,331.9 511.4,327.6 508.5,320.5 503.1,322.6 492.9,316.2 487.9,318.8 
		480.3,317.6 474.5,321.1 470.7,321.4 464.9,317.9 460.9,315.5 	"/>
	<polygon class="st0" points="447.4,312.4 446,295.5 446.8,292 451.8,289.7 458.8,283.9 469.6,279.6 474,277.5 474,273.4 
		475.9,271.1 477.7,271.3 485,272.5 484.6,275.7 486.1,280.6 485.2,288.8 491.4,297.9 494.6,299.9 499.6,296 510,296 512.6,297 
		514.1,299.3 512.9,301.9 507.1,306.6 507.7,308.9 514.3,313.9 517,313.9 517.9,314.9 517.2,317 521.4,320.3 530.9,321.7 
		535.6,320.5 541.4,314.7 548.4,315.3 551.3,319.7 549.6,323.7 550.1,326.1 546.3,328.4 544.6,330.5 545.2,335.3 551.9,340 
		554.8,339.4 562.7,349 564.4,356.3 563.6,359.8 569,362.7 569,365 574,366.2 575.4,366.2 575.4,362.1 579.2,361.5 580.2,356.6 
		577.5,354.6 575.4,352.5 576.3,343.2 578.3,342.1 581.9,343.6 583.3,342.9 584.2,344.6 593.5,349.4 598.5,352.5 599.3,355.4 
		596.6,359.2 598.1,363.6 597.2,365.6 590.3,366.2 588.9,367.1 589.4,368.3 589.4,370.2 583.9,370.8 581,369.4 577.2,369.4 
		576.6,370.2 577.2,372.3 575.4,374.3 574.8,376.6 578.3,379.5 575.8,384.8 576.9,387.4 576.6,388.6 572.5,388.6 569.6,390.1 
		571.9,393.2 570.5,397.4 566.1,398.5 566.5,400.5 565.3,402 557.7,401.4 554.8,399.3 554.2,394.7 552.5,393 549.9,394.7 
		545.2,390.1 541.7,387.7 541.4,384.3 540.3,381.6 538.5,381.6 531.2,384.8 531.6,388.3 528.9,388.3 524.5,383.9 519.9,383.3 
		518.1,380.8 519.6,377.9 522.2,380.4 525.4,381.4 528,379.3 528,374.3 530.9,371.7 533.2,369.4 532.2,366.5 538,361.9 538.8,354.6 
		536.2,350.8 534.7,344.6 527.4,335.1 523.7,336.5 518.5,331.9 511.4,327.6 508.5,320.5 503.1,322.6 492.9,316.2 487.9,318.8 
		480.3,317.6 474.5,321.1 470.7,321.4 464.9,317.9 460.9,315.5 	"/>
	<polygon class="st0" points="404.1,179.4 406.5,179.4 405,184 407.1,186.5 407.3,188.2 411.9,192.8 413.1,196.3 419.2,196.6 
		421.9,198.9 423.3,198.9 426.8,206.5 430.3,215.6 428.5,221 428.9,223.1 425.6,228.6 426.5,233 437.9,237.9 450.1,239.7 
		462.8,248.4 466.9,249.9 467.2,252.2 469.9,257.7 472.5,265 475.9,271.1 474,273.4 474,277.5 469.6,279.6 458.8,283.9 451.8,289.7 
		446.8,292 446,295.5 447.4,312.4 443.4,311.8 441.6,313.2 414.8,318.5 411.1,321.4 411.4,328.4 419.6,335.1 416.9,339.4 
		413.1,341.1 412.5,343.2 413.4,345.5 415.4,345.5 416.6,346.9 408.8,349.6 404.2,347.9 401.7,346.5 395.9,346.5 385.5,341.7 
		378.8,341.7 373.6,343.2 367.8,343.2 358.7,348.2 351.4,347.3 344.2,349.9 338.1,347.9 334.3,344.6 324.6,343.2 318.3,347.6 
		314.8,346.1 311.9,343.8 304.9,342.1 303.8,340.9 300.9,340.6 296.5,333.9 292.2,332.8 281,336.3 276.4,335.1 266.8,328 
		264.2,327.8 262.1,323.2 263.6,318.5 263.1,316.2 259.6,313.9 258.3,311.6 251.1,307.4 251.1,306.2 254.6,304.8 256.6,306 
		258.7,303.9 258.1,297 258.7,291.2 254,286.5 250.8,287.3 249.6,283.9 251.4,280.4 250.5,277.1 253.6,274.3 254.8,273.1 
		254.8,270.5 259.2,268.4 263.6,267.6 267.4,266.1 270.6,266.9 272.9,266.1 273.7,266.7 274.1,269.6 276.2,270.5 281,270.2 
		286.6,264 298,266.5 303.8,262.3 320.6,258.6 321.7,256.3 323.2,249.9 327.9,246.1 329.4,246.1 329.4,244.2 329.6,228 330.5,224.8 
		325.9,223.1 325.6,221.9 330.5,220.4 343.1,219.3 345,221.9 349.4,222.8 350.6,223.1 352.3,220.8 350,218.5 359.3,199.6 
		360.8,198.6 369.2,202.7 373,202.7 374.7,205 382.8,202.5 384.9,189 388.4,186.7 392.5,186.5 395.4,182.9 396.5,179.4 398.8,178.2 
			"/>
	<polygon class="st0" points="404.1,179.4 406.5,179.4 405,184 407.1,186.5 407.3,188.2 411.9,192.8 413.1,196.3 419.2,196.6 
		421.9,198.9 423.3,198.9 426.8,206.5 430.3,215.6 428.5,221 428.9,223.1 425.6,228.6 426.5,233 437.9,237.9 450.1,239.7 
		462.8,248.4 466.9,249.9 467.2,252.2 469.9,257.7 472.5,265 475.9,271.1 474,273.4 474,277.5 469.6,279.6 458.8,283.9 451.8,289.7 
		446.8,292 446,295.5 447.4,312.4 443.4,311.8 441.6,313.2 414.8,318.5 411.1,321.4 411.4,328.4 419.6,335.1 416.9,339.4 
		413.1,341.1 412.5,343.2 413.4,345.5 415.4,345.5 416.6,346.9 408.8,349.6 404.2,347.9 401.7,346.5 395.9,346.5 385.5,341.7 
		378.8,341.7 373.6,343.2 367.8,343.2 358.7,348.2 351.4,347.3 344.2,349.9 338.1,347.9 334.3,344.6 324.6,343.2 318.3,347.6 
		314.8,346.1 311.9,343.8 304.9,342.1 303.8,340.9 300.9,340.6 296.5,333.9 292.2,332.8 281,336.3 276.4,335.1 266.8,328 
		264.2,327.8 262.1,323.2 263.6,318.5 263.1,316.2 259.6,313.9 258.3,311.6 251.1,307.4 251.1,306.2 254.6,304.8 256.6,306 
		258.7,303.9 258.1,297 258.7,291.2 254,286.5 250.8,287.3 249.6,283.9 251.4,280.4 250.5,277.1 253.6,274.3 254.8,273.1 
		254.8,270.5 259.2,268.4 263.6,267.6 267.4,266.1 270.6,266.9 272.9,266.1 273.7,266.7 274.1,269.6 276.2,270.5 281,270.2 
		286.6,264 298,266.5 303.8,262.3 320.6,258.6 321.7,256.3 323.2,249.9 327.9,246.1 329.4,246.1 329.4,244.2 329.6,228 330.5,224.8 
		325.9,223.1 325.6,221.9 330.5,220.4 343.1,219.3 345,221.9 349.4,222.8 350.6,223.1 352.3,220.8 350,218.5 359.3,199.6 
		360.8,198.6 369.2,202.7 373,202.7 374.7,205 382.8,202.5 384.9,189 388.4,186.7 392.5,186.5 395.4,182.9 396.5,179.4 398.8,178.2 
			"/>
	<polygon class="st6" points="617.4,372.9 615.9,369.4 618.5,360.4 614.7,343.2 617.4,338.8 618.5,334.8 615.1,327.8 618.2,322.8 
		618.8,318.2 620.5,314.7 620.3,310.6 618.8,309.5 616.5,312 610.3,312.4 607.2,317 607.4,319.7 606.8,321.4 604.3,322.2 
		594.7,335.9 593.5,335.1 590.8,334.5 585.4,334.8 583.5,337.4 583.3,342.9 584.2,344.6 593.5,349.4 598.5,352.5 599.3,355.4 
		596.6,359.2 598.1,363.5 597.2,365.6 590.3,366.2 588.9,367.1 589.4,368.3 589.4,370.2 583.9,370.8 581,369.4 577.2,369.4 
		576.6,370.2 577.2,372.3 575.4,374.3 574.8,376.6 578.3,379.6 575.8,384.8 576.9,387.4 576.6,388.6 572.5,388.6 569.6,390.1 
		571.9,393.2 570.5,397.4 572.9,397.9 573.1,400.5 575.2,400.8 582.7,399.3 584.2,399.9 584.5,402 587.7,402.8 594.3,406.1 
		598.1,404.6 606.3,407.6 608,409.9 612.2,409 611.6,404.6 610.7,403.4 611.6,399.9 615.9,397.9 617,396.2 614.7,395.3 612.2,394.7 
		609.5,392 610.7,390.9 619.4,390.9 621.4,390.9 622.6,391.8 625.2,389.7 625.2,386.2 617.4,374.3 	"/>
	<polygon class="st0" points="617.4,372.9 615.9,369.4 618.5,360.4 614.7,343.2 617.4,338.8 618.5,334.8 615.1,327.8 618.2,322.8 
		618.8,318.2 620.5,314.7 620.3,310.6 618.8,309.5 616.5,312 610.3,312.4 607.2,317 607.4,319.7 606.8,321.4 604.3,322.2 
		594.7,335.9 593.5,335.1 590.8,334.5 585.4,334.8 583.5,337.4 583.3,342.9 584.2,344.6 593.5,349.4 598.5,352.5 599.3,355.4 
		596.6,359.2 598.1,363.5 597.2,365.6 590.3,366.2 588.9,367.1 589.4,368.3 589.4,370.2 583.9,370.8 581,369.4 577.2,369.4 
		576.6,370.2 577.2,372.3 575.4,374.3 574.8,376.6 578.3,379.6 575.8,384.8 576.9,387.4 576.6,388.6 572.5,388.6 569.6,390.1 
		571.9,393.2 570.5,397.4 572.9,397.9 573.1,400.5 575.2,400.8 582.7,399.3 584.2,399.9 584.5,402 587.7,402.8 594.3,406.1 
		598.1,404.6 606.3,407.6 608,409.9 612.2,409 611.6,404.6 610.7,403.4 611.6,399.9 615.9,397.9 617,396.2 614.7,395.3 612.2,394.7 
		609.5,392 610.7,390.9 619.4,390.9 621.4,390.9 622.6,391.8 625.2,389.7 625.2,386.2 617.4,374.3 	"/>
	<polygon class="st0" points="617.4,372.9 615.9,369.4 618.5,360.4 614.7,343.2 617.4,338.8 618.5,334.8 615.1,327.8 618.2,322.8 
		618.8,318.2 620.5,314.7 620.3,310.6 618.8,309.5 616.5,312 610.3,312.4 607.2,317 607.4,319.7 606.8,321.4 604.3,322.2 
		594.7,335.9 593.5,335.1 590.8,334.5 585.4,334.8 583.5,337.4 583.3,342.9 584.2,344.6 593.5,349.4 598.5,352.5 599.3,355.4 
		596.6,359.2 598.1,363.5 597.2,365.6 590.3,366.2 588.9,367.1 589.4,368.3 589.4,370.2 583.9,370.8 581,369.4 577.2,369.4 
		576.6,370.2 577.2,372.3 575.4,374.3 574.8,376.6 578.3,379.6 575.8,384.8 576.9,387.4 576.6,388.6 572.5,388.6 569.6,390.1 
		571.9,393.2 570.5,397.4 572.9,397.9 573.1,400.5 575.2,400.8 582.7,399.3 584.2,399.9 584.5,402 587.7,402.8 594.3,406.1 
		598.1,404.6 606.3,407.6 608,409.9 612.2,409 611.6,404.6 610.7,403.4 611.6,399.9 615.9,397.9 617,396.2 614.7,395.3 612.2,394.7 
		609.5,392 610.7,390.9 619.4,390.9 621.4,390.9 622.6,391.8 625.2,389.7 625.2,386.2 617.4,374.3 	"/>
	<polygon class="st3" points="625.2,389.7 634.8,398.2 642.7,399.9 650,398.8 652.3,399.9 654.8,398.5 656.6,400.3 657.5,403.2 
		661,405.1 665.6,405.1 669.1,408 672.3,406.6 674.7,408 676.6,404 679.5,402.6 680.2,399.3 679.1,393.5 678.5,393 675.6,395.9 
		671.2,392.4 667.9,388.3 671.2,386 672,381.9 674.1,380.4 673.7,374.9 675.2,373.7 677.9,375.6 679.5,377.9 683.1,375.6 
		684.3,374.1 683.7,371.4 679.5,369.1 678.7,366.5 671.4,367.3 666.8,363.3 664.8,362.7 664.8,360 674.9,348.8 671.2,349.6 
		668.9,351.3 667.9,349.9 667.9,348.2 666.2,347.5 661.6,349.4 650,347.9 649.4,357.5 643.8,361.9 636.3,363.3 625.7,370.6 
		617.4,372.9 617.4,374.3 625.2,386.2 	"/>
	<polygon class="st0" points="625.2,389.7 634.8,398.2 642.7,399.9 650,398.8 652.3,399.9 654.8,398.5 656.6,400.3 657.5,403.2 
		661,405.1 665.6,405.1 669.1,408 672.3,406.6 674.7,408 676.6,404 679.5,402.6 680.2,399.3 679.1,393.5 678.5,393 675.6,395.9 
		671.2,392.4 667.9,388.3 671.2,386 672,381.9 674.1,380.4 673.7,374.9 675.2,373.7 677.9,375.6 679.5,377.9 683.1,375.6 
		684.3,374.1 683.7,371.4 679.5,369.1 678.7,366.5 671.4,367.3 666.8,363.3 664.8,362.7 664.8,360 674.9,348.8 671.2,349.6 
		668.9,351.3 667.9,349.9 667.9,348.2 666.2,347.5 661.6,349.4 650,347.9 649.4,357.5 643.8,361.9 636.3,363.3 625.7,370.6 
		617.4,372.9 617.4,374.3 625.2,386.2 	"/>
	<polygon class="st0" points="625.2,389.7 634.8,398.2 642.7,399.9 650,398.8 652.3,399.9 654.8,398.5 656.6,400.3 657.5,403.2 
		661,405.1 665.6,405.1 669.1,408 672.3,406.6 674.7,408 676.6,404 679.5,402.6 680.2,399.3 679.1,393.5 678.5,393 675.6,395.9 
		671.2,392.4 667.9,388.3 671.2,386 672,381.9 674.1,380.4 673.7,374.9 675.2,373.7 677.9,375.6 679.5,377.9 683.1,375.6 
		684.3,374.1 683.7,371.4 679.5,369.1 678.7,366.5 671.4,367.3 666.8,363.3 664.8,362.7 664.8,360 674.9,348.8 671.2,349.6 
		668.9,351.3 667.9,349.9 667.9,348.2 666.2,347.5 661.6,349.4 650,347.9 649.4,357.5 643.8,361.9 636.3,363.3 625.7,370.6 
		617.4,372.9 617.4,374.3 625.2,386.2 	"/>
	<polygon class="st15" points="617.4,372.9 625.7,370.6 636.3,363.3 643.8,361.9 649.4,357.5 650,347.9 647.3,344.4 648.2,341.5 
		650,338.8 650.5,334.8 652.3,331.9 649.4,326.1 645.2,321.4 647.6,313.9 652.5,310.6 653.4,305.7 651.4,301.4 651.4,296 
		648.2,293.1 640.6,297 639.4,295.8 635.4,298.7 632.2,298.5 625.7,307.7 623.8,307.7 620.3,310.6 620.5,314.7 618.8,318.2 
		618.2,322.8 615.1,327.8 618.5,334.8 617.4,338.8 614.7,343.2 618.5,360.4 615.9,369.4 	"/>
	<polygon class="st0" points="617.4,372.9 625.7,370.6 636.3,363.3 643.8,361.9 649.4,357.5 650,347.9 647.3,344.4 648.2,341.5 
		650,338.8 650.5,334.8 652.3,331.9 649.4,326.1 645.2,321.4 647.6,313.9 652.5,310.6 653.4,305.7 651.4,301.4 651.4,296 
		648.2,293.1 640.6,297 639.4,295.8 635.4,298.7 632.2,298.5 625.7,307.7 623.8,307.7 620.3,310.6 620.5,314.7 618.8,318.2 
		618.2,322.8 615.1,327.8 618.5,334.8 617.4,338.8 614.7,343.2 618.5,360.4 615.9,369.4 	"/>
	<polygon class="st13" points="680.8,365.9 681.4,362.9 683.9,361.9 688.6,365.9 690.1,365.9 694.5,365.4 697,363.3 700.5,366.2 
		702,363.6 702.3,362.1 705.2,360.4 706.1,356.9 709,356.3 717.1,342.6 715.7,340.3 717.1,338.8 718.8,339.4 721.5,338 722.9,334.8 
		729.6,328.6 734.8,326.9 737.2,324.6 736.6,319.7 733.1,319.3 725.2,320.3 719.8,317.6 716.5,318.2 708.4,328.6 706.1,330.1 
		700.9,327.8 700.5,325.1 699.4,320.5 696.5,318.8 691.8,319.9 688.9,317.9 684.5,323.4 679.9,324.6 673.5,330.5 666.5,343.2 
		668.3,346.7 667.9,348.2 667.9,349.9 668.9,351.3 671.2,349.6 674.9,348.8 664.8,360 664.8,362.7 666.8,363.3 671.4,367.3 
		678.7,366.5 	"/>
	<polygon class="st0" points="680.8,365.9 681.4,362.9 683.9,361.9 688.6,365.9 690.1,365.9 694.5,365.4 697,363.3 700.5,366.2 
		702,363.6 702.3,362.1 705.2,360.4 706.1,356.9 709,356.3 717.1,342.6 715.7,340.3 717.1,338.8 718.8,339.4 721.5,338 722.9,334.8 
		729.6,328.6 734.8,326.9 737.2,324.6 736.6,319.7 733.1,319.3 725.2,320.3 719.8,317.6 716.5,318.2 708.4,328.6 706.1,330.1 
		700.9,327.8 700.5,325.1 699.4,320.5 696.5,318.8 691.8,319.9 688.9,317.9 684.5,323.4 679.9,324.6 673.5,330.5 666.5,343.2 
		668.3,346.7 667.9,348.2 667.9,349.9 668.9,351.3 671.2,349.6 674.9,348.8 664.8,360 664.8,362.7 666.8,363.3 671.4,367.3 
		678.7,366.5 	"/>
	<polygon class="st16" points="667.9,348.2 668.3,346.7 666.5,343.2 673.5,330.5 679.9,324.6 684.5,323.4 688.9,317.9 687.2,316.8 
		685.6,312.8 682.2,314.1 676.6,312.6 676.4,311.2 676.2,301.9 673.2,303.1 671.4,304.8 667.7,303.7 662.7,304.5 661.9,302.2 
		662.5,297.9 666.2,293.5 667.1,288.5 670.8,284.8 677.6,288.3 679.3,288.3 680.5,293.1 682.5,294.1 683.4,297.2 683.1,299.3 
		687.2,302.2 687.8,304.5 691.2,306 699.7,301.4 699.7,298.7 704.6,291.4 701.1,286.5 698.5,286.2 693.6,282.9 695.3,277.7 
		687.8,277.1 684.5,272.3 684.9,269.6 678.5,262.6 674.3,264.6 670.8,268.2 672,270.8 671.2,272.5 666.2,272.8 663.9,274.8 
		661.9,274 659.8,276 655.2,279.6 653.1,278.1 653.1,273.4 651.4,272.5 648.8,273.7 645.6,280.4 644.4,286.8 648.2,293.1 651.4,296 
		651.4,301.4 653.4,305.7 652.5,310.6 647.5,313.9 645.2,321.4 649.4,326.1 652.3,331.9 650.5,334.8 650,338.8 648.2,341.5 
		647.3,344.4 650,347.9 661.6,349.4 666.2,347.6 	"/>
	<polygon class="st0" points="667.9,348.2 668.3,346.7 666.5,343.2 673.5,330.5 679.9,324.6 684.5,323.4 688.9,317.9 687.2,316.8 
		685.6,312.8 682.2,314.1 676.6,312.6 676.4,311.2 676.2,301.9 673.2,303.1 671.4,304.8 667.7,303.7 662.7,304.5 661.9,302.2 
		662.5,297.9 666.2,293.5 667.1,288.5 670.8,284.8 677.6,288.3 679.3,288.3 680.5,293.1 682.5,294.1 683.4,297.2 683.1,299.3 
		687.2,302.2 687.8,304.5 691.2,306 699.7,301.4 699.7,298.7 704.6,291.4 701.1,286.5 698.5,286.2 693.6,282.9 695.3,277.7 
		687.8,277.1 684.5,272.3 684.9,269.6 678.5,262.6 674.3,264.6 670.8,268.2 672,270.8 671.2,272.5 666.2,272.8 663.9,274.8 
		661.9,274 659.8,276 655.2,279.6 653.1,278.1 653.1,273.4 651.4,272.5 648.8,273.7 645.6,280.4 644.4,286.8 648.2,293.1 651.4,296 
		651.4,301.4 653.4,305.7 652.5,310.6 647.5,313.9 645.2,321.4 649.4,326.1 652.3,331.9 650.5,334.8 650,338.8 648.2,341.5 
		647.3,344.4 650,347.9 661.6,349.4 666.2,347.6 	"/>
	<polygon class="st15" points="667.9,348.2 668.3,346.7 666.5,343.2 673.5,330.5 679.9,324.6 684.5,323.4 688.9,317.9 687.2,316.8 
		685.6,312.8 682.2,314.1 676.6,312.6 676.4,311.2 676.2,301.9 673.2,303.1 671.4,304.8 667.7,303.7 662.7,304.5 661.9,302.2 
		662.5,297.9 666.2,293.5 667.1,288.5 670.8,284.8 677.6,288.3 679.3,288.3 680.5,293.1 682.5,294.1 683.4,297.2 683.1,299.3 
		687.2,302.2 687.8,304.5 691.2,306 699.7,301.4 699.7,298.7 704.6,291.4 701.1,286.5 698.5,286.2 693.6,282.9 695.3,277.7 
		687.8,277.1 684.5,272.3 684.9,269.6 678.5,262.6 674.3,264.6 670.8,268.2 672,270.8 671.2,272.5 666.2,272.8 663.9,274.8 
		661.9,274 659.8,276 655.2,279.6 653.1,278.1 653.1,273.4 651.4,272.5 648.8,273.7 645.6,280.4 644.4,286.8 648.2,293.1 651.4,296 
		651.4,301.4 653.4,305.7 652.5,310.6 647.5,313.9 645.2,321.4 649.4,326.1 652.3,331.9 650.5,334.8 650,338.8 648.2,341.5 
		647.3,344.4 650,347.9 661.6,349.4 666.2,347.6 	"/>
	<polygon class="st17" points="685.6,312.8 682.2,314.1 676.6,312.6 676.4,311.2 676.2,301.9 679.9,300.2 679.3,298.5 680.1,294.8 
		680.5,293.1 682.5,294.1 683.4,297.2 683.1,299.3 687.2,302.2 687.8,304.5 685.4,306.2 684.5,310.1 	"/>
	<polygon class="st0" points="685.6,312.8 682.2,314.1 676.6,312.6 676.4,311.2 676.2,301.9 679.9,300.2 679.3,298.5 680.1,294.8 
		680.5,293.1 682.5,294.1 683.4,297.2 683.1,299.3 687.2,302.2 687.8,304.5 685.4,306.2 684.5,310.1 	"/>
	<polygon class="st15" points="685.6,312.8 682.2,314.1 676.6,312.6 676.4,311.2 676.2,301.9 679.9,300.2 679.3,298.5 680.1,294.8 
		680.5,293.1 682.5,294.1 683.4,297.2 683.1,299.3 687.2,302.2 687.8,304.5 685.4,306.2 684.5,310.1 	"/>
	<polygon class="st18" points="676.2,301.9 675.8,298.9 674.9,297 680.1,294.8 680.5,293.1 679.3,288.3 677.6,288.3 670.8,284.8 
		667.1,288.5 666.2,293.5 662.5,297.9 661.9,302.2 662.7,304.5 667.7,303.7 671.4,304.8 673.2,303.1 	"/>
	<polygon class="st0" points="676.2,301.9 675.8,298.9 674.9,297 680.1,294.8 680.5,293.1 679.3,288.3 677.6,288.3 670.8,284.8 
		667.1,288.5 666.2,293.5 662.5,297.9 661.9,302.2 662.7,304.5 667.7,303.7 671.4,304.8 673.2,303.1 	"/>
	<polygon class="st15" points="676.2,301.9 675.8,298.9 674.9,297 680.1,294.8 680.5,293.1 679.3,288.3 677.6,288.3 670.8,284.8 
		667.1,288.5 666.2,293.5 662.5,297.9 661.9,302.2 662.7,304.5 667.7,303.7 671.4,304.8 673.2,303.1 	"/>
	<polygon class="st19" points="583.3,342.9 583.6,337.4 585.4,334.8 584.5,332.2 575.2,328.6 575.8,324.9 578.7,320.8 576.9,314.5 
		576,313.5 570,317.6 567.1,326.9 566.1,333.4 561.2,337.4 558.3,338.6 554.8,339.4 562.7,349 564.4,356.3 563.6,359.8 569,362.7 
		569,365 574,366.2 575.4,366.2 575.4,362.1 579.2,361.5 580.2,356.6 577.5,354.6 575.4,352.5 576.3,343.2 578.3,342.1 581.9,343.6 
			"/>
	<polygon class="st0" points="583.3,342.9 583.6,337.4 585.4,334.8 584.5,332.2 575.2,328.6 575.8,324.9 578.7,320.8 576.9,314.5 
		576,313.5 570,317.6 567.1,326.9 566.1,333.4 561.2,337.4 558.3,338.6 554.8,339.4 562.7,349 564.4,356.3 563.6,359.8 569,362.7 
		569,365 574,366.2 575.4,366.2 575.4,362.1 579.2,361.5 580.2,356.6 577.5,354.6 575.4,352.5 576.3,343.2 578.3,342.1 581.9,343.6 
			"/>
	<polygon class="st6" points="583.3,342.9 583.6,337.4 585.4,334.8 584.5,332.2 575.2,328.6 575.8,324.9 578.7,320.8 576.9,314.5 
		576,313.5 570,317.6 567.1,326.9 566.1,333.4 561.2,337.4 558.3,338.6 554.8,339.4 562.7,349 564.4,356.3 563.6,359.8 569,362.7 
		569,365 574,366.2 575.4,366.2 575.4,362.1 579.2,361.5 580.2,356.6 577.5,354.6 575.4,352.5 576.3,343.2 578.3,342.1 581.9,343.6 
			"/>
	<path class="st15" d="M598.7,273.1l-14.8,1.5l-2.3-0.2l-17.2,7.3l-7.9,5l-2.3-1.2l-0.8-2.3l-10.5-0.6l-12.1-3.8l-3.3-3.8l-17.7-2.1
		l-3.3,1.5l-21.5-2.1l-0.4,3.2l1.5,5l-0.8,8.1l6.2,9.1l3.2,2.1l5-3.9H510l2.7,1l1.5,2.3l-1.2,2.5l-5.8,4.7l0.6,2.3l6.7,5h2.7
		l0.8,1.1l-0.6,2.1l4.1,3.3l9.6,1.5l4.6-1.2l5.8-5.8l7,0.6l2.9,4.4l-1.7,4l0.5,2.4l-3.8,2.3l-1.7,2.1l0.6,4.8l6.7,4.7l2.9-0.7
		l3.5-0.8l2.9-1.2l4.8-4l1-6.4l2.9-9.3l6.1-4.1l0.9,1l1.8,6.3l-2.9,4.1l-0.6,3.8l9.3,3.5l0.8,2.7l5.5-0.4l2.7,0.6l1.2,0.9l9.6-13.7
		l2.5-0.8l0.6-1.7l-0.2-2.7l3.2-4.6l6.2-0.4c0,0-1.8-18.6-7.3-21.4C616.5,286.6,598.7,273.1,598.7,273.1z"/>
	<path class="st15" d="M678.5,262.9l6.4,7l-0.4,2.7l3.3,4.8l7.5,0.6l1.7-3.5l-1.9-10.2l1.7-1.7l3.5,2.3l3.1,4.7l5-7.6l2.3-0.6
		l3.8-3.8h1.8l3.2-3.2h1.8l1.7-2.9h4.6l4.1-4.1l2.1-2.1V243l-3.3-1.7v-4.4l-6.1-7.6l-5.8,5.6l-1.7-1.2l-0.4-3.2l-2.3-3.5l-0.6-4v-4
		l-4-2.9l-0.6-1.7l1.1-2.4l7.6,2.1l0.2-3.5l2.7-3.2l-1.8-1.7l0.4-3.3l3.8-1.7l0.8-1.2l-0.6-1.1l-4,1.1l-7.3-5l-0.4-1.5l3.5-4.6
		l7.3-10.8l0.6-1.1h1.2l2.3,2.9l0.6,0.5l0.2-13.6l2.3-1.2V160l-0.6-8.5l2.9-11.9l-8.7-6.4l-6.7,5.6l-3.5,0.5l-1.7,1.8l-5.8-0.8
		l-2.9-3.3l-1.7-5.2l0.2-2.1l-4.6-2.9l-2.7,4.4l-5-3.2l-0.8-0.9l2.9-7.6l-2.3-3.2h-2.1l-5.2,3.8l-4.4,6.4l1.7,1.1l3.3,0.4l2.5,6.7
		l-1.5,2.7l-2.5,3.8l-4.7,17.5l1.8,2.9l-1.5,2.5l-10.8,7.9l-5.8-1.1l-3.3-1.2l-0.5,1.7l-4.7,18.9l-2.3,2.4l1.2,3.4l2.9,2.4l4.8-2.7
		l7.9,0.6l2.3-3.8l4.1-1l7.9,2.9l9.6,9.9v2.1l-2.1,1.5l-11,0.6l-3.8,2.9l-2.9-0.4l-2.1,3.3l-5.2,1.1l-3.5,5.2l-0.6,3.9l-7.5,4.8
		l-4.7,0.6c0,0,10.1,16.4,15.8,18.4C667.9,250.5,678.5,262.9,678.5,262.9z"/>
	<polygon class="st0" points="554.8,339.4 558.3,338.6 561.2,337.4 566.1,333.4 567.1,326.9 570,317.6 576,313.5 576.9,314.5 
		578.7,320.8 575.8,324.9 575.2,328.6 584.5,332.2 585.4,334.8 590.8,334.5 593.5,335.1 594.7,335.9 604.3,322.2 606.8,321.4 
		607.4,319.7 607.2,317 610.3,312.4 616.5,312 618.8,309.5 620.3,310.6 623.8,307.7 625.7,307.7 632.2,298.5 635.4,298.7 
		639.4,295.8 640.6,297 648.2,293.1 644.4,286.8 645.6,280.4 648.8,273.7 651.4,272.5 653.1,273.4 653.1,278.1 655.2,279.6 
		659.8,276 661.9,274 663.9,274.8 666.2,272.8 671.2,272.5 672,270.8 670.8,268.2 674.3,264.6 678.5,262.6 684.9,269.6 684.5,272.3 
		687.8,277.1 695.3,277.7 697,274.2 695.1,264 696.8,262.3 700.3,264.6 703.4,269.4 708.4,261.7 710.7,261.1 714.5,257.4 
		716.3,257.4 719.4,254.2 721.2,254.2 722.9,251.3 727.6,251.3 731.7,247.2 733.7,245.1 733.7,242.8 730.5,241.1 730.5,236.8 
		724.4,229.1 718.6,234.7 716.9,233.5 716.5,230.3 714.2,226.8 713.6,222.8 713.6,218.7 709.6,215.8 709,214.1 710.1,211.7 
		717.7,213.7 718,210.2 720.6,207.1 718.8,205.4 719.2,202.1 722.9,200.4 723.8,199.2 723.2,198.1 719.2,199.2 711.9,194.2 
		711.5,192.8 715.1,188.2 722.3,177.4 722.9,176.3 724.2,176.3 726.5,179.2 727.1,179.7 727.3,166.1 729.6,164.9 729.6,159.7 
		729,151.2 731.9,139.3 723.2,132.9 716.5,138.5 713,138.9 711.3,140.8 705.5,139.9 702.6,136.6 700.9,131.4 701.1,129.4 
		696.5,126.5 693.9,130.8 688.9,127.7 688,126.8 690.9,119.2 688.6,116 686.6,116 681.4,119.8 677,126.2 678.7,127.3 682,127.7 
		684.5,134.3 683.1,137 680.5,140.8 675.8,158.2 677.6,161.1 676.2,163.7 665.4,171.6 659.6,170.5 656.3,169.2 655.8,170.9 
		651.1,189.9 648.8,192.3 650,195.7 652.9,198.1 657.7,195.4 665.6,196 667.9,192.3 672,191.3 679.9,194.2 689.5,204.2 689.5,206.2 
		687.4,207.7 676.4,208.3 672.6,211.2 669.7,210.8 667.7,214.1 662.5,215.2 658.9,220.4 658.3,224.3 650.8,229.1 646.1,229.7 
		640.9,236.8 635.9,239.7 626.3,237.6 623.2,236.2 619.4,239.9 617.6,246.6 622.8,254.2 619.4,257.7 614.7,260.6 607.8,269.4 
		598.7,273.4 583.9,274.8 581.6,274.6 564.4,281.9 556.5,286.8 554.2,285.6 553.4,283.3 542.8,282.7 530.7,278.9 527.4,275.2 
		509.7,273.1 506.5,274.6 485,272.5 484.6,275.7 486.1,280.6 485.2,288.8 491.4,297.9 494.6,299.9 499.6,296 510,296 512.6,297 
		514.1,299.3 512.9,301.9 507.1,306.6 507.7,308.9 514.3,313.9 517,313.9 517.9,314.9 517.2,317 521.4,320.3 530.9,321.7 
		535.6,320.5 541.4,314.7 548.4,315.3 551.3,319.7 549.6,323.7 550.1,326.1 546.3,328.4 544.6,330.5 545.2,335.3 551.9,340 	"/>
	<polygon class="st20" points="747.4,285 754.3,274.8 758.7,269.9 758.1,265 753.5,259.7 752.9,255.3 744.5,244 744.2,245.1 
		742.5,246.9 738.9,242.8 734,241.4 733.7,242.8 733.7,245.1 731.7,247.2 727.6,251.3 722.9,251.3 721.2,254.2 719.4,254.2 
		716.3,257.4 714.5,257.4 710.7,261.1 708.4,261.7 703.4,269.4 700.3,264.6 696.8,262.3 695.1,264 697,274.2 695.3,277.7 
		693.6,282.9 698.5,286.2 701.1,286.5 704.6,291.4 707.2,290 711.3,285 715.4,278.1 722.3,276.6 726.7,281 723.5,287.9 719.4,294.3 
		723.2,297 722.9,300.2 720,303.1 720.6,304.3 725.6,301.6 732.9,292 743.9,285.9 	"/>
	<polygon class="st0" points="747.4,285 754.3,274.8 758.7,269.9 758.1,265 753.5,259.7 752.9,255.3 744.5,244 744.2,245.1 
		742.5,246.9 738.9,242.8 734,241.4 733.7,242.8 733.7,245.1 731.7,247.2 727.6,251.3 722.9,251.3 721.2,254.2 719.4,254.2 
		716.3,257.4 714.5,257.4 710.7,261.1 708.4,261.7 703.4,269.4 700.3,264.6 696.8,262.3 695.1,264 697,274.2 695.3,277.7 
		693.6,282.9 698.5,286.2 701.1,286.5 704.6,291.4 707.2,290 711.3,285 715.4,278.1 722.3,276.6 726.7,281 723.5,287.9 719.4,294.3 
		723.2,297 722.9,300.2 720,303.1 720.6,304.3 725.6,301.6 732.9,292 743.9,285.9 	"/>
	<polygon class="st21" points="747.4,285 754.3,274.8 758.7,269.9 758.1,265 753.5,259.7 752.9,255.3 744.5,244 744.2,245.1 
		742.5,246.9 738.9,242.8 734,241.4 733.7,242.8 733.7,245.1 731.7,247.2 727.6,251.3 722.9,251.3 721.2,254.2 719.4,254.2 
		716.3,257.4 714.5,257.4 710.7,261.1 708.4,261.7 703.4,269.4 700.3,264.6 696.8,262.3 695.1,264 697,274.2 695.3,277.7 
		693.6,282.9 698.5,286.2 701.1,286.5 704.6,291.4 707.2,290 711.3,285 715.4,278.1 722.3,276.6 726.7,281 723.5,287.9 719.4,294.3 
		723.2,297 722.9,300.2 720,303.1 720.6,304.3 725.6,301.6 732.9,292 743.9,285.9 	"/>
	<polygon class="st21" points="802.1,223.8 800,223.7 797.1,223.7 792.8,222.2 791.3,219.6 789.9,221.6 787.8,220.2 783.2,225.4 
		782.3,226.8 780.3,227.2 777.4,223.9 774.7,222.8 771.8,217 769.7,218.5 770.3,223.7 768.9,224.5 765.1,220.4 763.7,218.5 
		760.8,218.5 759.1,214.1 755.2,212 749.7,214.1 747.7,213.7 744.5,210.6 740.2,213.1 737.7,213.1 734.8,214.3 730.5,211.2 
		727.6,205.9 720.6,207.1 718,210.2 717.7,213.7 710.1,211.7 709,214.1 709.6,215.8 713.6,218.7 713.6,222.8 714.2,226.8 
		716.5,230.3 716.9,233.5 718.6,234.7 724.4,229.1 730.5,236.8 730.5,241.1 733.7,242.8 734,241.4 738.9,242.8 742.5,246.9 
		744.2,245.1 744.5,244 752.9,255.3 753.5,259.7 758.1,265 758.7,269.9 762.8,267.3 766.6,256.5 768.3,255.9 772.4,258.2 
		779.1,257.4 781.4,255.3 778.2,250.5 779.1,249.2 785.2,247.2 787.8,242.2 791.1,240.8 791.3,235.9 792.2,232.6 794,232 
		795.7,233.9 797.4,235.3 801.7,229.5 802.9,225.1 	"/>
	<polygon class="st0" points="802.1,223.8 800,223.7 797.1,223.7 792.8,222.2 791.3,219.6 789.9,221.6 787.8,220.2 783.2,225.4 
		782.3,226.8 780.3,227.2 777.4,223.9 774.7,222.8 771.8,217 769.7,218.5 770.3,223.7 768.9,224.5 765.1,220.4 763.7,218.5 
		760.8,218.5 759.1,214.1 755.2,212 749.7,214.1 747.7,213.7 744.5,210.6 740.2,213.1 737.7,213.1 734.8,214.3 730.5,211.2 
		727.6,205.9 720.6,207.1 718,210.2 717.7,213.7 710.1,211.7 709,214.1 709.6,215.8 713.6,218.7 713.6,222.8 714.2,226.8 
		716.5,230.3 716.9,233.5 718.6,234.7 724.4,229.1 730.5,236.8 730.5,241.1 733.7,242.8 734,241.4 738.9,242.8 742.5,246.9 
		744.2,245.1 744.5,244 752.9,255.3 753.5,259.7 758.1,265 758.7,269.9 762.8,267.3 766.6,256.5 768.3,255.9 772.4,258.2 
		779.1,257.4 781.4,255.3 778.2,250.5 779.1,249.2 785.2,247.2 787.8,242.2 791.1,240.8 791.3,235.9 792.2,232.6 794,232 
		795.7,233.9 797.4,235.3 801.7,229.5 802.9,225.1 	"/>
	<polygon class="st0" points="802.1,223.8 800,223.7 797.1,223.7 792.8,222.2 791.3,219.6 789.9,221.6 787.8,220.2 783.2,225.4 
		782.3,226.8 780.3,227.2 777.4,223.9 774.7,222.8 771.8,217 769.7,218.5 770.3,223.7 768.9,224.5 765.1,220.4 763.7,218.5 
		760.8,218.5 759.1,214.1 755.2,212 749.7,214.1 747.7,213.7 744.5,210.6 740.2,213.1 737.7,213.1 734.8,214.3 730.5,211.2 
		727.6,205.9 720.6,207.1 718,210.2 717.7,213.7 710.1,211.7 709,214.1 709.6,215.8 713.6,218.7 713.6,222.8 714.2,226.8 
		716.5,230.3 716.9,233.5 718.6,234.7 724.4,229.1 730.5,236.8 730.5,241.1 733.7,242.8 734,241.4 738.9,242.8 742.5,246.9 
		744.2,245.1 744.5,244 752.9,255.3 753.5,259.7 758.1,265 758.7,269.9 762.8,267.3 766.6,256.5 768.3,255.9 772.4,258.2 
		779.1,257.4 781.4,255.3 778.2,250.5 779.1,249.2 785.2,247.2 787.8,242.2 791.1,240.8 791.3,235.9 792.2,232.6 794,232 
		795.7,233.9 797.4,235.3 801.7,229.5 802.9,225.1 	"/>
	<polygon class="st21" points="720.6,207.1 727.6,205.9 730.5,211.2 734.8,214.3 737.7,213.1 740.2,213.1 744.5,210.6 747.7,213.7 
		749.7,214.1 755.2,212 759.1,214.1 760.8,218.5 763.7,218.5 765.1,220.4 768.9,224.5 770.3,223.7 769.7,218.5 771.8,217 
		774.7,222.8 777.4,223.9 780.3,227.2 782.3,226.8 783.2,225.4 787.8,220.2 789.9,221.6 791.3,219.6 792.8,222.2 797.1,223.7 
		800,223.7 802.1,223.8 800.9,221.6 800.3,214.6 795.1,206.5 798,203.6 800.6,198.6 810.5,198.6 812.3,196.9 811.7,193.1 
		813.7,189.4 813.1,187.3 814,183.8 813.7,165.7 816.6,159.9 813.4,156.2 814,153.9 812.5,151.8 808.8,153.2 804.4,158.2 800,160.3 
		795.7,166.3 784.9,170.1 779.9,166.3 780.5,164 778,160.3 776.8,156.4 772.6,156.2 765.4,152.4 762.5,153.5 759.1,151.8 
		754.1,152.6 749.7,151.2 747.1,147.4 744.5,144.5 743.5,141.6 740.2,138.1 738.1,134.9 733.4,128.5 731.9,124.8 726.7,118.1 
		725.2,114.6 718.6,111.3 714.2,112.8 710.5,111.9 702,110.2 690.7,114.2 688.6,116 690.9,119.2 688,126.8 688.9,127.7 693.9,130.8 
		696.5,126.5 701.1,129.4 700.9,131.4 702.6,136.6 705.5,139.9 711.3,140.8 713,138.9 716.5,138.5 723.2,132.9 731.9,139.3 
		729,151.2 729.6,159.7 729.6,164.9 727.3,166.1 727.1,179.7 726.5,179.2 724.2,176.3 722.9,176.3 722.3,177.4 715.1,188.2 
		711.5,192.8 711.9,194.2 719.2,199.2 723.2,198.1 723.8,199.2 722.9,200.4 719.2,202.1 718.8,205.4 	"/>
	<polygon class="st0" points="720.6,207.1 727.6,205.9 730.5,211.2 734.8,214.3 737.7,213.1 740.2,213.1 744.5,210.6 747.7,213.7 
		749.7,214.1 755.2,212 759.1,214.1 760.8,218.5 763.7,218.5 765.1,220.4 768.9,224.5 770.3,223.7 769.7,218.5 771.8,217 
		774.7,222.8 777.4,223.9 780.3,227.2 782.3,226.8 783.2,225.4 787.8,220.2 789.9,221.6 791.3,219.6 792.8,222.2 797.1,223.7 
		800,223.7 802.1,223.8 800.9,221.6 800.3,214.6 795.1,206.5 798,203.6 800.6,198.6 810.5,198.6 812.3,196.9 811.7,193.1 
		813.7,189.4 813.1,187.3 814,183.8 813.7,165.7 816.6,159.9 813.4,156.2 814,153.9 812.5,151.8 808.8,153.2 804.4,158.2 800,160.3 
		795.7,166.3 784.9,170.1 779.9,166.3 780.5,164 778,160.3 776.8,156.4 772.6,156.2 765.4,152.4 762.5,153.5 759.1,151.8 
		754.1,152.6 749.7,151.2 747.1,147.4 744.5,144.5 743.5,141.6 740.2,138.1 738.1,134.9 733.4,128.5 731.9,124.8 726.7,118.1 
		725.2,114.6 718.6,111.3 714.2,112.8 710.5,111.9 702,110.2 690.7,114.2 688.6,116 690.9,119.2 688,126.8 688.9,127.7 693.9,130.8 
		696.5,126.5 701.1,129.4 700.9,131.4 702.6,136.6 705.5,139.9 711.3,140.8 713,138.9 716.5,138.5 723.2,132.9 731.9,139.3 
		729,151.2 729.6,159.7 729.6,164.9 727.3,166.1 727.1,179.7 726.5,179.2 724.2,176.3 722.9,176.3 722.3,177.4 715.1,188.2 
		711.5,192.8 711.9,194.2 719.2,199.2 723.2,198.1 723.8,199.2 722.9,200.4 719.2,202.1 718.8,205.4 	"/>
	<polygon class="st0" points="720.6,207.1 727.6,205.9 730.5,211.2 734.8,214.3 737.7,213.1 740.2,213.1 744.5,210.6 747.7,213.7 
		749.7,214.1 755.2,212 759.1,214.1 760.8,218.5 763.7,218.5 765.1,220.4 768.9,224.5 770.3,223.7 769.7,218.5 771.8,217 
		774.7,222.8 777.4,223.9 780.3,227.2 782.3,226.8 783.2,225.4 787.8,220.2 789.9,221.6 791.3,219.6 792.8,222.2 797.1,223.7 
		800,223.7 802.1,223.8 800.9,221.6 800.3,214.6 795.1,206.5 798,203.6 800.6,198.6 810.5,198.6 812.3,196.9 811.7,193.1 
		813.7,189.4 813.1,187.3 814,183.8 813.7,165.7 816.6,159.9 813.4,156.2 814,153.9 812.5,151.8 808.8,153.2 804.4,158.2 800,160.3 
		795.7,166.3 784.9,170.1 779.9,166.3 780.5,164 778,160.3 776.8,156.4 772.6,156.2 765.4,152.4 762.5,153.5 759.1,151.8 
		754.1,152.6 749.7,151.2 747.1,147.4 744.5,144.5 743.5,141.6 740.2,138.1 738.1,134.9 733.4,128.5 731.9,124.8 726.7,118.1 
		725.2,114.6 718.6,111.3 714.2,112.8 710.5,111.9 702,110.2 690.7,114.2 688.6,116 690.9,119.2 688,126.8 688.9,127.7 693.9,130.8 
		696.5,126.5 701.1,129.4 700.9,131.4 702.6,136.6 705.5,139.9 711.3,140.8 713,138.9 716.5,138.5 723.2,132.9 731.9,139.3 
		729,151.2 729.6,159.7 729.6,164.9 727.3,166.1 727.1,179.7 726.5,179.2 724.2,176.3 722.9,176.3 722.3,177.4 715.1,188.2 
		711.5,192.8 711.9,194.2 719.2,199.2 723.2,198.1 723.8,199.2 722.9,200.4 719.2,202.1 718.8,205.4 	"/>
	<polygon class="st8" points="680.1,294.8 679.3,298.5 679.9,300.2 676.2,301.9 675.8,298.9 674.9,297 	"/>
	<polygon class="st0" points="680.1,294.8 679.3,298.5 679.9,300.2 676.2,301.9 675.8,298.9 674.9,297 	"/>
	<polygon class="st15" points="680.1,294.8 679.3,298.5 679.9,300.2 676.2,301.9 675.8,298.9 674.9,297 	"/>
	<g>
		<path class="st10" d="M772.5,514.6c-1-0.1-1.1-0.6-1-1.2c0.9-4.1,2.6-8,2.9-12.3c0-0.5,0.7-1.3,1.5-1c0.5,0.1,0.5,0.7,0.4,1.1
			c-0.8,4.1-2.4,8.1-2.9,12.3C773.4,513.9,772.8,514.3,772.5,514.6z"/>
		<path class="st10" d="M627.5,613.1c-0.4,0.9,0.5,2.1-0.7,2.2c-1.4,0.1-0.6-1.2-0.8-1.8c-0.9-3.6-3.1-6.4-5.3-9.3
			c-0.3-0.4-1.4-0.5-0.5-1.5s1.2,0.1,1.5,0.4C624.4,606.1,626.5,609.4,627.5,613.1z"/>
		<path class="st10" d="M757.2,546.4c2-4.1,4.6-7.6,8.5-10.1C763,539.8,760.9,543.8,757.2,546.4z"/>
		<path class="st10" d="M736.5,581c2.2-4.1,4.4-8.1,6.4-12.2c0.3-0.5,0.4-0.8,0.9-0.6c0.6,0.1,0.7,0.8,0.5,1.1
			c-2.5,3.9-3.6,8.6-6.8,12C737.5,581.4,737.1,581.2,736.5,581z"/>
		<path class="st10" d="M731.7,651.9c1.1,3.2-2.3,11.8-6,14.7C727.9,661.4,729.7,656.8,731.7,651.9z"/>
		<path class="st10" d="M700.2,699c0.2,0.2,0.5,0.5,0.7,0.7c0.5,0.4,0,0.6-0.2,0.7c-2.7,2.4-4.7,5.4-6.9,8.2c-0.3,0.4-0.8,1-1.4,0.6
			c-0.6-0.4-0.6-1.3-0.1-1.8c2.4-2.7,4.9-5.4,7.3-8.1C699.8,699.3,700,699.2,700.2,699z"/>
		<path class="st10" d="M661.5,747.5c-0.2,1.8-1.1,2.6-2.2,3c-2.8,0.8-5.7,1.3-8.5,2.2c-0.7,0.2-1.2,0.5-1.5-0.2
			c-0.4-0.9,0.6-1.3,1-1.3c2.2-0.2,4-1.5,6.4-1.5C658.1,749.7,659.7,748.4,661.5,747.5z"/>
		<path class="st10" d="M733.2,604.3c0,4,0,7.6,0,11.3c0,0.6,0.1,1.2-0.7,1.2c-0.3,0-0.7-0.4-0.7-0.5c0.5-3.8-0.8-7.7,0.6-11.5
			C732.5,604.6,732.8,604.6,733.2,604.3z"/>
		<path class="st10" d="M609.3,715.3c0.4,1.6-0.8,3.7,0.6,5.7c0.2,0.3,0,1.3-0.3,1.5c-0.8,0.4-1.5-0.3-1.6-0.9
			c-0.6-3.8-1.7-7.6-0.2-11.5c0.2-0.5,0.3-0.8,0.9-0.7c0.6,0.1,0.6,0.6,0.6,1.1C609.3,712,609.3,713.5,609.3,715.3z"/>
		<path class="st10" d="M633.7,651.3c-1.3,3.2-0.7,7-3.4,9.7c-0.4,0.4-0.3,1.6-1.2,0.9c-0.6-0.4-0.5-1.3,0-1.8
			c2.3-2.6,2.2-5.9,2.4-9c0.1-1,0.3-2.1,1.1-2C633.5,649.2,634,650.3,633.7,651.3z"/>
	</g>
	<g>
		<path class="st10" d="M716.7,535.6c0-0.5-0.4-1-1-1c-0.5,0-1,0.4-1,1c0,0.5,0.4,1,1,1C716.2,536.5,716.7,536.1,716.7,535.6
			L716.7,535.6z"/>
		<path class="st10" d="M667.5,671.9c-0.5,0-1,0.4-1,1c0,0.5,0.4,1,1,1c0.5,0,1-0.4,1-1C668.5,672.3,668,671.9,667.5,671.9
			L667.5,671.9z"/>
		<path class="st10" d="M667.5,671.9c-0.5,0-1,0.4-1,1c0,0.5,0.4,1,1,1c0.5,0,1-0.4,1-1C668.5,672.3,668,671.9,667.5,671.9
			L667.5,671.9z"/>
		<path class="st10" d="M674.6,667c0-0.5-0.4-1-1-1c-0.5,0-1,0.4-1,1c0,0.5,0.4,1,1,1C674.1,668,674.6,667.6,674.6,667L674.6,667z"
			/>
		<path class="st10" d="M674.6,667c0-0.5-0.4-1-1-1c-0.5,0-1,0.4-1,1c0,0.5,0.4,1,1,1C674.1,668,674.6,667.6,674.6,667L674.6,667z"
			/>
		<path class="st10" d="M667.5,672.2c-0.5,0-1,0.4-1,1c0,0.5,0.4,1,1,1c0.5,0,1-0.4,1-1C668.5,672.6,668,672.2,667.5,672.2
			L667.5,672.2z"/>
		<path class="st10" d="M667.5,672.2c-0.5,0-1,0.4-1,1c0,0.5,0.4,1,1,1c0.5,0,1-0.4,1-1C668.5,672.6,668,672.2,667.5,672.2
			L667.5,672.2z"/>
		<path class="st10" d="M686.8,670.4c0-0.5-0.4-1-1-1c-0.5,0-1,0.4-1,1c0,0.5,0.4,1,1,1C686.3,671.3,686.8,670.9,686.8,670.4
			L686.8,670.4z"/>
		<path class="st10" d="M686.8,670.4c0-0.5-0.4-1-1-1c-0.5,0-1,0.4-1,1c0,0.5,0.4,1,1,1C686.3,671.3,686.8,670.9,686.8,670.4
			L686.8,670.4z"/>
		<path class="st10" d="M699.8,644.1c0-0.5-0.4-1-1-1c-0.5,0-1,0.4-1,1c0,0.5,0.4,1,1,1C699.3,645,699.8,644.6,699.8,644.1
			L699.8,644.1z"/>
		<path class="st10" d="M699.8,644.1c0-0.5-0.4-1-1-1c-0.5,0-1,0.4-1,1c0,0.5,0.4,1,1,1C699.3,645,699.8,644.6,699.8,644.1
			L699.8,644.1z"/>
		<path class="st10" d="M692,650.7c0-0.5-0.4-1-1-1c-0.5,0-1,0.4-1,1c0,0.5,0.4,1,1,1S692,651.3,692,650.7L692,650.7z"/>
		<path class="st10" d="M692,650.7c0-0.5-0.4-1-1-1c-0.5,0-1,0.4-1,1c0,0.5,0.4,1,1,1S692,651.3,692,650.7L692,650.7z"/>
		<path class="st10" d="M671,655.1c0-0.5-0.4-1-1-1c-0.5,0-1,0.4-1,1c0,0.5,0.4,1,1,1C670.5,656.1,671,655.7,671,655.1L671,655.1z"
			/>
		<path class="st10" d="M671,655.1c0-0.5-0.4-1-1-1c-0.5,0-1,0.4-1,1c0,0.5,0.4,1,1,1C670.5,656.1,671,655.7,671,655.1L671,655.1z"
			/>
		<path class="st0" d="M695.1,563c0-0.5-0.4-1-1-1c-0.5,0-1,0.4-1,1c0,0.5,0.4,1,1,1C694.6,563.9,695.1,563.5,695.1,563L695.1,563z"
			/>
		<path class="st10" d="M747.1,512c0-0.5-0.4-1-1-1c-0.5,0-1,0.4-1,1c0,0.5,0.4,1,1,1C746.7,513,747.1,512.6,747.1,512L747.1,512z"
			/>
		<path class="st10" d="M705.8,610.4c-0.4,0.4-0.4,1,0,1.4s1,0.4,1.4,0s0.4-1,0-1.4C706.8,610.1,706.2,610.1,705.8,610.4
			L705.8,610.4z"/>
		<path class="st10" d="M705.8,610.4c-0.4,0.4-0.4,1,0,1.4s1,0.4,1.4,0s0.4-1,0-1.4C706.8,610.1,706.2,610.1,705.8,610.4
			L705.8,610.4z"/>
		<path class="st8" d="M650.5,596.5c0-0.5-0.4-1-1-1c-0.5,0-1,0.4-1,1c0,0.5,0.4,1,1,1C650.1,597.4,650.5,597,650.5,596.5
			L650.5,596.5z"/>
		<path class="st22" d="M650.5,596.5c0-0.5-0.4-1-1-1c-0.5,0-1,0.4-1,1c0,0.5,0.4,1,1,1C650.1,597.4,650.5,597,650.5,596.5
			L650.5,596.5z"/>
		<path class="st0" d="M657.1,597c0-0.5-0.4-1-1-1c-0.5,0-1,0.4-1,1c0,0.5,0.4,1,1,1C656.7,598,657.1,597.6,657.1,597L657.1,597z"/>
		<path class="st0" d="M657.1,597c0-0.5-0.4-1-1-1c-0.5,0-1,0.4-1,1c0,0.5,0.4,1,1,1C656.7,598,657.1,597.6,657.1,597L657.1,597z"/>
		<path class="st11" d="M659.4,605.6c0-0.5-0.4-1-1-1c-0.5,0-1,0.4-1,1c0,0.5,0.4,1,1,1C658.9,606.6,659.4,606.1,659.4,605.6
			L659.4,605.6z"/>
		<path class="st11" d="M659.4,605.6c0-0.5-0.4-1-1-1c-0.5,0-1,0.4-1,1c0,0.5,0.4,1,1,1C658.9,606.6,659.4,606.1,659.4,605.6
			L659.4,605.6z"/>
		<path class="st10" d="M648,608.4c0-0.5-0.4-1-1-1c-0.5,0-1,0.4-1,1c0,0.5,0.4,1,1,1C647.6,609.3,648,608.9,648,608.4L648,608.4z"
			/>
		<path class="st10" d="M648,608.4c0-0.5-0.4-1-1-1c-0.5,0-1,0.4-1,1c0,0.5,0.4,1,1,1C647.6,609.3,648,608.9,648,608.4L648,608.4z"
			/>
		<path class="st11" d="M679.8,603.7c0-0.5-0.4-1-1-1c-0.5,0-1,0.4-1,1c0,0.5,0.4,1,1,1C679.4,604.6,679.8,604.2,679.8,603.7
			L679.8,603.7z"/>
		<path class="st11" d="M679.8,603.7c0-0.5-0.4-1-1-1c-0.5,0-1,0.4-1,1c0,0.5,0.4,1,1,1C679.4,604.6,679.8,604.2,679.8,603.7
			L679.8,603.7z"/>
		<path class="st10" d="M671.8,609.7c0,0.5,0.4,1,1,1c0.5,0,1-0.4,1-1c0-0.5-0.4-1-1-1C672.2,608.8,671.8,609.2,671.8,609.7
			L671.8,609.7z"/>
		<path class="st10" d="M671.8,609.7c0,0.5,0.4,1,1,1c0.5,0,1-0.4,1-1c0-0.5-0.4-1-1-1C672.2,608.8,671.8,609.2,671.8,609.7
			L671.8,609.7z"/>
		<path class="st10" d="M710.8,648.8c0-0.5-0.4-1-1-1c-0.5,0-1,0.4-1,1c0,0.5,0.4,1,1,1C710.4,649.8,710.8,649.3,710.8,648.8
			L710.8,648.8z"/>
		<path class="st10" d="M710.8,648.8c0-0.5-0.4-1-1-1c-0.5,0-1,0.4-1,1c0,0.5,0.4,1,1,1C710.4,649.8,710.8,649.3,710.8,648.8
			L710.8,648.8z"/>
		<path class="st10" d="M677.6,644.6c0-0.5-0.4-1-1-1c-0.5,0-1,0.4-1,1c0,0.5,0.4,1,1,1C677.2,645.6,677.6,645.2,677.6,644.6
			L677.6,644.6z"/>
		<path class="st10" d="M677.6,644.6c0-0.5-0.4-1-1-1c-0.5,0-1,0.4-1,1c0,0.5,0.4,1,1,1C677.2,645.6,677.6,645.2,677.6,644.6
			L677.6,644.6z"/>
		<path class="st10" d="M679.8,658.2c0-0.5-0.4-1-1-1c-0.5,0-1,0.4-1,1c0,0.5,0.4,1,1,1C679.4,659.2,679.8,658.7,679.8,658.2
			L679.8,658.2z"/>
		<path class="st10" d="M679.8,658.2c0-0.5-0.4-1-1-1c-0.5,0-1,0.4-1,1c0,0.5,0.4,1,1,1C679.4,659.2,679.8,658.7,679.8,658.2
			L679.8,658.2z"/>
		<path class="st10" d="M632,681.2c0-0.5-0.4-1-1-1c-0.5,0-1,0.4-1,1c0,0.5,0.4,1,1,1C631.5,682.1,632,681.7,632,681.2L632,681.2z"
			/>
		<path class="st10" d="M632,681.2c0-0.5-0.4-1-1-1c-0.5,0-1,0.4-1,1c0,0.5,0.4,1,1,1C631.5,682.1,632,681.7,632,681.2L632,681.2z"
			/>
		<path class="st10" d="M640.8,677.6c0-0.5-0.4-1-1-1c-0.5,0-1,0.4-1,1c0,0.5,0.4,1,1,1C640.4,678.5,640.8,678.1,640.8,677.6
			L640.8,677.6z"/>
		<path class="st10" d="M640.8,677.6c0-0.5-0.4-1-1-1c-0.5,0-1,0.4-1,1c0,0.5,0.4,1,1,1C640.4,678.5,640.8,678.1,640.8,677.6
			L640.8,677.6z"/>
		<path class="st10" d="M654.6,674.8c0-0.5-0.4-1-1-1c-0.5,0-1,0.4-1,1c0,0.5,0.4,1,1,1C654.2,675.8,654.6,675.3,654.6,674.8
			L654.6,674.8z"/>
		<path class="st10" d="M654.6,674.8c0-0.5-0.4-1-1-1c-0.5,0-1,0.4-1,1c0,0.5,0.4,1,1,1C654.2,675.8,654.6,675.3,654.6,674.8
			L654.6,674.8z"/>
		<path class="st10" d="M673.5,679.2c0-0.5-0.4-1-1-1c-0.5,0-1,0.4-1,1c0,0.5,0.4,1,1,1C673,680.2,673.5,679.8,673.5,679.2
			L673.5,679.2z"/>
		<path class="st10" d="M673.5,679.2c0-0.5-0.4-1-1-1c-0.5,0-1,0.4-1,1c0,0.5,0.4,1,1,1C673,680.2,673.5,679.8,673.5,679.2
			L673.5,679.2z"/>
		<path class="st10" d="M650.5,680.3c0-0.5-0.4-1-1-1c-0.5,0-1,0.4-1,1c0,0.5,0.4,1,1,1S650.5,680.9,650.5,680.3L650.5,680.3z"/>
		<path class="st10" d="M650.5,680.3c0-0.5-0.4-1-1-1c-0.5,0-1,0.4-1,1c0,0.5,0.4,1,1,1S650.5,680.9,650.5,680.3L650.5,680.3z"/>
		<path class="st10" d="M663,690.3c0-0.5-0.4-1-1-1c-0.5,0-1,0.4-1,1c0,0.5,0.4,1,1,1C662.5,691.3,663,690.8,663,690.3L663,690.3z"
			/>
		<path class="st10" d="M663,690.3c0-0.5-0.4-1-1-1c-0.5,0-1,0.4-1,1c0,0.5,0.4,1,1,1C662.5,691.3,663,690.8,663,690.3L663,690.3z"
			/>
		<path class="st10" d="M663.2,696.1c0-0.5-0.4-1-1-1c-0.5,0-1,0.4-1,1c0,0.5,0.4,1,1,1S663.2,696.6,663.2,696.1L663.2,696.1z"/>
		<path class="st10" d="M663.2,696.1c0-0.5-0.4-1-1-1c-0.5,0-1,0.4-1,1c0,0.5,0.4,1,1,1S663.2,696.6,663.2,696.1L663.2,696.1z"/>
		<path class="st10" d="M657.1,708.8c0-0.5-0.4-1-1-1c-0.5,0-1,0.4-1,1c0,0.5,0.4,1,1,1C656.7,709.8,657.1,709.4,657.1,708.8
			L657.1,708.8z"/>
		<path class="st10" d="M657.1,708.8c0-0.5-0.4-1-1-1c-0.5,0-1,0.4-1,1c0,0.5,0.4,1,1,1C656.7,709.8,657.1,709.4,657.1,708.8
			L657.1,708.8z"/>
		<path class="st10" d="M754.6,509.5c0-0.5-0.4-1-1-1c-0.5,0-1,0.4-1,1c0,0.5,0.4,1,1,1C754.1,510.5,754.6,510.1,754.6,509.5
			L754.6,509.5z"/>
		<path class="st0" d="M688.4,557.2c0-0.5-0.4-1-1-1c-0.5,0-1,0.4-1,1c0,0.5,0.4,1,1,1C688,558.1,688.4,557.7,688.4,557.2
			L688.4,557.2z"/>
	</g>
</g>
<polygon class="st15" points="599,273.6 604.7,284.9 609.5,290.5 612.9,294.9 616.8,312.2 619.1,309.7 620.5,310.8 624.1,307.9 
	626,307.9 632.4,298.6 635.7,298.9 639.7,296 640.9,297.2 648.4,293.3 644.7,287 645.9,280.6 649,273.9 651.7,272.7 653.4,273.6 
	653.4,278.3 655.5,279.7 662.1,274.2 664.2,275 666.5,272.9 671.5,272.7 672.3,271 671.1,268.3 672.8,266.6 676.4,264.2 
	678.7,262.8 671.5,255.4 666.6,251.3 663.3,249.1 660.1,247.4 656.7,244.3 654.4,241.6 651.1,237.2 647.6,232.2 646.4,229.9 
	641.2,236.9 636.2,239.9 623.5,236.3 619.7,240.1 617.9,246.8 623.1,254.4 615,260.8 608.1,269.6 "/>
<text transform="matrix(1 0 0 1 235.2175 79.1396)" class="st23 st24">中国癌症5年生存率的地区差异</text>
<g>
	<g>
		<text transform="matrix(1 0 0 1 120.2546 753.0312)" class="st25 st26">20%</text>
		<text transform="matrix(1 0 0 1 240.6706 753.0312)" class="st25 st26">30%</text>
		<text transform="matrix(1 0 0 1 361.0867 753.0312)" class="st25 st26">40%</text>
		<text transform="matrix(1 0 0 1 456.5027 753.0312)" class="st25 st26">5年生存率</text>
	</g>
	<line class="st27" x1="134.8" y1="735.7" x2="496.1" y2="735.7"/>
	<g>
		<g>
			<path class="st27" d="M134.8,728.2"/>
			<path class="st27" d="M134.8,735.7"/>
			<path class="st27" d="M255.2,728.2"/>
			<path class="st27" d="M375.7,735.7"/>
			<path class="st27" d="M496.1,735.7"/>
		</g>
	</g>
</g>
<g>
	<path class="st27" d="M134.8,735.7"/>
	<g>
		<g>
			<line class="st27" x1="134.8" y1="716.9" x2="143.9" y2="716.9"/>
			<line class="st27" x1="134.8" y1="679.5" x2="143.9" y2="679.5"/>
			<path class="st27" d="M143.9,642"/>
			<path class="st27" d="M504.2,611.6"/>
			<path class="st27" d="M495.2,611.6"/>
			<path class="st27" d="M139.3,571"/>
			<line class="st27" x1="134.8" y1="529.7" x2="143.9" y2="529.7"/>
			<line class="st27" x1="134.8" y1="492.3" x2="143.9" y2="492.3"/>
		</g>
	</g>
</g>
<g>
	<g>
		<g>
			<rect x="135.2" y="553.1" class="st15" width="203.5" height="27"/>
			<rect x="134" y="589.1" class="st21" width="222.8" height="27"/>
			<rect x="135.2" y="661.2" class="st13" width="244.4" height="27"/>
			<rect x="135.2" y="697.1" class="st3" width="252.9" height="27"/>
			<rect x="134.4" y="625.1" class="st9" width="234.8" height="27"/>
			<rect x="135.2" y="481.1" class="st19" width="59" height="27"/>
		</g>
	</g>
</g>
<g>
	<text transform="matrix(1 0 0 1 92.3332 499.1252)" class="st23 st26">西南</text>
	<text transform="matrix(1 0 0 1 92.3332 643.1251)" class="st23 st26">华南</text>
	<text transform="matrix(1 0 0 1 92.3336 715.125)" class="st23 st26">华中</text>
	<text transform="matrix(1 0 0 1 92.3339 679.125)" class="st23 st26">华东</text>
	<text transform="matrix(1 0 0 1 92.3332 607.1251)" class="st23 st26">东北</text>
	<text transform="matrix(1 0 0 1 92.3332 570.6437)" class="st23 st26">华北</text>
</g>
<rect x="197.5" y="817" class="st0" width="860.4" height="41.1"/>
<text transform="matrix(1 0 0 1 299.6576 831.2963)" class="st23 st28">数据来源:Cancer Statistics in China,2015 CA CANCER J CLIN 2016;66:115–132</text>
<g>
	<rect x="181.1" y="490.1" class="st0" width="72" height="27"/>
	<text transform="matrix(1 0 0 1 196.5762 501.8092)" class="st25 st26">24.9%</text>
</g>
<rect x="135.2" y="517.2" class="st6" width="192.7" height="27"/>
<text transform="matrix(1 0 0 1 92.3332 535.1251)" class="st23 st26">西北</text>
<g>
	<path class="st0" d="M379.1,553.1h-45c-12,0-18-6-18-13.5l0,0c0-7.5,6-13.5,13.5-13.5h45c7.5,0,13.5,6,13.5,13.5l0,0
		C388.1,547,382,553.1,379.1,553.1z"/>
	<text transform="matrix(1 0 0 1 331.5761 537.77)" class="st25 st26">35.9%</text>
</g>
<text transform="matrix(1 0 0 1 340.5761 571.0859)" class="st25 st26">36.9%</text>
<text transform="matrix(1 0 0 1 358.5761 607.0859)" class="st25 st26">38.5%</text>
<text transform="matrix(1 0 0 1 376.5761 643.0859)" class="st25 st26">39.5%</text>
<text transform="matrix(1 0 0 1 385.5761 679.0859)" class="st25 st26">40.3%</text>
<text transform="matrix(1 0 0 1 391.5029 715.0859)" class="st25 st26">41%</text>
</svg>
