<?xml version="1.0" encoding="utf-8"?>
<!-- Generator: Adobe Illustrator 21.0.0, SVG Export Plug-In . SVG Version: 6.00 Build 0)  -->
<svg version="1.1" id="Layer_1" xmlns="http://www.w3.org/2000/svg" xmlns:xlink="http://www.w3.org/1999/xlink" x="0px" y="0px"
	 viewBox="0 0 1000 532.4" style="enable-background:new 0 0 1000 532.4;" xml:space="preserve">
<style type="text/css">
	.st0{fill:#DFDFDF;}
	.st1{fill:#0D47A1;}
	.st2{fill:#C29400;}
	.st3{font-family:'SourceHanSerifCN-Medium-GBpc-EUC-H';}
	.st4{font-size:18px;}
	.st5{font-size:20.3308px;}
	.st6{font-size:23.4386px;}
	.st7{fill:none;}
</style>
<g>
	<g>
		<g>
			<g>
				<path class="st0" d="M216.9,301.2l64.4,29.8c-16.6,35.3-58.8,50.5-94.4,34.1c-35.5-16.4-50.9-58.4-34.4-93.8
					c12-25.4,36.2-40.7,64.4-40.7V301.2z"/>
			</g>
		</g>
		<g>
			<g>
				<path class="st1" d="M216.9,301.2v-70.6c39.2,0,71,31.6,71,70.6c0,10.9-2,19.9-6.6,29.8L216.9,301.2z"/>
			</g>
		</g>
	</g>
</g>
<g>
	<g>
		<g>
			<g>
				<path class="st0" d="M391.6,300.2l46.6-55.9c31.8,25,36.7,70.3,10.9,101.2c-25.8,30.9-72.5,35.6-104.3,10.6
					s-36.7-70.3-10.9-101.2c14.5-17.3,34.7-26.6,57.7-26.6V300.2z"/>
			</g>
		</g>
		<g>
			<g>
				<path class="st2" d="M391.6,300.2v-72c18,0,32.7,5,46.6,16L391.6,300.2z"/>
			</g>
		</g>
	</g>
</g>
<g>
	<g>
		<g>
			<g>
				<path class="st0" d="M604.4,302.4l42.7-56.4c31.3,23.5,37.6,67.8,14,98.9c-23.6,31.2-68.1,37.4-99.5,13.9
					c-31.3-23.5-37.6-67.8-14-98.9c13.8-18.1,33.9-28.1,56.7-28.1L604.4,302.4L604.4,302.4z"/>
			</g>
		</g>
		<g>
			<g>
				<path class="st1" d="M604.4,302.4v-70.6c16.3,0,29.7,4.5,42.7,14.2L604.4,302.4z"/>
			</g>
		</g>
	</g>
</g>
<g>
	<g>
		<g>
			<g>
				<path class="st0" d="M781.6,299.6L852,282c9.7,38.9-14,78.3-52.9,88s-78.3-14-88-52.9s14-78.3,52.9-88
					c5.8-1.4,11.6-2.2,17.6-2.2V299.6z"/>
			</g>
		</g>
		<g>
			<g>
				<path class="st2" d="M781.6,299.6V227c34.1,0,62.2,22,70.4,55L781.6,299.6z"/>
			</g>
		</g>
	</g>
</g>
<text transform="matrix(1 0 0 1 176.791 140.8281)" class="st3 st4">公共医疗支出占政府总支出比例</text>
<text transform="matrix(1 0 0 1 177.1035 111.2329)" class="st3 st4">自费支出占个人医疗总支出比例</text>
<text transform="matrix(1 0 0 1 194.7172 405.917)" class="st3 st5">32%</text>
<g>
	<text transform="matrix(1 0 0 1 351.4238 405.6826)" class="st3 st5">10.43%</text>
</g>
<g>
	<text transform="matrix(1 0 0 1 588.2626 405.5225)" class="st3 st5">11%</text>
</g>
<g>
	<text transform="matrix(1 0 0 1 756.0966 405.6621)" class="st3 st5">21.29%</text>
</g>
<rect x="145.9" y="98.9" class="st1" width="24.2" height="13.3"/>
<rect x="145.9" y="128.1" class="st2" width="24.2" height="13.3"/>
<text transform="matrix(1 0 0 1 272.601 450.5254)" class="st3 st6">中国</text>
<g>
	<rect x="666" y="427.1" class="st7" width="68.5" height="24.1"/>
	<text transform="matrix(1 0 0 1 666.0078 446.0723)" class="st3 st6">美国</text>
</g>
</svg>
